<?xml version="1.0" standalone="no"?>
<!DOCTYPE svg PUBLIC "-//W3C//DTD SVG 1.1//EN" "http://www.w3.org/Graphics/SVG/1.1/DTD/svg11.dtd" >
<svg xmlns="http://www.w3.org/2000/svg" xmlns:xlink="http://www.w3.org/1999/xlink" version="1.1">
<metadata></metadata>
<defs>
<font id="cmu_serifitalic" horiz-adv-x="1046" >
<font-face units-per-em="2048" ascent="1638" descent="-410" />
<missing-glyph horiz-adv-x="733" />
<glyph unicode="&#xfb01;" horiz-adv-x="1150" d="M-51 -285q0 51 32 81t70 30q32 0 50 -20t18 -48q0 -32 -23 -60t-67 -36q41 -37 80 -37q16 0 29 4.5t25.5 19.5t23 33.5t22.5 55.5t22.5 76.5t25 105.5t28.5 133.5t34 169.5l99 508q3 15 8 44.5t8 43.5q-14 0 -43 -1t-43 -1h-29q-21 0 -32 1.5t-20 9t-9 22.5q0 31 57 31 h131v2q13 80 24.5 137t27.5 115.5t35 98t45.5 77t59.5 60.5t76.5 41.5t97.5 26t122 7.5q69 0 122.5 -10.5t83.5 -26.5t49 -38t25.5 -41t6.5 -40q0 -47 -29 -80.5t-72 -33.5q-31 0 -50 19t-19 48q0 33 22.5 61t65.5 35q-20 18 -38 28.5t-63 21t-108 10.5q-213 0 -267 -150 q-1 -3 -1 -4q-17 -45 -37.5 -136t-32.5 -157t-12 -71h491q25 0 34 -6t9 -19q0 -9 -8 -41l-143 -573q-21 -87 -21 -138q0 -79 51 -79q25 0 48 23t39.5 61t27.5 71t20.5 69t10.5 40q8 24 32 24q29 0 29 -24q0 -26 -33 -129q-13 -36 -25.5 -62.5t-33.5 -57t-51 -47t-68 -16.5 q-75 0 -122.5 53.5t-47.5 131.5q0 24 19 110l137 547h-408v-2q-9 -54 -69 -362.5t-72 -364.5q-13 -61 -26 -110t-33.5 -112.5t-45 -110.5t-55 -89.5t-70.5 -65t-85 -22.5q-63 0 -112.5 36t-49.5 99z" />
<glyph unicode="&#xfb02;" horiz-adv-x="1204" d="M-51 -285q0 43 29 77t73 34q32 0 50 -20t18 -48q0 -32 -23 -60t-67 -36q41 -37 80 -37q64 0 102 115t113 502q24 124 44 230t29.5 157.5t17.5 93t12 60.5t7 36q-14 0 -43 -1t-43 -1h-29q-21 0 -32 1.5t-20 9t-9 22.5q0 31 57 31h131v2q12 76 21.5 125t24.5 109t31.5 97.5 t40.5 79t54 66t69.5 46t90.5 31t113 9.5h2q52 0 93.5 -7t67.5 -16t45 -25.5t27.5 -27t13.5 -30t5.5 -24.5t1.5 -20q14 66 22 89t16 29.5t29 6.5h48q41 0 41 -26q0 -6 -3.5 -17.5t-3.5 -13.5l-272 -1092l-10.5 -42t-15 -69t-5.5 -59q0 -32 13 -54.5t41 -22.5q36 0 64.5 42.5 t42.5 93.5t28 97t24 51q10 7 26 3t19 -17q1 -6 -4 -37q-14 -55 -26.5 -92.5t-30.5 -76t-38 -61t-48 -37t-62 -14.5q-25 0 -52 9t-55.5 28.5t-46.5 58t-18 89.5q0 19 3.5 39t12 52.5t11.5 47.5l131 518h-461l-98 -510q-59 -307 -103.5 -442t-107.5 -209q-68 -78 -147 -78 q-68 0 -115 37.5t-47 97.5zM580 881h462l95 374q-35 -57 -93 -57q-28 0 -47.5 18.5t-19.5 47.5q0 31 20 58t58 38q-59 39 -158 39q-133 0 -199 -76q-35 -40 -66.5 -177.5t-51.5 -264.5z" />
<glyph unicode="&#xfb03;" horiz-adv-x="1804" d="M-51 -285q0 50 30.5 80.5t71.5 30.5q32 0 50 -20t18 -48q0 -32 -23 -60t-67 -36q41 -37 80 -37q19 0 35 8t29.5 28.5t21.5 35.5t18.5 51t14.5 51t14 58q25 106 73 346.5t83 428.5l36 187q-14 0 -44 -1t-44 -1h-31q-50 0 -55 21q-4 12 3 26t28 17h57h98l12 66 q14 77 22 115t25.5 101.5t36 95.5t50.5 74.5t71 62.5t96 35t128 15q46 0 86.5 -6.5t78.5 -21t60.5 -43t22.5 -68.5q0 -50 -32 -79.5t-71 -29.5q-29 0 -48 17t-19 49q0 35 23.5 61.5t53.5 34.5q-56 39 -151 39q-133 0 -197 -80q-18 -22 -35 -74t-26.5 -98.5t-27 -136 t-25.5 -129.5h495q39 206 51 250q43 160 130 230q105 85 317 85q75 0 131.5 -10.5t88 -26.5t50.5 -38t25 -41t6 -40q0 -58 -33 -86t-67 -28q-30 0 -50 18.5t-20 48.5q0 32 22.5 60t65.5 36q-20 17 -39.5 28t-67 21.5t-112.5 10.5q-46 0 -83.5 -6t-66.5 -15t-52 -27.5 t-39.5 -36t-31 -48.5t-23 -56t-18.5 -68.5t-16.5 -76.5t-17 -88t-19.5 -96h518q24 0 33.5 -5.5t9.5 -19.5t-6 -41l-143 -575q-23 -90 -23 -138q0 -77 52 -77q25 0 47.5 22.5t38 59t27 70t20.5 69t12 43.5q8 24 33 24q28 0 28 -24q0 -29 -32 -129q-12 -36 -25 -62.5t-34 -57 t-51.5 -47t-68.5 -16.5q-75 0 -122 53.5t-47 131.5q0 29 18 110l137 547h-434q-4 -27 -17 -93.5t-42.5 -218t-57.5 -296.5q-46 -236 -89 -346t-111 -176q-115 -111 -240 -111q-48 0 -92.5 12.5t-79.5 45.5t-35 81q0 44 29.5 76.5t72.5 32.5q34 0 51 -21.5t17 -42.5 q0 -40 -24.5 -64.5t-57.5 -33.5q50 -39 117 -39q69 0 130 59t83 123q27 75 80.5 328t93.5 469l39 215h-494q-9 -53 -69 -359.5t-72 -361.5q-15 -65 -27 -113t-32.5 -114t-44.5 -112.5t-55 -90t-70.5 -66t-85.5 -22.5q-63 0 -112.5 36t-49.5 99z" />
<glyph unicode="&#xfb04;" horiz-adv-x="1830" d="M-51 -285q0 51 32 81t70 30q32 0 50 -20t18 -48q0 -32 -23 -60t-67 -36q41 -37 80 -37q19 0 35 8t29.5 28.5t21.5 35.5t18.5 51t14.5 51t14 58q25 106 73 346.5t83 428.5l36 187q-14 0 -44 -1t-44 -1h-31q-50 0 -55 21q-4 13 3.5 27.5t27.5 15.5h57h98q48 253 71 323 q29 89 81 142q97 100 264 100h4q99 -1 157 -39t58 -100q0 -43 -28 -76t-72 -33q-30 0 -49 19t-19 47t18 55.5t62 40.5q-1 0 -6 4t-10 6.5l-14 7t-18.5 8t-21.5 6.5t-26.5 5t-30.5 2q-51 0 -104 -24t-78 -64q-19 -32 -37 -102t-40.5 -189.5t-26.5 -138.5h495q9 60 16.5 102 t18.5 91.5t22 84t26.5 73t34 64.5t42.5 52.5t53 42.5t64 29.5t78 19.5t94 6q250 0 250 -150h2q20 92 28.5 108.5t36.5 16.5h49q41 0 41 -26q0 -4 -1 -9t-2.5 -11t-2.5 -9l-274 -1094q-1 -7 -7.5 -32.5t-10.5 -43.5t-7.5 -45t-3.5 -49q0 -77 51 -77q36 0 64.5 42.5t43 93.5 t29.5 97t25 51q10 7 26 3t19 -17q1 -5 0 -11.5t-3 -14t-3 -11.5q-37 -143 -80.5 -212t-122.5 -69q-26 0 -53.5 9.5t-55 29t-45.5 57.5t-18 89q0 36 12 86l144 571h-459q-16 -82 -43 -228t-40 -212t-35 -173t-36.5 -161t-34.5 -121.5t-40 -109t-43 -72.5 q-44 -61 -120.5 -112.5t-166.5 -51.5q-49 0 -94 12.5t-79 45.5t-34 81q0 45 30 77t70 32q30 0 50 -18.5t20 -47.5q0 -31 -21.5 -58.5t-60.5 -37.5q53 -39 117 -39t129 58q34 31 58 73t41 90.5t37.5 145t38 191t52.5 278t72 358.5h-496v-2q-8 -52 -69 -360.5t-74 -370.5 q-14 -61 -26.5 -108t-32.5 -111t-44 -110.5t-54.5 -89t-70.5 -65t-85 -22.5q-63 0 -112.5 36t-49.5 99zM1208 881h463l94 374h-2q-35 -57 -90 -57q-28 0 -48.5 18.5t-20.5 47.5q0 31 20.5 58t58.5 38q-59 39 -157 39q-133 0 -199 -76q-35 -40 -67.5 -178.5t-51.5 -263.5z " />
<glyph horiz-adv-x="0" />
<glyph horiz-adv-x="682" />
<glyph unicode=" "  horiz-adv-x="733" />
<glyph unicode="&#x09;" horiz-adv-x="733" />
<glyph unicode="&#xa0;" horiz-adv-x="733" />
<glyph unicode="!" horiz-adv-x="628" d="M229 88q0 52 41.5 90.5t89.5 38.5q38 0 64.5 -24.5t26.5 -63.5q0 -47 -40.5 -88t-91.5 -41q-39 0 -64.5 25.5t-25.5 62.5zM385 412q0 14 2 20l154 903q6 34 19 59.5t27.5 39t32.5 21t30 9.5t24 2q37 0 63.5 -22.5t26.5 -59.5q0 -14 -14 -61l-295 -899q-4 -12 -7.5 -19 t-12.5 -14.5t-21 -7.5q-29 0 -29 29z" />
<glyph unicode="&#x22;" d="M520 721q0 14 50.5 330.5t56.5 330.5q10 26 35.5 43t54.5 19q30 0 50.5 -18t20.5 -48q0 -27 -16 -67l-203 -588q-10 -31 -28 -31q-21 0 -21 29zM838 725q0 13 49 325.5t57 331.5q11 27 34 44t52 18h2q31 0 51.5 -19t20.5 -47q0 -10 -2.5 -21t-8 -26.5t-6.5 -19.5 l-200 -588q-10 -31 -29 -31q-20 0 -20 33z" />
<glyph unicode="#" horiz-adv-x="1675" d="M238 313q0 23 51 23h336l176 352h-410q-53 0 -53 23q0 11 8 16t15 5.5t24 0.5h440q312 625 330 658q16 26 29 26t17.5 -10.5t-5.5 -36.5l-319 -637h397q310 625 328 658q16 26 30 26q12 0 16 -10.5t-6 -36.5l-317 -637h315q48 0 48 -22q0 -11 -9 -16t-17 -6t-24 -1h-338 l-176 -352h412q53 0 53 -23q0 -14 -12 -18t-37 -4h-440l-305 -613q-34 -71 -54 -71q-18 0 -18 16q0 8 3 19.5t12 30t14.5 29t19.5 37.5t19 36l258 516h-396l-305 -613q-29 -59 -43 -68q-5 -3 -10 -3q-19 0 -19 16q0 26 66 152l260 516h-317q-47 0 -47 22zM678 336h395 l176 352h-397z" />
<glyph unicode="$" d="M231 252q0 39 5.5 73t18 64.5t36 48t55.5 17.5t50 -19.5t18 -48.5q0 -37 -28 -65.5t-77 -28.5h-12v-33q0 -200 203 -219l155 623q-18 4 -25.5 6t-38 13t-49.5 23t-47 35.5t-45 52t-29.5 71.5t-12.5 93q0 82 33.5 164.5t90.5 150t140.5 114t177.5 57.5q16 66 24 78 q9 12 25 12q29 0 29 -25q0 -7 -2.5 -17t-6.5 -24t-6 -24q118 -9 187 -75.5t69 -184.5q0 -108 -32.5 -148.5t-77.5 -40.5q-32 0 -51 20t-19 48q0 37 28 65.5t77 28.5h12q0 19 -0.5 31.5t-4.5 36t-11.5 40.5t-23 38t-36.5 35.5t-55 26t-76 15.5l-141 -565q75 -19 118 -48 q122 -84 123 -259q0 -120 -57.5 -235.5t-162.5 -197.5t-232 -98q-6 -28 -8.5 -40t-8.5 -26t-13.5 -19t-18.5 -5q-27 0 -27 29q0 16 12 64q-122 10 -187 81.5t-65 190.5zM522 1036q0 -161 169 -201q4 -1 5 -1l138 544q-140 -25 -226 -128t-86 -214zM565 43q130 21 225 139 t95 250q0 174 -166 212q-3 1 -4 1z" />
<glyph unicode="%" horiz-adv-x="1673" d="M297 -74q0 16 22 41l1174 1362v2q-128 -59 -250 -59q-85 0 -155 26t-113 60q6 -29 6 -80q0 -130 -53.5 -262.5t-140 -218.5t-173.5 -86q-86 0 -140 74t-54 198q0 130 58 259.5t149 211.5t182 82q77 0 123 -66q114 -153 313 -153q113 0 220.5 51t176.5 131 q19 22 28.5 29.5t23.5 7.5q15 0 27 -12t12 -29q0 -13 -23 -43l-1329 -1540q-22 -27 -43 -27q-16 0 -28.5 12t-12.5 29zM524 920q0 -26 3.5 -50.5t12.5 -52t29 -44.5t49 -17q64 0 135 80t119 205.5t48 246.5q0 51 -10 95t-36 76t-65 32q-62 0 -118 -67.5t-91 -162.5 t-55.5 -188t-20.5 -153zM1051 158q0 128 57 257t148.5 212.5t185.5 83.5q48 0 83.5 -26t53.5 -67t26.5 -82.5t8.5 -82.5q0 -92 -31.5 -193.5t-81.5 -184t-118.5 -136.5t-137.5 -54q-88 0 -141 77t-53 196zM1155 94q0 -20 2.5 -40.5t10.5 -52t29 -51.5t52 -20q47 0 101 48 t98 122t73 172t29 191q0 90 -28 146.5t-80 56.5q-64 0 -121 -69.5t-91.5 -166t-54.5 -188.5t-20 -148z" />
<glyph unicode="&#x26;" horiz-adv-x="1568" d="M258 360q0 75 46.5 196t144.5 228q6 12 6 13q0 4 -4 14q-19 60 -19 123q0 95 37.5 192t98 171.5t140.5 121.5t160 47q101 0 159 -68t58 -167q0 -21 -3 -42t-12.5 -51.5t-33 -49.5t-59.5 -19t-54 20.5t-18 45.5q0 5 0.5 12t7 24t17.5 30t35 23.5t57 10.5q-1 53 -16 91.5 t-39.5 58t-48.5 28t-50 8.5q-68 0 -128.5 -55.5t-99.5 -139.5t-63 -177t-26 -175q106 70 201 70q57 0 93 -33t36 -90q0 -72 -59.5 -129t-137.5 -57q-43 0 -84.5 16.5t-57 28t-24.5 20.5q-38 -68 -71 -183.5t-33 -197.5q0 -71 23 -128t60 -92t87 -58t99 -32t101 -9 q111 0 205 26.5t159.5 69.5t118 101t83.5 117t52 120.5t28.5 109.5t7.5 87q0 149 -107 287q-52 -32 -75 -47t-58.5 -39t-50 -37.5t-34.5 -34.5t-27.5 -38t-13 -39t-5.5 -48q0 -29 6 -45q11 29 36 47t56 18q27 0 46.5 -15.5t19.5 -47.5q0 -38 -27.5 -67t-70.5 -29 q-55 0 -92 39.5t-37 105.5q0 51 21 95.5t62 82.5t72.5 60t81.5 53q49 31 82 54.5t81 65t85.5 94.5t62.5 116q-69 3 -69 63q0 43 30 69.5t66 26.5q27 0 47.5 -16.5t20.5 -46.5q0 -17 -14 -59t-41.5 -101t-82.5 -126t-123 -116q117 -153 117 -319q0 -47 -9.5 -102.5t-34 -122 t-61 -130t-94.5 -123.5t-130 -105t-173.5 -72t-218.5 -27q-123 0 -224 33t-165.5 89.5t-99.5 129t-35 153.5zM565 776q16 -43 47.5 -69.5t75.5 -26.5q55 0 93 46.5t38 104.5q0 35 -19.5 51.5t-47.5 16.5q-31 0 -62.5 -14.5t-57 -37.5t-41 -39.5t-26.5 -31.5z" />
<glyph unicode="'" horiz-adv-x="628" d="M469 721q0 7 3.5 32.5t4.5 30.5l84 529l3 16q2 16 4.5 26.5t10 28.5t17 29.5t27.5 20.5t41 10h2q30 0 50.5 -18t20.5 -48q0 -14 -16 -67l-203 -588q-10 -31 -26 -31q-8 0 -15.5 7t-7.5 22z" />
<glyph unicode="(" horiz-adv-x="835" d="M311 96q0 90 14 196.5t45 235.5t90.5 274t139.5 277q50 82 111 158.5t113 128.5t99 92t76 59t37 19q21 0 21 -20q0 -6 -31 -37q-140 -119 -252 -285.5t-177 -327.5t-108.5 -330.5t-59 -293.5t-15.5 -219q0 -133 26 -252.5t101 -233.5q14 -20 14 -29q0 -20 -20 -20 q-23 0 -77.5 79.5t-90.5 176.5q-56 154 -56 352z" />
<glyph unicode=")" horiz-adv-x="835" d="M37 -492q0 6 31 37q140 119 252 285.5t177 327.5t108.5 330.5t59 293.5t15.5 219q0 133 -26 252.5t-101 233.5q-14 20 -14 29q0 20 20 20q23 0 77.5 -79.5t90.5 -176.5q55 -152 55 -352q0 -90 -14 -196.5t-45 -235.5t-90 -274t-139 -277q-50 -82 -111 -158.5 t-113.5 -128.5t-99.5 -92t-76 -59t-37 -19q-20 0 -20 20z" />
<glyph unicode="*" d="M399 891q0 38 50 61l307 144l-232 141q-18 11 -23 17.5t-5 19.5q0 24 19.5 44.5t45.5 20.5q12 0 18.5 -4t20.5 -18l184 -180l56 329q10 70 67 70q16 0 28.5 -10.5t12.5 -26.5q0 -1 -8 -33l-109 -329l287 190q18 12 35 12q18 0 28 -10t11.5 -17.5t1.5 -13.5q0 -41 -49 -61 l-307 -143l231 -140q31 -19 31 -39q0 -24 -21 -44.5t-45 -20.5q-19 0 -41 22l-184 181l-55 -330q-2 -13 -6 -26t-20 -28.5t-40 -15.5q-20 0 -31.5 10.5t-11.5 26.5q0 1 8 33l111 330l-289 -191q-20 -12 -35 -12q-19 0 -30 11t-11 30z" />
<glyph unicode="+" horiz-adv-x="1568" d="M289 512q0 25 47 25q6 0 14 -1t10 -1h535q1 8 70.5 285.5t72.5 289.5q8 25 25 25q20 0 20 -25q0 -1 -10 -51l-131 -524h522q3 0 12 1t13 1q47 0 47 -25q0 -16 -15 -19.5t-57 -3.5h-534l-133 -534q-14 -53 -23 -61q-6 -5 -12 -5q-21 0 -21 25q0 12 25 110.5t62 242 t55 222.5h-523q-3 0 -12.5 -1t-13.5 -1q-45 0 -45 25z" />
<glyph unicode="," horiz-adv-x="626" d="M150 -375q0 9 26 35q81 69 144.5 165t85.5 206q-39 -31 -84 -31q-38 0 -64.5 20.5t-26.5 65.5q0 48 38 89.5t96 41.5q47 0 70.5 -33.5t23.5 -87.5q0 -69 -26.5 -144t-65 -134.5t-80 -109t-73.5 -76.5t-44 -27q-9 0 -14.5 7t-5.5 13z" />
<glyph unicode="-" horiz-adv-x="733" d="M176 412q8 72 35 82q8 4 27 4h407q14 0 22.5 -1.5t15.5 -8t7 -19.5q0 -5 -2 -19.5t-9 -35t-17 -25.5q-12 -6 -31 -6h-410q-15 0 -23.5 1.5t-15 8t-6.5 19.5z" />
<glyph unicode="." horiz-adv-x="628" d="M229 88q0 47 40 88t91 41q39 0 64 -25.5t25 -62.5q0 -47 -40.5 -88t-91.5 -41q-39 0 -63.5 25.5t-24.5 62.5z" />
<glyph unicode="/" d="M37 -487q0 16 18 43l1112 1878q7 11 17 29t16 28t13.5 20.5t14 15.5t13.5 5q9 0 15 -7.5t6 -15.5q0 -7 -15 -32l-1112 -1878q-45 -77 -56.5 -92t-23.5 -15q-18 0 -18 21z" />
<glyph unicode="0" d="M240 303q0 139 57 365t131 366q88 167 202.5 248.5t231.5 81.5q54 0 98 -15.5t72 -39t49 -57.5t31 -64.5t16.5 -67.5t7.5 -58.5t1 -45.5q0 -124 -49.5 -330.5t-112.5 -349.5q-48 -106 -108.5 -184t-122.5 -119t-118.5 -59.5t-111.5 -18.5q-56 0 -101 16.5t-73 40.5 t-48.5 60.5t-30 66t-15 68.5t-6 56t-0.5 40zM371 201q0 -108 46 -154.5t107 -46.5q75 0 146 61t108 140q66 146 149 478t83 447q0 93 -45.5 143t-112.5 50q-63 0 -133.5 -47t-122.5 -152q-56 -113 -140.5 -454.5t-84.5 -464.5z" />
<glyph unicode="1" d="M240 25q0 19 8 27.5t17 9.5t32 1h16q80 0 118.5 9t52 25t22.5 53l242 970q-62 -47 -126 -65.5t-102 -18.5q-33 0 -33 25q0 16 7.5 25.5t11.5 10.5t14 3q27 3 45.5 6t60.5 17.5t77.5 36.5t84 66.5t93.5 104.5q19 23 24.5 28t14.5 5q10 0 17 -7t7 -18q0 -8 -6 -26 l-293 -1170q-6 -24 -6 -39q0 -20 10 -25.5t47 -10.5q67 -5 88 -5h17q22 0 30 -0.5t15.5 -6t7.5 -17.5q0 -39 -41 -39q-45 0 -137 3t-137 3q-44 0 -134.5 -3t-134.5 -3q-30 0 -30 25z" />
<glyph unicode="2" d="M172 -25q0 3 3 17.5t14.5 46t28 68.5t48.5 87.5t72 98.5q31 38 62 68.5t70 58t61.5 41.5t70.5 43q83 49 146.5 102.5t119 125t85.5 163.5t30 199q0 117 -53.5 171t-126.5 54q-60 0 -116.5 -29t-99.5 -76t-79.5 -104t-59.5 -115.5t-36 -109t-13 -84.5q0 -39 12 -53.5 t33 -14.5q44 0 84 34.5t64 82t38.5 92t14.5 68.5q0 33 -20 75q-2 4 -2 13t6.5 15.5t15.5 6.5q19 0 32 -37.5t13 -70.5q0 -32 -16.5 -84t-46 -107t-79 -94t-106.5 -39q-32 0 -54.5 13.5t-32.5 36t-13.5 41.5t-3.5 38q0 42 19.5 108t60 142.5t94.5 142.5t132.5 110t164.5 44 q62 0 118 -21.5t101.5 -62.5t72.5 -109t27 -153q0 -65 -14 -120.5t-46.5 -105t-70.5 -90.5t-101 -86t-121.5 -81t-147.5 -86q-34 -20 -49 -29t-58.5 -40t-73 -59t-68 -73.5t-67.5 -95.5q12 6 45 6q55 0 217 -35q103 -25 170 -25q48 0 91 22t73 57.5t50 70.5t32 71 q6 25 11 30t24 5q31 0 31 -20q0 -8 -8.5 -36.5t-24.5 -72t-44 -90t-62.5 -87t-84.5 -67t-106 -26.5q-38 0 -78 14.5t-62 28t-59 39.5t-55.5 37t-53 25t-65.5 14q-41 0 -70 -39.5t-44 -91.5q-5 -18 -11 -22.5t-24 -4.5q-31 0 -31 20z" />
<glyph unicode="3" d="M195 217q0 22 2.5 42t12 50.5t33.5 49t60 18.5q33 0 51.5 -19.5t18.5 -46.5q0 -34 -28.5 -68.5t-86.5 -29.5q3 -106 63.5 -159.5t145.5 -53.5q68 0 134 33.5t110 87.5q48 55 78.5 140.5t38.5 138.5t8 83q0 170 -158 170h-57q-30 0 -41 3.5t-11 17.5q0 21 7 30.5t16 11 t31 1.5h47q69 0 126 22t93 55t63.5 77.5t41.5 84.5t22 82t10 63t2 34q0 52 -16 90t-43 57.5t-55.5 28t-59.5 8.5q-96 0 -186.5 -54.5t-144.5 -137t-54 -162.5q0 -76 53 -76q46 0 85.5 38t39.5 89q0 14 -3.5 28.5t-7 21.5t-5.5 9q-8 16 -8 23q0 9 6.5 15.5t15.5 6.5 q18 0 32.5 -35t14.5 -67q0 -73 -54.5 -123.5t-115.5 -50.5q-55 0 -84.5 37t-29.5 94q0 65 36.5 134t96.5 125.5t144.5 93t172.5 36.5q125 0 209 -74t84 -200q0 -124 -89.5 -243t-242.5 -171q54 -25 90.5 -63.5t50.5 -80.5t18.5 -67.5t4.5 -48.5q0 -120 -75 -227.5 t-194.5 -170.5t-246.5 -63q-125 0 -198.5 76t-73.5 186z" />
<glyph unicode="4" d="M90 37q0 21 29 43t51 31q8 6 24.5 20t56 52t80 82.5t93.5 114t98 142.5q189 310 303 740q7 26 11.5 40t14 30.5t24.5 24t36 7.5q20 0 38 -12t18 -41q0 -9 -15.5 -73.5t-63 -194.5t-117 -272.5t-195.5 -317.5t-281 -318q27 2 55 2q83 0 156 -22q20 -7 29.5 -12t95.5 -35 q1 9 41 167t45 173q4 18 8 29.5t13 27t24 23.5t37 8q8 0 18 -2.5t23.5 -16t13.5 -37.5q0 -10 -8 -41l-90 -364q10 -2 32 -2q65 0 123 22q20 8 29 8q12 0 21.5 -12.5t9.5 -21.5q0 -23 -70 -41.5t-121 -18.5q-29 0 -41 2l-75 -299q-18 -69 -78 -69q-20 0 -38 12t-18 41 q0 8 9 43l75 305q-26 9 -68.5 26.5t-51.5 20.5q-72 23 -150 23q-57 0 -91 -5t-44.5 -10.5t-22.5 -15.5q-6 -4 -18 -13t-19 -14t-15.5 -9.5t-12.5 -4.5q-11 0 -21 13.5t-10 21.5z" />
<glyph unicode="5" d="M219 240q0 31 4 58t15.5 58.5t37 50.5t62.5 19q35 0 54.5 -19.5t19.5 -50.5q0 -39 -30 -72.5t-79 -33.5q-14 0 -20 2q1 -57 15 -101t35 -69.5t48.5 -42t52 -22t49.5 -5.5q43 0 88.5 17t101 66.5t97.5 127.5q34 65 68 197t34 213q0 86 -31.5 134t-92.5 48 q-158 0 -277 -141l-5 -5l-5 -5l-4 -4t-4.5 -3.5t-4 -1.5t-5 -1.5t-5.5 -0.5q-26 0 -26 25q0 15 4 27l155 622q9 35 25 35q9 0 29 -10q97 -54 229 -54q134 0 264 58q15 6 25 6q6 0 12 -5t6 -14q0 -10 -20 -32.5t-58.5 -51t-86.5 -55t-112 -44t-128 -17.5q-77 0 -127 18 q-20 6 -27 6q-4 0 -10 -24l-94 -377q121 94 254 94q85 0 147.5 -46t91.5 -116.5t29 -154.5q0 -113 -47.5 -222.5t-122.5 -189t-172.5 -128t-194.5 -48.5q-126 0 -195 82.5t-69 202.5z" />
<glyph unicode="6" d="M246 324q0 61 10.5 139.5t33 177t68.5 204.5t107 193q109 156 241 241t259 85q93 0 145.5 -43t52.5 -119q0 -61 -27.5 -98t-78.5 -37q-36 0 -53 20t-17 46q0 9 3.5 22t13.5 31.5t34 31.5t58 13q-22 82 -133 82q-85 0 -162.5 -52.5t-134.5 -125.5q-67 -86 -110 -189.5 t-81 -251.5q121 178 277 178q66 0 118 -23.5t82.5 -59t51 -80.5t27.5 -83.5t7 -72.5q0 -112 -45 -222.5t-117 -192t-166.5 -132.5t-189.5 -51q-56 0 -101 18.5t-73 44.5t-48.5 65.5t-30 71.5t-15 72.5t-6 58t-0.5 38.5zM379 199q0 -26 6 -54.5t20.5 -60.5t45 -52t73.5 -20 q80 0 144.5 52t109.5 133q32 61 72.5 222t40.5 230q0 78 -37 129q-16 23 -38.5 34.5t-36 13t-34.5 1.5q-77 0 -142 -50t-105 -124t-68 -163t-39.5 -163t-11.5 -128z" />
<glyph unicode="7" d="M295 885q0 5 12 30l197 418q11 22 16.5 26.5t22.5 4.5q30 0 30 -21q0 -6 -47 -108q136 129 275 129q24 0 41.5 -7.5t27.5 -18t16.5 -31.5t9 -37t5.5 -45q5 -58 15 -79.5t42 -21.5q59 0 116 50t120 143l31 41q8 6 26 6q29 0 29 -21q0 -7 -18 -34q-160 -246 -258 -459 q-164 -350 -269 -760q-7 -33 -13.5 -52t-19 -41t-32.5 -32t-49 -10t-50.5 18t-21.5 50q0 13 15 73.5t71 210.5t139 316q52 102 87.5 164t189.5 315q-48 -23 -93 -23q-30 0 -53.5 14.5t-46.5 55.5q-28 46 -42 59t-42 13q-35 0 -76.5 -12.5t-99.5 -45t-122 -105.5t-118 -177 q-5 -8 -7 -11t-7.5 -4.5t-17.5 -1.5q-31 0 -31 21z" />
<glyph unicode="8" d="M199 236q0 33 6.5 67t30 85.5t63 98.5t114 102t173.5 101q-94 84 -107 101q-49 66 -49 157q0 101 60 197.5t160.5 157.5t209.5 61q114 0 194.5 -65t80.5 -177q0 -113 -84 -212t-238 -173q126 -110 139 -125q60 -80 60 -186q0 -116 -69.5 -225.5t-185 -177.5t-241.5 -68 q-134 0 -225.5 77.5t-91.5 203.5zM301 231q0 -98 61.5 -158.5t159.5 -60.5q92 0 178 47.5t138.5 124t52.5 156.5q0 43 -16 78t-31.5 51t-50.5 47l-168 141q-148 -70 -236 -190t-88 -236zM543 1042q0 -76 57 -124l156 -132q14 -14 18 -14q5 0 32.5 15.5t67 47.5t77.5 73 t64.5 99.5t26.5 118.5q0 87 -52 137t-136 50q-118 0 -214.5 -84.5t-96.5 -186.5z" />
<glyph unicode="9" d="M213 119q0 58 27.5 95.5t78.5 37.5q36 0 53 -20t17 -46q0 -8 -3 -19.5t-12 -30.5t-32 -33t-57 -17q34 -74 153 -74q139 0 269 160q67 85 110.5 188t83.5 267q-117 -178 -276 -178q-67 0 -120 25t-83.5 61.5t-50 82.5t-26.5 83t-7 69q0 148 75.5 286.5t198.5 223t254 84.5 q55 0 98.5 -18t71 -44t47.5 -65t29 -70.5t14.5 -71.5t6 -58t0.5 -38q0 -46 -8.5 -116.5t-30.5 -176t-73 -226.5t-122 -222q-39 -56 -86.5 -106t-107 -96t-130.5 -73.5t-141 -27.5q-99 0 -160 42.5t-61 121.5zM485 672q0 -16 1 -30.5t9 -44t22 -50t43.5 -37t70.5 -16.5 q80 0 146 52t105.5 128t67 166.5t38.5 163t11 122.5q0 48 -12 88t-44 69.5t-81 29.5q-51 0 -97 -21.5t-78.5 -55.5t-50.5 -58.5t-32 -49.5q-40 -71 -79.5 -231t-39.5 -225z" />
<glyph unicode=":" horiz-adv-x="626" d="M231 88q0 50 42 89.5t92 39.5q41 0 65.5 -26t24.5 -62q0 -47 -41 -88t-92 -41q-40 0 -65.5 24.5t-25.5 63.5zM397 754q0 48 40.5 88.5t92.5 40.5q41 0 66 -25.5t25 -62.5q0 -48 -41 -88.5t-93 -40.5q-41 0 -65.5 25.5t-24.5 62.5z" />
<glyph unicode=";" horiz-adv-x="628" d="M150 -375q0 9 26 35q81 69 144.5 165t85.5 206q-39 -31 -84 -31q-38 0 -64.5 20.5t-26.5 65.5q0 48 38 89.5t96 41.5q47 0 70.5 -33.5t23.5 -87.5q0 -69 -26.5 -144t-65 -134.5t-80 -109t-73.5 -76.5t-44 -27q-9 0 -14.5 7t-5.5 13zM397 754q0 47 40 88t91 41 q39 0 63.5 -25.5t24.5 -62.5q0 -47 -40 -88t-91 -41q-39 0 -63.5 25.5t-24.5 62.5z" />
<glyph unicode="&#x3c;" horiz-adv-x="1568" d="M340 512q0 18 49 40q7 3 8 3l1170 518q23 10 30 10q9 0 16 -6t7 -14q0 -3 -1 -6t-3 -6t-4 -5t-5.5 -4.5t-6 -4t-8 -4t-8 -4t-8.5 -4t-9 -3.5l-1032 -457q-10 -5 -54.5 -25.5t-68.5 -29.5v-2q24 -12 59 -33l842 -481q30 -18 30 -35q0 -7 -6 -12.5t-14 -5.5q-12 0 -39 16 l-891 508q-19 11 -27.5 16t-17 14t-8.5 17z" />
<glyph unicode="=" horiz-adv-x="1568" d="M238 313q0 23 51 23h1143q33 0 41 -4q9 -5 11 -15t-5 -18q-8 -8 -52 -8h-1144q-45 0 -45 22zM338 711q0 22 41 22h1165q39 0 39 -22q0 -23 -51 -23h-1094q-7 0 -22.5 -1t-22.5 -1h-6q-49 0 -49 25z" />
<glyph unicode="&#x3e;" horiz-adv-x="1568" d="M203 -39q0 3 1 6t3 6t4 5t5.5 4.5t6 4t8 4t8 4t8.5 4t9 3.5l1032 457q10 5 54.5 25.5t68.5 29.5v2q-43 23 -139 78l-762 434q-31 17 -31 37q0 7 6.5 12.5t14.5 5.5q6 0 30 -12l900 -512q19 -11 27.5 -16t17 -14t8.5 -17q0 -3 -1 -6t-3.5 -6t-5 -5.5t-7 -5.5t-7.5 -4.5 l-9 -4.5t-8.5 -4t-8.5 -3.5t-8 -3.5l-1142 -506q-49 -22 -58 -22t-15.5 6t-6.5 14z" />
<glyph unicode="?" d="M397 948q0 24 14.5 69.5t41.5 104t70 118.5t94.5 111t121.5 83t144 32q111 0 178 -71.5t67 -182.5q0 -47 -10 -90.5t-30.5 -80t-39.5 -64.5t-50 -57.5t-48.5 -44t-46.5 -37.5l-160 -129q-48 -38 -68.5 -54.5t-46 -39.5t-33.5 -38.5t-14 -35t-6 -43.5q0 -28 13 -49t39 -21 q48 0 95.5 39t68.5 100q6 21 11 26t23 5q31 0 31 -20q0 -49 -69 -122t-160 -73q-60 0 -91.5 43t-31.5 100q0 37 11 71.5t22.5 56t37 49t35 35.5t35.5 30l248 195q34 28 52.5 45.5t49.5 55t46.5 82t15.5 95.5q0 86 -50 133t-124 47q-122 0 -229 -106t-165 -266q41 0 59.5 -20 t18.5 -46q0 -40 -30 -70t-70 -30q-27 0 -48.5 15t-21.5 50zM440 88q0 51 41 90t90 39q43 0 68 -27t25 -61q0 -48 -41 -88.5t-93 -40.5q-38 0 -64 25t-26 63z" />
<glyph unicode="@" horiz-adv-x="1568" d="M309 508q0 174 72.5 346t188.5 301t268 209t303 80q98 0 184 -36t151 -102.5t102.5 -168.5t37.5 -226q0 -163 -88 -417q-86 -232 -242 -232q-21 0 -42 5t-47.5 17.5t-44 41t-19.5 69.5q-140 -133 -279 -133q-121 0 -202 88.5t-81 235.5q0 107 44 212.5t113.5 184 t160 127.5t180.5 49q163 0 231 -174h54q20 0 28 -1t13.5 -5t5.5 -14q0 -15 -4 -27l-133 -539q-1 -4 -3 -12.5t-3 -16t-1 -12.5q0 -23 7.5 -35.5t14 -14t15.5 -1.5q63 0 116.5 80.5t82.5 190t45 202.5t16 138q0 208 -113.5 344.5t-301.5 136.5q-135 0 -274 -76t-247 -198.5 t-176.5 -288t-68.5 -332.5q0 -99 27 -185t78.5 -152.5t133.5 -105t185 -38.5q262 0 528 122q25 11 35 13t35 2q32 0 41.5 -3.5t9.5 -17.5q0 -21 -116.5 -60.5t-186.5 -55.5q-182 -46 -348 -46q-118 0 -212 44t-153 118.5t-90 169t-31 199.5zM696 553q0 -39 8 -78.5t25 -79 t51 -64t80 -24.5q95 0 193 88t114 154l82 332q0 2 3 14.5t3 13.5q0 16 -8.5 45t-27 67.5t-58 65.5t-92.5 27q-85 0 -172.5 -83.5t-144 -215.5t-56.5 -262z" />
<glyph unicode="A" horiz-adv-x="1521" d="M121 29q0 22 13.5 28.5t40 9t58 11.5t74 47.5t82.5 105.5l670 1180q2 3 7.5 12.5t9.5 15t11.5 13t16.5 11t20 3.5q7 0 12.5 -1.5t9.5 -3.5t7 -6.5t4.5 -7.5t2.5 -9.5t1.5 -9t1 -10t0.5 -9.5l88 -1272q3 -46 23.5 -59t83.5 -15h7.5h8h7.5t7.5 -0.5t6.5 -1.5t6 -2.5t5 -3.5 t4 -5t2 -6.5t1 -8.5q0 -13 -9.5 -24t-31.5 -11q-10 0 -73.5 3t-137.5 3q-70 0 -122 -1.5t-77.5 -3t-29.5 -1.5q-14 0 -22.5 9t-8.5 20q0 21 17 28.5t40 6.5t54 5.5t53 24.5q16 14 16 56q0 13 -3 49.5t-8.5 113t-10.5 158.5h-467q-18 -32 -40 -70.5t-35 -60t-28.5 -49 t-23.5 -42t-17.5 -32.5t-14 -28.5t-8.5 -21.5t-5.5 -19t-1.5 -15q0 -29 17.5 -44.5t38.5 -18.5t38.5 -10t17.5 -21q0 -39 -41 -39q-5 0 -28.5 1.5t-64.5 3t-89 1.5q-39 0 -86.5 -3t-54.5 -3q-25 0 -35 6t-10 23zM629 532h426l-45 670z" />
<glyph unicode="B" horiz-adv-x="1439" d="M133 25q0 18 8 27t17 10t30 1q70 0 102.5 8t44.5 24t21 55l277 1112q8 29 8 38q0 23 -29 29t-90 6q-23 0 -32.5 1t-16 6.5t-6.5 17.5q0 19 8 27.5t17 10t30 1.5h637q160 0 252 -81t92 -198q0 -124 -110 -236.5t-291 -152.5q119 -15 201.5 -88.5t82.5 -193.5 q0 -79 -42 -160t-111.5 -144.5t-168 -104t-204.5 -40.5h-676q-20 0 -28.5 1t-15.5 6.5t-7 17.5zM498 84q0 -9 2.5 -12.5t16.5 -6t44 -2.5h254q108 0 199 61.5t140.5 156t49.5 194.5q0 22 -2.5 45t-14.5 58.5t-32 61.5t-60 45.5t-94 19.5h-352l-143 -576q0 -1 -4 -19.5 t-4 -25.5zM662 750h270q111 0 203 60t140 147t48 176q0 23 -3.5 45.5t-15.5 52.5t-31.5 51.5t-56.5 37t-86 15.5h-241q-26 0 -35.5 -0.5t-23.5 -3.5t-19 -11.5t-11 -21.5t-12 -36z" />
<glyph unicode="C" horiz-adv-x="1464" d="M307 502q0 176 76 349.5t196.5 302.5t277.5 209.5t312 80.5q201 0 310 -174l129 151q18 23 32 23q9 0 14.5 -4.5t7 -9t1.5 -7.5q0 -12 -4 -28l-125 -498q-6 -25 -12.5 -31t-24.5 -6q-31 0 -31 21q0 1 3 21.5t5.5 50.5t2.5 53q0 71 -15.5 134.5t-48 118.5t-91 88 t-136.5 33q-124 0 -254.5 -73t-231.5 -209q-109 -150 -162 -348t-53 -326q0 -105 30.5 -185.5t82 -127.5t112.5 -70t128 -23q53 0 110.5 16t119.5 53t117.5 91t104 136t78.5 182q6 16 33 16q31 0 31 -20q0 -32 -25.5 -93.5t-79.5 -138t-125.5 -144.5t-175.5 -114.5 t-217 -46.5q-217 0 -359.5 150t-142.5 397z" />
<glyph unicode="D" horiz-adv-x="1546" d="M129 25q0 18 8 27t17 10t30 1q70 0 102.5 8t44.5 24t21 55l277 1112q8 29 8 38q0 23 -29 29t-90 6q-23 0 -32.5 1t-16 6.5t-6.5 17.5q0 19 8 27.5t17 10t30 1.5h639q196 0 313 -140t117 -362q0 -135 -43.5 -269.5t-119.5 -246t-173.5 -198t-212.5 -135t-229 -48.5h-629 q-20 0 -28.5 1t-15.5 6.5t-7 17.5zM500 84q0 -9 2.5 -12.5t16.5 -6t44 -2.5h211q118 0 224.5 55.5t185.5 147.5q61 72 109 178.5t73.5 209.5t38 186t12.5 135q0 78 -18 140t-49 102.5t-73.5 67.5t-88.5 38.5t-98 11.5h-199q-54 0 -70.5 -10.5t-29.5 -62.5l-283 -1133 q0 -1 -4 -19.5t-4 -25.5z" />
<glyph unicode="E" horiz-adv-x="1388" d="M127 25q0 18 8 27t17 10t30 1q70 0 102.5 8t44.5 24t21 55l275 1097q8 31 8 47q0 12 -4 18t-31.5 11.5t-83.5 5.5q-34 0 -44.5 4t-10.5 23q0 18 7.5 26t16.5 9.5t31 1.5h956q35 0 44.5 -8.5t5.5 -45.5l-47 -362q-3 -29 -8.5 -37t-26.5 -8q-31 0 -31 24q0 15 4 35 q10 82 10 131q0 114 -56 160.5t-216 46.5h-256q-54 0 -70.5 -10t-27.5 -59l-125 -504h166q121 0 167 38.5t76 151.5q11 40 18 45q6 4 21 4q33 0 33 -24q0 -9 -6 -27l-113 -450q-6 -27 -12.5 -34t-24.5 -7q-32 0 -32 24q0 3 2 12t2 11q18 66 18 104q0 31 -9 48t-43.5 28.5 t-101.5 11.5h-178l-141 -563q0 -1 -4 -19.5t-4 -25.5q0 -9 2.5 -12.5t16.5 -6t44 -2.5h250q61 0 110.5 5.5t91 20t73.5 31t61 46t50 56.5t45 73t41.5 84t43.5 100q13 35 19.5 42t23.5 7q31 0 31 -22q0 -9 -8 -25l-182 -448q-11 -23 -19 -28t-39 -5h-981q-20 0 -28.5 1 t-15.5 6.5t-7 17.5z" />
<glyph unicode="F" horiz-adv-x="1335" d="M127 25q0 18 8 27t17 10t30 1q70 0 102.5 8t44.5 24t21 55l275 1097q8 31 8 47q0 12 -4 18t-31.5 11.5t-83.5 5.5q-34 0 -44.5 4t-10.5 23q0 18 7.5 26t16.5 9.5t31 1.5h932q35 0 44 -8t5 -46l-47 -362q-3 -29 -8.5 -37t-26.5 -8q-31 0 -31 24l2 33q13 102 13 135 q0 75 -20 117t-78 65t-166 23h-240q-54 0 -70.5 -10t-27.5 -59l-131 -531h159q64 0 104 9.5t66 35.5t40.5 59t29.5 93q8 29 14 36t25 7q31 0 31 -23q0 -8 -5 -28l-112 -451q-7 -28 -14 -34.5t-25 -6.5q-31 0 -31 25q0 7 6 28q17 70 17 101q0 46 -29.5 66t-122.5 20h-170 l-129 -516q-8 -31 -8 -44q0 -17 5 -24t38.5 -13t105.5 -6h21q21 0 29 -0.5t15 -6t7 -17.5q0 -18 -8 -27.5t-15 -10.5t-20 -1q-46 0 -140.5 3t-141.5 3q-41 0 -125 -3t-125 -3q-29 0 -29 25z" />
<glyph unicode="G" horiz-adv-x="1583" d="M307 502q0 176 76 349.5t196.5 302.5t277.5 209.5t312 80.5q201 0 310 -174l129 151q18 23 32 23q9 0 14.5 -4.5t7 -9t1.5 -7.5q0 -12 -4 -28l-125 -498q-6 -25 -12.5 -31t-24.5 -6q-31 0 -31 21q0 1 3 21.5t5.5 50.5t2.5 53q0 71 -15.5 134.5t-48 118.5t-91 88 t-136.5 33q-124 0 -254.5 -73t-231.5 -209q-76 -104 -128 -248t-69.5 -248t-17.5 -176q0 -195 104 -301.5t259 -106.5q68 0 142.5 25t135.5 80q44 41 60 80t51 182q16 57 16 70q0 20 -11.5 26t-47.5 11q-54 4 -88 4h-16q-17 0 -22.5 0.5t-15 2t-13 6.5t-3.5 13q0 14 4 23.5 t12 12.5t13 4t14 1q44 0 134.5 -3t134.5 -3q33 0 100 3t98 3q27 0 27 -27q0 -13 -3 -21t-12 -11t-14.5 -3.5t-19.5 -0.5q-62 0 -79.5 -13.5t-27.5 -54.5l-98 -391q-9 -35 -25 -35t-43.5 41.5t-42.5 81.5q-51 -66 -159 -118t-238 -52q-221 0 -362.5 151t-141.5 396z" />
<glyph unicode="H" horiz-adv-x="1521" d="M127 25q0 18 8 27t17 10t30 1q70 0 102.5 8t44.5 24t21 55l277 1112q8 29 8 38q0 23 -29 29t-90 6q-23 0 -32.5 1t-16 6.5t-6.5 17.5q0 18 8 27.5t14.5 10.5t16.5 1q40 0 122 -3t123 -3q40 0 121.5 3t120.5 3q29 0 29 -27q0 -26 -12.5 -31.5t-49.5 -5.5q-94 0 -121.5 -15 t-39.5 -67l-123 -493h561l125 502q8 29 8 38q0 23 -29 29t-90 6q-23 0 -32.5 1t-16 6.5t-6.5 17.5q0 18 8 27.5t14.5 10.5t16.5 1q40 0 122.5 -3t123.5 -3q40 0 121 3t120 3q29 0 29 -27q0 -26 -12.5 -31.5t-49.5 -5.5q-94 0 -121.5 -15t-39.5 -67l-277 -1108q-8 -31 -8 -47 q0 -12 4 -18t31.5 -11.5t83.5 -5.5h4q23 0 31.5 -1t14 -6.5t5.5 -18.5q0 -37 -39 -37q-40 0 -122.5 3t-123.5 3q-40 0 -121 -3t-120 -3q-29 0 -29 25q0 18 8 27t17 10t30 1q70 0 102.5 8t44.5 24t21 55l135 546h-561l-137 -557q-8 -29 -8 -41t4 -18t31.5 -11.5t83.5 -5.5h4 q23 0 31.5 -1t14 -6.5t5.5 -18.5q0 -37 -39 -37q-40 0 -122.5 3t-123.5 3q-40 0 -121 -3t-120 -3q-29 0 -29 25z" />
<glyph unicode="I" horiz-adv-x="788" d="M117 27q0 26 12 31t49 5q100 0 130 15.5t42 68.5l279 1115q6 18 6 38q0 9 -4 15t-14.5 9.5t-19.5 6t-27 3.5t-29.5 1h-34.5q-34 0 -44.5 4t-10.5 23q0 37 38 37q42 0 128 -3t128 -3t126.5 3t125.5 3q29 0 29 -25q0 -19 -8 -27.5t-18.5 -10t-36.5 -1.5q-71 0 -104 -8 t-45 -23.5t-21 -52.5l-277 -1106q-8 -31 -8 -45t4.5 -20.5t33 -11.5t89.5 -5q20 0 27 -0.5t16 -2.5t11.5 -7t2.5 -14q0 -39 -41 -39t-126.5 3t-127.5 3t-126.5 -3t-125.5 -3q-28 0 -28 27z" />
<glyph unicode="J" horiz-adv-x="1075" d="M193 176q0 44 13 76.5t29 47.5t37.5 23.5t30.5 9.5t16 1q35 0 59.5 -21t24.5 -59q0 -43 -34 -82t-88 -39q-19 0 -23 2q12 -62 60 -98.5t112 -36.5q83 0 160.5 89t107.5 208l238 954q8 29 8 41q0 22 -11.5 28t-49.5 11q-37 4 -95 4h-24q-20 0 -28.5 1t-15.5 6.5t-7 17.5 q0 18 8 27.5t15 10.5t20 1q45 0 138.5 -3t139.5 -3q35 0 106 3t105 3q29 0 29 -25q0 -14 -3.5 -22.5t-12 -12t-15.5 -4t-22 -0.5q-67 0 -88.5 -14t-32.5 -59l-240 -967q-34 -140 -158 -240t-268 -100q-102 0 -171.5 60t-69.5 161z" />
<glyph unicode="K" horiz-adv-x="1572" d="M127 25q0 18 8 27t17 10t30 1q70 0 102.5 8t44.5 24t21 55l277 1112q8 29 8 38q0 23 -29 29t-90 6q-23 0 -32.5 1t-16 6.5t-6.5 17.5q0 18 8 27.5t14.5 10.5t16.5 1q40 0 122 -3t123 -3q40 0 121.5 3t120.5 3q29 0 29 -27q0 -26 -12.5 -31.5t-49.5 -5.5q-94 0 -121.5 -15 t-39.5 -67l-162 -653l721 600q32 26 49.5 47.5t17.5 46.5q0 37 -53 41q-29 0 -29 25q0 18 8 27.5t14.5 10.5t16.5 1q35 0 109 -3t110 -3q24 0 72.5 3t69.5 3q22 0 22 -25q0 -12 -3 -20t-10 -12t-11 -5t-13 -2q-133 -12 -321 -168l-377 -313l268 -711q19 -47 43 -62.5 t80 -17.5q13 0 18.5 -0.5t12 -6t6.5 -17.5q0 -39 -35 -39q-29 0 -92 3t-94 3q-38 0 -115.5 -3t-114.5 -3q-28 0 -28 27q0 17 8 25.5t14 9.5t17 1q104 0 104 68q0 10 -12 41l-213 571l-285 -235l-71 -295q-27 -100 -27 -115q0 -12 4 -18t31.5 -11.5t83.5 -5.5h4q23 0 31.5 -1 t14 -6.5t5.5 -18.5q0 -37 -39 -37q-40 0 -122.5 3t-123.5 3q-40 0 -121 -3t-120 -3q-29 0 -29 25z" />
<glyph unicode="L" horiz-adv-x="1284" d="M127 25q0 18 8 27t17 10t30 1q70 0 102.5 8t44.5 24t21 55l277 1112q8 29 8 38q0 23 -29 29t-90 6q-23 0 -32.5 1t-16 6.5t-6.5 17.5q0 18 8 27.5t14.5 10.5t16.5 1q41 0 125.5 -3t126.5 -3q47 0 141.5 3t140.5 3q31 0 31 -25q0 -19 -8 -27.5t-17.5 -10t-31.5 -1.5h-21 q-83 0 -121.5 -9t-51.5 -25.5t-23 -57.5l-279 -1114q0 -1 -4 -19.5t-4 -25.5q0 -9 2.5 -12.5t16.5 -6t44 -2.5h166q66 0 123.5 15t98 35.5t78 58.5t60 68t47 81t36 80.5t30.5 81.5q11 31 17 38t24 7q31 0 31 -24q0 -1 -4 -13.5t-4 -13.5l-156 -440q-9 -26 -17.5 -31.5 t-41.5 -5.5h-877q-20 0 -28.5 1t-15.5 6.5t-7 17.5z" />
<glyph unicode="M" horiz-adv-x="1835" d="M135 25q0 17 7 26t14 10.5t18 1.5q51 2 87 13t67 43.5t45 87.5l262 1055q8 29 8 38q0 23 -29 29t-90 6q-23 0 -32.5 1t-16 6.5t-6.5 17.5q0 19 8 27.5t17 10t30 1.5h273q38 0 46 -6t11 -39l115 -1149l696 1157q17 27 28 32t46 5h262q30 0 40.5 -4t10.5 -23 q0 -26 -12 -31.5t-49 -5.5q-94 0 -122 -15.5t-40 -66.5l-277 -1108q-8 -31 -8 -47q0 -12 4 -18t31.5 -11.5t83.5 -5.5h4q23 0 31.5 -1t14 -6.5t5.5 -18.5q0 -37 -39 -37q-38 0 -118 3t-119 3t-117.5 -3t-116.5 -3q-28 0 -28 25q0 18 8 27t17 10t30 1q70 0 102.5 8t44.5 24 t21 55l289 1159h-2l-764 -1272q-10 -20 -20 -28.5t-29 -8.5q-15 0 -22 6t-8.5 13.5t-4.5 29.5l-125 1241h-2l-273 -1087q-8 -33 -8 -51q0 -16 3 -27t13.5 -26.5t37 -25t67.5 -10.5q15 0 22 -1t12 -7t5 -18q0 -17 -7.5 -26t-14 -10t-15.5 -1q-31 0 -99.5 3t-101.5 3 q-32 0 -98 -3t-96 -3q-27 0 -27 25z" />
<glyph unicode="N" horiz-adv-x="1521" d="M127 25q0 17 7 26t14 10.5t18 1.5q79 3 129 34t70 110l270 1085q6 20 6 27q0 16 -125 16q-23 0 -32.5 1t-16 6.5t-6.5 17.5q0 19 8 27.5t17 10t30 1.5h256q32 0 40 -5t17 -30l383 -1065l226 899q8 32 8 49q0 39 -25.5 62t-97.5 26q-37 0 -37 25q0 39 37 39q31 0 98.5 -3 t100.5 -3t99 3t97 3q27 0 27 -27q0 -16 -7 -25t-13 -10.5t-11 -1.5q-32 -1 -54.5 -4.5t-57 -16t-59 -42.5t-36.5 -76l-286 -1155q-7 -28 -14.5 -34.5t-26.5 -6.5q-21 0 -27 5.5t-14 29.5l-441 1222l-264 -1054q-8 -33 -8 -51q0 -16 3 -27t13.5 -26.5t37 -25t67.5 -10.5 q15 0 22 -1t12 -7t5 -18q0 -17 -7.5 -26t-14 -10t-15.5 -1q-31 0 -99.5 3t-101.5 3q-32 0 -98 -3t-96 -3q-27 0 -27 25z" />
<glyph unicode="O" horiz-adv-x="1568" d="M303 483q0 174 73.5 350t190.5 309.5t271.5 217.5t308.5 84q97 0 182 -37t148.5 -104t100 -169t36.5 -225q0 -144 -47.5 -288t-130.5 -262t-188.5 -210t-229 -143t-244.5 -51q-209 0 -340 148t-131 380zM487 420q0 -185 81.5 -298.5t219.5 -113.5q119 0 245.5 91 t223.5 257q80 137 131.5 319t51.5 320q0 194 -88.5 296t-218.5 102t-260 -96.5t-214 -245.5q-50 -88 -86.5 -188.5t-53.5 -187.5t-24.5 -149.5t-7.5 -105.5z" />
<glyph unicode="P" horiz-adv-x="1388" d="M129 25q0 18 8 27t17 10t30 1q70 0 102.5 8t44.5 24t21 55l277 1112q8 29 8 38q0 23 -29 29t-90 6q-23 0 -32.5 1t-16 6.5t-6.5 17.5q0 19 8 27.5t17 10t30 1.5h615q164 0 263 -85.5t99 -217.5q0 -116 -79.5 -221t-203 -166.5t-251.5 -61.5h-318l-125 -508q-8 -29 -8 -41 t4 -18t31.5 -11.5t83.5 -5.5h4q23 0 31.5 -1t14 -6.5t5.5 -18.5q0 -37 -39 -37q-40 0 -122.5 3t-123.5 3q-40 0 -121 -3t-120 -3q-29 0 -29 25zM651 700h258q190 0 297 119q51 58 80 169.5t29 162.5q0 94 -67 139t-181 45h-176q-55 0 -71 -10t-29 -63z" />
<glyph unicode="Q" horiz-adv-x="1568" d="M303 483q0 174 73.5 350t190.5 309.5t271.5 217.5t308.5 84q97 0 182 -37t148.5 -104t100 -169t36.5 -225q0 -181 -75.5 -361t-209.5 -322t-301 -214q1 -68 10.5 -112t27 -66.5t37 -30.5t48.5 -8q64 0 128 50.5t97 150.5q8 27 25 27q9 0 15.5 -7.5t6.5 -17.5 q0 -5 -10 -42.5t-35 -98t-59.5 -116.5t-92 -97t-124.5 -41q-162 0 -162 188q0 56 21 195q-95 -31 -187 -31q-209 0 -340 148t-131 380zM477 414q0 -79 17 -150t62 -136t114 -97q-11 27 -11 57q0 78 59 146.5t140 68.5q151 0 164 -217q94 59 170 156t121 198t75.5 210 t42 190.5t11.5 142.5q0 184 -84.5 297t-224.5 113q-115 0 -236.5 -81t-214.5 -222q-103 -158 -154 -354t-51 -322zM705 88q0 -82 83 -82q89 0 181 47q2 16 2 58q0 23 -0.5 36.5t-6.5 37.5t-17 37.5t-33 24.5t-54 11q-64 0 -109.5 -55t-45.5 -115z" />
<glyph unicode="R" horiz-adv-x="1492" d="M129 25q0 18 8 27t17 10t30 1q70 0 102.5 8t44.5 24t21 55l277 1112q8 29 8 38q0 23 -29 29t-90 6q-23 0 -32.5 1t-16 6.5t-6.5 17.5q0 19 8 27.5t17 10t30 1.5h541q186 0 298.5 -88.5t112.5 -214.5q0 -58 -27 -116.5t-78.5 -113t-135.5 -100t-189 -72.5 q80 -29 128.5 -91t48.5 -146q0 -48 -17 -181q-12 -106 -12 -155q0 -39 3.5 -62t19 -41t44.5 -18q48 0 91 47.5t69 132.5q5 21 10.5 28t24.5 7q31 0 31 -27q0 -10 -13 -43.5t-38.5 -78t-74.5 -78t-108 -33.5q-106 0 -180 55t-74 162q0 35 31 164q4 17 9.5 38.5t8 31.5t6 23.5 t5 20t3 14.5t2 13l1 10t0.5 11q0 52 -17.5 89.5t-47.5 56t-61 26.5t-67 8h-221l-133 -539q-8 -29 -8 -41t4 -18t31.5 -11.5t83.5 -5.5h4q23 0 31.5 -1t14 -6.5t5.5 -18.5q0 -37 -39 -37q-40 0 -122 3t-122 3q-39 0 -118.5 -3t-118.5 -3q-29 0 -29 25zM657 723h207 q193 0 303 106q31 31 54.5 74.5t35.5 80.5t19 75.5t8.5 56.5t1.5 27q0 40 -12.5 71.5t-29.5 51t-48.5 34t-55 21t-64.5 10t-61.5 4t-60.5 0.5q-104 0 -118 -4q-10 -3 -15.5 -6t-14.5 -19t-15 -44z" />
<glyph unicode="S" horiz-adv-x="1150" d="M152 -25q0 6 6 27l106 428q6 23 12 29t25 6q31 0 31 -23q0 -2 -1 -6t-1 -6q-17 -65 -17 -125q0 -77 26 -134.5t71 -89.5t97.5 -47.5t113.5 -15.5q88 0 168 59t127 150t47 183q0 90 -45 147q-26 27 -51 38.5t-107 35.5l-101 28q-70 18 -88 27q-84 39 -123.5 111t-39.5 159 q0 117 65.5 230t176.5 185.5t233 72.5q185 0 266 -139l92 114q13 17 18 21t13 4q13 0 17.5 -7.5t4.5 -13.5q0 -12 -4 -28l-106 -424q-6 -25 -12.5 -31t-24.5 -6q-31 0 -31 20l2 29q10 56 10 113q0 61 -12 110t-39.5 91t-77.5 65.5t-120 23.5q-84 0 -162 -52.5t-124 -133.5 t-46 -164q0 -134 104 -180q28 -11 113 -33q152 -45 192.5 -63t77.5 -64q68 -85 68 -209q0 -95 -40 -191.5t-105.5 -171.5t-156 -122t-184.5 -47q-216 0 -313 141q-44 -60 -96 -116q-13 -17 -18 -21t-15 -4q-9 0 -15.5 5.5t-6.5 14.5z" />
<glyph unicode="T" horiz-adv-x="1464" d="M358 948q0 5 11 35l120 367q9 26 18 31t42 5h1050q22 0 29.5 -0.5t15 -6t7.5 -17.5q0 -19 -2 -27l-62 -366q-5 -28 -11 -35.5t-26 -7.5q-30 0 -30 26q0 8 4 31q20 121 20 184q0 66 -21.5 98t-75 45t-163.5 13q-90 0 -106 -4q-10 -1 -16.5 -4.5t-15.5 -19.5t-16 -44 l-274 -1101q-8 -29 -8 -39q0 -22 12.5 -30.5t54.5 -12.5q2 0 21 -1t43 -2.5t39 -1.5h31q16 0 21.5 -0.5t14.5 -2t12 -6.5t3 -13q0 -19 -8 -28.5t-15 -11t-20 -1.5q-52 0 -160.5 3t-161.5 3q-52 0 -158.5 -3t-158.5 -3q-35 0 -35 25q0 19 8 27.5t17 9.5t32 1h33q90 0 133.5 9 t58.5 26.5t25 57.5l275 1099q8 24 8 45q0 9 -1.5 12.5t-12.5 7t-33 3.5h-70q-70 0 -116 -4t-88 -18t-68.5 -35t-53 -61t-47 -89t-45.5 -125q-20 -53 -26 -59t-23 -6q-31 0 -31 22z" />
<glyph unicode="U" horiz-adv-x="1521" d="M414 340q0 65 16 131l197 791q8 29 8 38q0 23 -29 29t-90 6q-23 0 -32.5 1t-16 6.5t-6.5 17.5q0 18 8 27.5t14.5 10.5t16.5 1q40 0 122 -3t123 -3q40 0 121.5 3t120.5 3q29 0 29 -27q0 -26 -12.5 -31.5t-49.5 -5.5q-94 0 -121.5 -15t-39.5 -67l-205 -823 q-21 -95 -21 -156q0 -129 64.5 -192.5t154.5 -63.5q96 0 193.5 57t174 161.5t108.5 232.5l182 729q8 32 8 49q0 39 -25.5 62t-97.5 26q-37 0 -37 25q0 39 37 39q31 0 97.5 -3t99.5 -3q32 0 97 3t95 3q27 0 27 -27q0 -16 -7 -25t-13 -10.5t-11 -1.5q-32 -1 -54.5 -4.5 t-57 -16t-59 -42.5t-36.5 -76l-186 -750q-21 -85 -72 -171.5t-121.5 -158t-163 -116.5t-186.5 -45q-152 0 -258 104t-106 281z" />
<glyph unicode="V" horiz-adv-x="1521" d="M428 1360q0 39 37 39q34 0 104 -3t105 -3q39 0 118 3t117 3q29 0 29 -25q0 -18 -7.5 -27t-16 -10.5t-27.5 -1.5q-14 0 -29.5 -1.5t-41.5 -7t-42 -19.5t-16 -35l104 -1073l592 989q31 54 31 82q0 33 -25 48t-57 17q-1 0 -4.5 0.5t-5 0.5t-4.5 1l-4.5 1.5t-4 1.5t-3.5 2 l-3 3t-2.5 4t-1 5t-0.5 6q0 18 7.5 27.5t14 10.5t15.5 1q29 0 93 -3t95 -3q26 0 79 3t77 3q10 0 17 -5t8.5 -10t1.5 -8q0 -18 -7.5 -27.5t-13 -10.5t-18.5 -3q-67 -5 -120.5 -38.5t-109.5 -127.5l-702 -1175q-16 -26 -26.5 -32.5t-30.5 -6.5q-24 0 -30 9t-9 40l-123 1262 q-3 42 -21 55.5t-90 13.5q-18 0 -26.5 1t-15.5 6.5t-7 17.5z" />
<glyph unicode="W" horiz-adv-x="2043" d="M426 1360q0 39 37 39q31 0 99.5 -3t101.5 -3q38 0 115.5 3t115.5 3q29 0 29 -25q0 -14 -3.5 -22.5t-12 -12t-15.5 -4t-21 -0.5q-49 -1 -78.5 -9t-40.5 -24.5t-13 -28.5t-1 -34l45 -1001l478 876q12 20 12 41q0 5 -3.5 68.5t-4.5 68.5q-3 25 -20.5 34t-78.5 9q-14 0 -21 1 t-14.5 6.5t-7.5 17.5q0 39 37 39q31 0 99.5 -3t101.5 -3q38 0 115.5 3t115.5 3q29 0 29 -23q0 -14 -3.5 -23.5t-11 -12.5t-12.5 -4t-14 -1q-47 -1 -78 -7.5t-44.5 -18t-18 -22.5t-4.5 -27q0 -13 2 -15l45 -1007l518 954q22 42 22 65q0 41 -32.5 58.5t-71.5 19.5 q-33 0 -33 25q0 18 8 27.5t14.5 10.5t16.5 1q33 0 101.5 -3t101.5 -3q25 0 75.5 3t73.5 3q25 0 25 -23q0 -38 -29 -41q-75 -6 -120 -40t-97 -128l-641 -1175q-9 -17 -19.5 -26t-16.5 -10t-17 -1q-13 0 -20 2t-10.5 9.5t-4.5 14.5t-2 25l-45 1020l-563 -1030q-13 -25 -22 -33 t-31 -8q-23 0 -29 9t-8 42l-58 1264q-1 29 -5 40t-24 18t-65 7q-18 0 -26.5 1t-15.5 6.5t-7 17.5z" />
<glyph unicode="X" horiz-adv-x="1521" d="M104 25q0 4 1 11t7.5 16.5t16.5 10.5q29 2 47 4t53.5 11t64 23.5t66 43t72.5 68.5l426 485l-211 572q-10 27 -18 38t-35.5 19t-81.5 8q-18 0 -26.5 1t-15.5 6.5t-7 17.5q0 18 8 27.5t14.5 10.5t16.5 1q34 0 104 -3t105 -3q40 0 120 3t119 3q29 0 29 -27q0 -37 -33 -37 q-35 -3 -63.5 -15t-41 -24t-12.5 -20q0 -1 4.5 -12.5t4.5 -12.5l149 -407l303 348q43 50 43 82q0 51 -73 61q-25 0 -25 25q0 18 7.5 27.5t14 10.5t15.5 1q34 0 106 -3t107 -3q30 0 90 3t88 3q10 0 18.5 -6.5t8.5 -18.5q0 -17 -7 -26t-13.5 -10.5t-22.5 -2.5 q-55 -4 -101 -18.5t-82 -40.5t-53.5 -42.5t-44.5 -45.5l-25 -21l-333 -383l243 -659q9 -24 16.5 -34.5t35.5 -19t81 -8.5q21 0 28.5 -0.5t14.5 -6.5t7 -19q0 -17 -7.5 -26t-14 -10t-15.5 -1q-34 0 -105 3t-106 3q-39 0 -119 -3t-119 -3q-30 0 -30 25q0 33 32 38 q51 3 84 23.5t33 38.5q0 1 -6 25l-180 489l-394 -449l-2 -4q-4 -8 -8 -12q-16 -23 -16 -49q0 -9 2.5 -17.5t9.5 -18.5t22 -17t37 -9q27 0 27 -22q0 -41 -39 -41q-34 0 -105 3t-106 3q-30 0 -91 -3t-89 -3q-13 0 -19 8t-6 17z" />
<glyph unicode="Y" horiz-adv-x="1521" d="M414 1360q0 18 8 27.5t14.5 10.5t16.5 1q34 0 106 -3t107 -3q40 0 120 3t119 3q29 0 29 -25q0 -14 -3.5 -22.5t-11 -12t-13.5 -4t-17 -0.5q-115 0 -115 -49q0 -6 8 -26l195 -615l448 547q0 1 6.5 9t13.5 17.5t14.5 22t12.5 25t5 22.5q0 43 -64 47q-31 0 -31 25 q0 18 7.5 27.5t14 10.5t15.5 1q30 0 94.5 -3t96.5 -3q26 0 78.5 3t76.5 3q25 0 25 -23q0 -18 -7 -27.5t-12.5 -10.5t-19.5 -3q-75 -6 -138.5 -44t-133.5 -124l-484 -587q-2 -3 -4 -5t-3.5 -4.5t-2.5 -4t-2.5 -5t-2 -5l-2 -6t-2 -7t-2.5 -9t-3 -10.5q-3 -13 -64 -252 q-39 -164 -39 -174q0 -23 29 -29t90 -6q20 0 26 -0.5t15 -2.5t11.5 -7t2.5 -14q0 -18 -8 -27.5t-14 -10.5t-16 -1q-39 0 -121.5 3t-122.5 3q-39 0 -119 -3t-119 -3q-28 0 -28 25q0 14 3 22.5t12 11.5t15 3.5t21 0.5l64.5 1.5t43 6.5t29.5 10.5t18 22t13.5 31.5t11.5 49 q94 367 94 375q0 11 -8 31l-217 684q-11 36 -36 48.5t-95 12.5q-18 0 -26.5 1t-15.5 6.5t-7 17.5z" />
<glyph unicode="Z" horiz-adv-x="1255" d="M164 18q0 26 22 52l1059 1265h-287q-94 0 -167 -20.5t-119 -51.5t-82.5 -82t-55.5 -96t-40 -110q-8 -24 -13.5 -30.5t-23.5 -6.5q-31 0 -31 23q0 14 6 26l111 371q9 29 17 35t42 6h793q29 0 38 -3t9 -16q0 -24 -25 -53l-1055 -1257h302q58 0 108.5 7.5t89.5 18.5 t73.5 32.5t59 41t47.5 52.5t38 58.5t32 67.5t27 71t26 77q12 37 18 44t23 7q33 0 33 -25q0 -13 -10 -33l-139 -452q-9 -27 -17.5 -32t-42.5 -5h-819q-15 0 -21.5 0.5t-14 2t-9.5 5t-2 10.5z" />
<glyph unicode="[" horiz-adv-x="628" d="M129 -483q0 10 4 26l477 1909q14 62 23 72q11 12 41 12h188q45 0 45 -23q0 -24 -47 -24h-112l-488 -1954h96q50 0 50 -22q0 -25 -44 -25h-188q-45 0 -45 29z" />
<glyph unicode="\" d="M537 1479v20q0 33 20 33q11 0 17 -8.5t7.5 -17t2.5 -25.5l180 -1938v-20q0 -31 -21 -31q-11 0 -16.5 9t-7 16.5t-2.5 25.5z" />
<glyph unicode="]" horiz-adv-x="628" d="M-23 -489q0 24 48 24h112l488 1954h-101q-47 0 -47 22q0 25 45 25h189q45 0 45 -29q0 -8 -4 -24l-480 -1913q-2 -7 -4.5 -19t-3.5 -16t-3 -12.5t-3.5 -11t-4 -8t-5 -6.5t-6.5 -4t-8.5 -3.5t-10 -1t-12.5 -0.5h-191q-43 0 -43 23z" />
<glyph unicode="^" horiz-adv-x="1255" d="M508 975q0 12 10.5 22.5t32.5 24.5q349 241 369 252q14 8 22 8h2q10 0 28.5 -17.5t94.5 -97.5q79 -84 139 -147q2 -3 8.5 -9.5t10 -11t7 -10.5t3.5 -12q0 -11 -10.5 -22t-22.5 -11h-2q-13 0 -157 131q-69 62 -115 103h-2l-351 -217q-28 -17 -38 -17q-11 0 -20 10.5 t-9 20.5z" />
<glyph unicode="_" horiz-adv-x="1568" d="M102 -436q0 41 60 41h1026q59 0 59 -41t-57 -41h-1028q-60 0 -60 41z" />
<glyph unicode="`" d="M561 1257q0 30 26 53t52 23q14 0 26.5 -7.5t18 -13.5t16.5 -20.5t11 -15.5q19 -26 38 -52.5t31.5 -43.5t25 -34.5t20 -27.5t14.5 -20.5t10.5 -16t6.5 -11t4 -9t1 -6.5q0 -14 -11.5 -23.5t-23.5 -9.5h-2q-12 0 -139 104q-55 46 -92 76q-2 2 -7.5 7t-7.5 7.5t-6.5 8 t-6.5 9.5t-3.5 10.5t-1.5 12.5z" />
<glyph unicode="a" d="M221 295q0 146 69.5 288.5t179 232t220.5 89.5q116 0 170 -121q2 9 5 17.5t11.5 25t25.5 27t40 10.5q20 0 37.5 -12t16.5 -41q0 -14 -7 -43l-139 -557q-14 -57 -14 -105q0 -16 1 -26t5.5 -25.5t16 -23.5t30.5 -8q25 0 46.5 20.5t38 59.5t28 75t24.5 88q9 34 14.5 40.5 t24.5 6.5q31 0 31 -20q0 -4 -7.5 -35.5t-22.5 -81t-32 -84.5q-27 -54 -61.5 -84.5t-87.5 -30.5q-58 0 -106 36.5t-64 107.5q-59 -72 -123.5 -108t-122.5 -36q-112 0 -180 91.5t-68 226.5zM360 205q0 -27 4.5 -54.5t15.5 -58.5t35 -50t58 -19q52 0 111.5 44.5t97.5 97.5 t47 89l96 387q6 18 6 27q0 71 -39 131.5t-102 60.5q-61 0 -125.5 -65.5t-103.5 -161.5q-31 -71 -66 -213.5t-35 -214.5z" />
<glyph unicode="b" horiz-adv-x="942" d="M236 289q0 35 5.5 76.5t10 63.5t6.5 28l203 809l3 15q3 15 3 19q0 12 -4.5 18.5t-28 11.5t-69.5 5q-18 0 -26.5 1t-16 6t-7.5 16q0 18 7.5 28t15.5 12t24 3l203 16q12 4 33 4q29 0 29 -24q0 -9 -6 -27l-144 -573q115 108 217 108q101 0 173.5 -82.5t72.5 -236.5 q0 -147 -69 -289.5t-178.5 -231t-221.5 -88.5q-109 0 -172 89t-63 223zM352 219q0 -104 36 -150t83 -46q36 0 73 22.5t66 56.5t47.5 62.5t30.5 52.5q43 94 79 243.5t36 217.5q0 28 -5 56.5t-16.5 58.5t-35.5 48.5t-56 18.5q-106 0 -215 -151q-22 -29 -28 -42t-17 -53 q-50 -197 -64 -264.5t-14 -130.5z" />
<glyph unicode="c" horiz-adv-x="942" d="M225 315q0 109 45.5 218t118 190t167 131.5t187.5 50.5q97 0 158.5 -50t61.5 -126q0 -56 -31 -89.5t-74 -33.5q-33 0 -51.5 19.5t-18.5 46.5q0 5 0.5 11.5t6.5 22t15.5 27.5t30.5 24t50 15q-11 29 -31.5 48.5t-45.5 27t-40 10t-29 2.5q-70 0 -142 -53.5t-126 -151.5 q-40 -73 -74 -206.5t-34 -215.5q0 -94 40.5 -152t120.5 -58q17 0 37.5 2t63.5 13t83 30.5t91 60t94 94.5q18 23 27 23q11 0 21.5 -12t10.5 -21q0 -10 -19 -36t-58 -60.5t-89 -65.5t-121 -52.5t-145 -21.5q-135 0 -218 93t-83 245z" />
<glyph unicode="d" d="M221 295q0 146 69.5 288.5t179 232t220.5 89.5q113 0 172 -119l119 480l3 15q3 15 3 19q0 12 -4.5 18.5t-28 11.5t-69.5 5q-18 0 -26.5 1t-15.5 6t-7 16q0 18 7.5 28t15.5 12t24 3l202 16q12 4 33 4q29 0 29 -24q0 -9 -6 -27l-293 -1169q-12 -49 -12 -95q0 -16 1 -26 t5.5 -25.5t16 -23.5t30.5 -8q25 0 46.5 20.5t38 59.5t28 75t24.5 88q9 34 14.5 40.5t24.5 6.5q31 0 31 -20q0 -4 -7.5 -35.5t-22.5 -81t-32 -84.5q-27 -54 -61.5 -84.5t-87.5 -30.5q-58 0 -106 36.5t-64 107.5q-59 -72 -123.5 -108t-122.5 -36q-112 0 -180 91.5t-68 226.5z M360 205q0 -27 4.5 -54.5t15.5 -58.5t35 -50t58 -19q76 0 157.5 84t96.5 143l98 393q6 18 6 27q0 28 -12 66.5t-28 64.5q-38 59 -101 59q-61 0 -125.5 -65.5t-103.5 -161.5q-31 -71 -66 -213.5t-35 -214.5z" />
<glyph unicode="e" horiz-adv-x="942" d="M233 336q0 104 32 197.5t85 160t119.5 115t136.5 72.5t135 24q95 0 151 -50.5t56 -123.5q0 -10 -1 -21.5t-9.5 -40t-24 -52.5t-48.5 -52t-79 -47q-113 -45 -297 -45h-79q-35 -138 -35 -225q0 -36 6 -70t21 -71.5t48 -60.5t80 -23q17 0 37.5 2t63.5 13t83 30.5t91 60 t94 94.5q18 23 27 23q11 0 21.5 -12t10.5 -21q0 -10 -19 -36t-58 -60.5t-89 -65.5t-121 -52.5t-145 -21.5q-93 0 -161.5 52t-100 132t-31.5 175zM422 518h43q25 0 44.5 0.5t64.5 4.5t79.5 11.5t77.5 24t71.5 38.5t48 57.5t19.5 80.5q0 54 -34.5 89.5t-94.5 35.5q-9 0 -20 -1 t-36.5 -8t-50 -19.5t-56 -38t-58.5 -60.5t-53.5 -90.5t-44.5 -124.5z" />
<glyph unicode="f" horiz-adv-x="626" d="M-51 -285q0 51 30.5 82t71.5 31q28 0 49 -17.5t21 -48.5q0 -34 -23.5 -63.5t-66.5 -36.5q27 -37 82 -37q21 0 39 12.5t29 28.5t21.5 43.5t15.5 45.5t11 46q27 97 58 254l149 764h-127q-19 0 -27.5 1t-16 6t-7.5 16q0 28 12.5 34.5t42.5 6.5h136l43 225q67 336 266 336 q68 0 118 -36t50 -99q0 -51 -31 -82t-72 -31q-27 0 -48 17t-21 49q0 34 23.5 63.5t66.5 36.5q-30 37 -86 37q-26 0 -46 -16.5t-33 -49.5t-19.5 -56t-14.5 -63q-15 -71 -65 -331h159q31 0 41.5 -4t10.5 -23q0 -18 -8 -26t-17 -9.5t-31 -1.5h-168l-143 -735q-5 -27 -10.5 -52 t-20 -79.5t-30.5 -99t-42.5 -97.5t-55.5 -89.5t-68.5 -61.5t-83.5 -25q-64 0 -114 35.5t-50 99.5z" />
<glyph unicode="g" horiz-adv-x="942" d="M109 -301q0 54 32.5 81t67.5 27q36 0 54 -20.5t18 -44.5q0 -28 -18 -55t-48 -39q55 -23 145 -23q113 0 195 96q40 49 56.5 89.5t37.5 126.5l43 172q-109 -109 -217 -109q-113 0 -181.5 89.5t-68.5 223.5q0 141 68 279.5t176.5 225.5t220.5 87q114 0 172 -117 q5 39 30 57.5t50 18.5q20 0 37.5 -12t17.5 -41q0 -12 -8 -43l-223 -897q-31 -122 -143 -206.5t-267 -84.5q-129 0 -188 28.5t-59 90.5zM365 223q0 -13 1 -28t7.5 -44t17.5 -50.5t34 -38.5t54 -17q77 0 158 82.5t96 142.5l92 373l6 29q0 12 -5.5 37t-18.5 62t-44 63t-73 26 q-58 0 -119.5 -58.5t-101.5 -144.5q-33 -75 -68.5 -219t-35.5 -215z" />
<glyph unicode="h" d="M154 31q0 18 4 26l303 1209l3 15q3 15 3 19q0 12 -4.5 18.5t-28 11.5t-69.5 5q-18 0 -26.5 1t-16 6t-7.5 16q0 18 7.5 28t15.5 12t24 3l203 16q12 4 33 4q29 0 29 -24q0 -9 -6 -27l-150 -598q33 32 51.5 48t54.5 40t76.5 34.5t89.5 10.5q41 0 76 -10t67.5 -33t51 -66.5 t18.5 -103.5q0 -124 -125 -456q-36 -110 -36 -154q0 -18 2 -29t12.5 -20.5t30.5 -9.5q116 0 190 256q6 24 10.5 29t24.5 5q31 0 31 -20q0 -6 -8.5 -36.5t-29 -78.5t-48.5 -92.5t-74.5 -76.5t-99.5 -32q-71 0 -113.5 47t-42.5 117q0 31 6 53.5t27 77.5q118 334 118 453 q0 135 -94 135q-151 0 -272 -194q-28 -50 -36 -69.5t-21 -74.5q-5 -23 -16.5 -67t-16.5 -66q-66 -269 -88 -354q-5 -21 -26 -39.5t-50 -18.5q-27 0 -42 17t-15 37z" />
<glyph unicode="i" horiz-adv-x="626" d="M170 590q0 6 8.5 36.5t29 78.5t48.5 92t75 76t101 32q63 0 108.5 -42.5t45.5 -121.5q0 -40 -25 -114l-131 -351q-2 -5 -10 -27.5t-10 -28.5t-8.5 -25t-8.5 -26.5l-6 -22.5t-5.5 -24t-3 -20.5t-1.5 -21.5q0 -19 4.5 -31.5t12.5 -17.5t14 -6.5t14 -1.5q121 0 190 256 q6 24 10.5 29t24.5 5q31 0 31 -20q0 -6 -8 -36t-28.5 -78.5t-48.5 -93t-74.5 -76.5t-100.5 -32q-75 0 -115.5 49t-40.5 115q0 29 7 54t30 88q53 143 76 202l61 170q37 103 37 148q0 57 -45 57q-122 0 -190 -258q-6 -22 -11.5 -27.5t-25.5 -5.5q-31 0 -31 21zM500 1245 q0 41 31.5 69.5t66.5 28.5q27 0 48.5 -16t21.5 -51q0 -41 -32.5 -69.5t-66.5 -28.5q-26 0 -47.5 16t-21.5 51z" />
<glyph unicode="j" horiz-adv-x="626" d="M-72 -301q0 54 33 81t68 27q36 0 53.5 -20t17.5 -45q0 -7 -2.5 -17t-9 -26.5t-23.5 -31.5t-42 -23q38 -19 69 -19q45 0 85.5 26t69.5 68t48.5 86.5t30.5 88.5l194 780q15 62 15 104q0 82 -56 82q-73 0 -134 -72.5t-105 -183.5q-9 -26 -14 -30.5t-25 -4.5q-31 0 -31 21 q0 6 12.5 38t39 79t61.5 91t88 75.5t110 31.5q82 0 129 -54t47 -130q0 -38 -10 -68l-190 -766q-32 -129 -138.5 -218t-224.5 -89q-70 0 -118 32t-48 87zM561 1245q0 37 31.5 67.5t69.5 30.5q26 0 47.5 -15.5t21.5 -53.5t-31.5 -67t-68.5 -29q-33 0 -51.5 21.5t-18.5 45.5z " />
<glyph unicode="k" horiz-adv-x="942" d="M154 31q0 18 4 26l303 1209l3 15q3 15 3 19q0 12 -4.5 18.5t-28 11.5t-69.5 5q-18 0 -26.5 1t-16 6t-7.5 16q0 18 7.5 28t15.5 12t24 3l203 16q12 4 33 4q29 0 29 -24q0 -9 -6 -27l-209 -835q53 26 92 62t129 140q65 77 128.5 122.5t137.5 45.5q63 0 96 -38.5t33 -84.5 q0 -54 -32 -84t-70 -30q-36 0 -54 20.5t-18 44.5q0 14 5 31.5t28.5 41.5t62.5 30q-24 24 -55 24q-30 0 -60.5 -12.5t-53.5 -27t-58 -49t-54.5 -56t-62.5 -70.5q-86 -99 -145 -135q53 -7 98 -21.5t86 -39t64.5 -63.5t23.5 -89q0 -29 -10 -72q-16 -80 -16 -114 q0 -19 1.5 -31.5t7 -27t18 -22t32.5 -7.5q26 0 48.5 16.5t37.5 38t29.5 59t22.5 63.5t18 66q9 34 14.5 40.5t24.5 6.5q30 0 29 -20q0 -5 -8 -38t-26 -84.5t-38 -86.5q-63 -107 -158 -107q-67 0 -119.5 49t-52.5 150q0 35 8 70q6 29 6 51q0 42 -21 75t-55 52.5t-66 30 t-65 14.5l-104 -416q-17 -76 -80 -76q-27 0 -42 17t-15 37z" />
<glyph unicode="l" horiz-adv-x="522" d="M193 162q0 32 12 80l256 1024l3 15q3 15 3 19q0 12 -4.5 18.5t-28 11.5t-69.5 5q-18 0 -26.5 1t-16 6t-7.5 16q0 18 7.5 28t15.5 12t24 3l203 16q12 4 33 4q29 0 29 -24q0 -9 -6 -27l-293 -1169q-13 -53 -13 -95q0 -83 54 -83q41 0 72 57.5t59 171.5l14 51q6 10 29 10 q30 0 30 -20q0 -5 -8 -39.5t-23.5 -86t-31.5 -83.5q-25 -48 -58.5 -77.5t-86.5 -29.5q-74 0 -123 52t-49 133z" />
<glyph unicode="m" horiz-adv-x="1673" d="M170 590q0 4 8 36t24.5 83t33.5 88q28 52 62 80t85 28q67 0 114.5 -44t57.5 -118q121 162 293 162q37 0 70.5 -8.5t65 -28t52.5 -56t27 -87.5q53 78 130.5 129t176.5 51q40 0 75 -9.5t68 -32t52.5 -66.5t19.5 -105q0 -124 -125 -456l-8 -24l-9 -27t-7.5 -25t-6.5 -27 t-4 -25t-2 -26q0 -18 2 -29t12.5 -20.5t30.5 -9.5q117 0 191 256q6 24 10.5 29t24.5 5q30 0 30 -20q0 -6 -8.5 -36.5t-29 -78.5t-48.5 -92.5t-74.5 -76.5t-99.5 -32q-71 0 -113 47t-42 117q0 32 5.5 55t26.5 76q119 336 119 453q0 135 -94 135q-50 0 -95 -19t-81 -54 t-61.5 -69.5t-51.5 -78.5q-5 -9 -8.5 -15t-6 -11.5t-5.5 -13t-4.5 -12t-5 -16.5t-5.5 -19.5t-7 -27t-9 -32.5q-5 -23 -16.5 -67t-16.5 -67l-82 -327q-10 -27 -31 -40.5t-42 -13.5q-28 0 -43 17t-15 37q0 10 6 28l134 533q18 81 18 133q0 135 -94 135q-50 0 -95 -19t-81 -54 t-61.5 -69.5t-51.5 -78.5q-5 -9 -8.5 -15t-6 -11.5t-5.5 -13t-4.5 -12t-5 -16.5t-5.5 -19.5t-7 -27t-9 -32.5q-5 -22 -16.5 -66.5t-16.5 -67.5l-82 -327q-10 -27 -31 -40.5t-43 -13.5q-28 0 -42.5 17t-14.5 37q0 10 6 28l154 615q14 58 14 104q0 82 -53 82q-44 0 -76 -62 t-63 -182q-7 -34 -13 -40.5t-26 -6.5q-31 0 -31 21z" />
<glyph unicode="n" horiz-adv-x="1150" d="M170 590q0 4 8 36t24.5 83t33.5 88q28 52 62 80t85 28q67 0 114.5 -44t57.5 -118q11 16 24.5 32.5t41.5 41t59 43t75.5 32t92.5 13.5q41 0 76 -10t67.5 -33t51 -66.5t18.5 -103.5q0 -124 -125 -456l-8 -24l-9 -27t-7.5 -25t-6.5 -27t-4 -25t-2 -26q0 -18 2 -29 t12.5 -20.5t30.5 -9.5q117 0 191 256q6 25 10.5 29.5t23.5 4.5q31 0 31 -20q0 -6 -8.5 -36.5t-29 -78.5t-48.5 -92.5t-74.5 -76.5t-99.5 -32q-71 0 -113.5 47t-42.5 117q0 31 6 53.5t27 77.5q119 336 119 453q0 135 -94 135q-157 0 -277 -203q-25 -42 -32.5 -62.5 t-28.5 -102.5q-5 -22 -16.5 -66.5t-16.5 -67.5l-82 -327q-10 -27 -31 -40.5t-43 -13.5q-28 0 -42.5 17t-14.5 37q0 10 6 28l154 615q14 58 14 104q0 82 -53 82q-44 0 -76 -62t-63 -182q-7 -34 -13 -40.5t-26 -6.5q-31 0 -31 21z" />
<glyph unicode="o" d="M225 315q0 109 45.5 218t118 190t167 131.5t187.5 50.5q133 0 216 -94.5t83 -241.5t-76 -285t-196.5 -222.5t-245.5 -84.5q-131 0 -215 91.5t-84 246.5zM369 233q0 -104 45 -157t110 -53q73 0 145.5 58t118.5 146q46 86 78.5 217.5t32.5 204.5q0 93 -42.5 152t-115.5 59 q-63 0 -131 -48t-123 -138q-47 -79 -82.5 -219t-35.5 -222z" />
<glyph unicode="p" d="M29 -373q0 18 8 27.5t15 10.5t20 1q61 2 80.5 14t31.5 58l234 938q14 57 14 102q0 82 -53 82q-44 0 -76 -62t-63 -182q-7 -34 -13 -40.5t-26 -6.5q-31 0 -31 21q0 4 8 36t24.5 83t33.5 88q28 52 62 80t85 28q52 0 101.5 -32t66.5 -111q121 143 248 143q101 0 173 -82.5 t72 -236.5q0 -111 -42 -223t-107.5 -196t-150 -137t-166.5 -53q-69 0 -112.5 39t-59.5 80l-74 -299q-23 -95 -23 -98q0 -12 4 -18t28 -10.5t73 -4.5q19 0 26.5 -0.5t15 -6t7.5 -17.5q0 -18 -8 -27.5t-14.5 -10.5t-16.5 -1q-31 0 -98.5 3t-100.5 3q-29 0 -87 -3t-85 -3 q-11 0 -17.5 6.5t-6.5 17.5zM436 213q0 -8 3 -26t12 -47.5t23.5 -54.5t41 -43.5t59.5 -18.5q36 0 73.5 22.5t66 56.5t47.5 62.5t31 52.5q42 94 78 243.5t36 217.5q0 29 -5 57t-16.5 58t-35 48.5t-55.5 18.5q-77 0 -159.5 -84t-96.5 -147l-97 -387q-6 -24 -6 -29z" />
<glyph unicode="q" horiz-adv-x="942" d="M221 295q0 146 69.5 288.5t179 232t220.5 89.5q120 0 176 -131q25 42 68.5 85.5t60.5 43.5q7 0 15 -5t8 -17q0 -9 -6 -27l-281 -1118q-6 -36 -6 -37q0 -8 1 -11.5t6 -8.5t15.5 -7.5t31 -4t50.5 -1.5q15 0 20.5 -0.5t14.5 -2.5t12 -7t3 -14q0 -18 -8 -27.5t-14.5 -10.5 t-16.5 -1q-33 0 -103 3t-104 3t-103 -3t-102 -3q-27 0 -27 24q0 14 3.5 22.5t12 12t15 4t19.5 0.5q36 1 55.5 1.5t37.5 6t25 9t15.5 18t11.5 25t10 38.5l80 322q-113 -109 -217 -109q-112 0 -180 91.5t-68 226.5zM360 205q0 -27 4.5 -54.5t15.5 -58.5t35 -50t58 -19 q76 0 157.5 84t96.5 143l98 393q6 18 6 27q0 28 -12 66.5t-28 64.5q-38 59 -101 59q-61 0 -125.5 -65.5t-103.5 -161.5q-31 -71 -66 -213.5t-35 -214.5z" />
<glyph unicode="r" horiz-adv-x="862" d="M170 590q0 4 8 36t24.5 83t33.5 88q28 52 62 80t85 28q58 0 106 -35.5t64 -111.5q19 26 34.5 43.5t47.5 45.5t74.5 43t91.5 15q30 0 61 -5.5t64 -18.5t54 -40.5t21 -64.5q0 -54 -32.5 -81t-67.5 -27q-36 0 -54 20.5t-18 44.5q0 11 3.5 25.5t23 38.5t51.5 34 q-41 29 -108 29q-49 0 -95.5 -28.5t-75.5 -64t-54.5 -80.5t-33.5 -65.5t-12 -31.5l-133 -537q-19 -76 -80 -76q-28 0 -42.5 17t-14.5 37q0 10 6 28l154 615q14 58 14 104q0 82 -53 82q-44 0 -76 -62t-63 -182q-7 -34 -13 -40.5t-26 -6.5q-31 0 -31 21z" />
<glyph unicode="s" horiz-adv-x="835" d="M156 176q0 63 31.5 95t72.5 32q32 0 51 -18t19 -47q0 -5 -0.5 -11.5t-6.5 -22.5t-16 -28.5t-31.5 -24t-50.5 -14.5q12 -36 37.5 -61t57.5 -35.5t55.5 -14t46.5 -3.5q74 0 129.5 26t83.5 64.5t40.5 74t12.5 64.5q0 32 -11.5 56.5t-25.5 38.5t-43 26t-47.5 17t-54.5 13 q-25 5 -42.5 10t-48.5 20t-50 34.5t-34.5 54.5t-15.5 80q0 44 17.5 93t53.5 97.5t102 80.5t151 32q98 0 158.5 -50.5t60.5 -123.5q0 -59 -27.5 -86t-60.5 -27t-47 18t-14 40q0 23 19.5 51t62.5 33q-16 54 -59.5 77t-94.5 23q-57 0 -100.5 -22t-65 -54.5t-31.5 -61t-10 -50.5 q0 -25 9 -44.5t20.5 -31t31.5 -20.5t33.5 -12.5t36.5 -8.5q35 -8 58.5 -14.5t62.5 -24.5t62.5 -40.5t42 -62.5t18.5 -91q0 -26 -7.5 -58.5t-23.5 -72.5t-46.5 -77t-71 -68t-102 -50t-134.5 -19q-113 0 -188.5 54t-75.5 145z" />
<glyph unicode="t" horiz-adv-x="679" d="M186 844q0 19 8.5 27.5t18 10t31.5 1.5h174l80 325q19 74 80 74q20 0 37.5 -12t17.5 -41q0 -14 -8 -43l-76 -303h164q20 0 28.5 -1t15.5 -6.5t7 -17.5q0 -19 -8 -27.5t-17.5 -10t-31.5 -1.5h-175l-151 -608q-14 -57 -14 -105q0 -18 1 -28t5.5 -25t17 -22.5t31.5 -7.5 q41 0 80 24.5t68.5 65t50 80t36.5 81.5q12 29 17.5 34t23.5 5q31 0 31 -20q0 -5 -12 -36.5t-38.5 -79t-61 -92t-88 -76.5t-111.5 -32q-78 0 -126 53.5t-48 131.5q0 29 10 69l147 588h-163q-20 0 -29 1t-16 6.5t-7 17.5z" />
<glyph unicode="u" horiz-adv-x="1097" d="M170 590q0 7 8.5 37.5t29.5 78.5t49.5 92t75 75.5t99.5 31.5q67 0 111.5 -45.5t44.5 -120.5q0 -37 -27 -110q-36 -98 -55.5 -156t-41.5 -146.5t-22 -146.5q0 -29 4.5 -54t16 -49.5t34.5 -39t56 -14.5q107 0 188 118q18 27 29 68l150 598q19 76 79 76q28 0 43 -17t15 -37 q0 -10 -6 -28l-148 -590q-14 -57 -14 -105q0 -16 1 -26t5.5 -25.5t16 -23.5t30.5 -8q25 0 46.5 20.5t38 59.5t28 75t24.5 88q9 34 14.5 40.5t24.5 6.5q31 0 32 -20q0 -4 -8 -35.5t-23 -81t-32 -84.5q-27 -54 -61.5 -84.5t-87.5 -30.5q-19 0 -38 4t-44 15.5t-47 38t-35 65.5 q-99 -123 -227 -123q-95 0 -162.5 57.5t-67.5 180.5q0 71 28 167t79 234q49 135 49 185q0 36 -12 47.5t-33 11.5q-34 0 -64 -21.5t-49.5 -50t-37 -69t-25 -65.5t-14.5 -52q-6 -22 -11.5 -27.5t-25.5 -5.5q-31 0 -31 21z" />
<glyph unicode="v" horiz-adv-x="942" d="M170 590q0 7 8.5 37.5t29.5 78.5t49.5 92t75 75.5t99.5 31.5q67 0 111.5 -45.5t44.5 -120.5q0 -14 -2.5 -29t-5 -23.5t-8 -26.5t-7.5 -23q-37 -99 -58 -159t-42 -145t-21 -140q0 -29 5.5 -56t19.5 -54t42 -43.5t67 -16.5q66 0 124.5 54t94.5 130.5t63 161t38 144t11 81.5 q0 103 -55 162q-1 1 -5.5 6t-5.5 6.5t-4.5 6.5t-5 8t-3.5 7.5t-2.5 9.5t-0.5 11q0 35 31.5 64.5t67.5 29.5q42 0 63 -38.5t21 -96.5q0 -25 -12 -103t-44.5 -198.5t-79 -228t-126.5 -185.5t-177 -78q-48 0 -91 13t-80 40t-59 76.5t-22 116.5q0 66 25 153t80 240 q49 135 49 185q0 36 -12 47.5t-33 11.5q-34 0 -64 -21.5t-49.5 -50t-37 -69t-25 -65.5t-14.5 -52q-6 -22 -11.5 -27.5t-25.5 -5.5q-31 0 -31 21z" />
<glyph unicode="w" horiz-adv-x="1359" d="M170 590q0 7 8.5 37.5t29.5 78.5t49.5 92t75 75.5t99.5 31.5q67 0 111.5 -45.5t44.5 -120.5q0 -38 -25 -108q-58 -156 -87.5 -255.5t-29.5 -174.5q0 -15 1 -29.5t9 -44t21.5 -50.5t43 -37.5t69.5 -16.5q38 0 72.5 26.5t55 61.5t32.5 64t12 40q0 64 16 129l117 467 q18 72 78 72q28 0 42.5 -17t14.5 -37q0 -11 -33 -135l-86 -344q-24 -94 -24 -157q0 -73 32 -121.5t103 -48.5q124 0 205 190q30 73 65 198.5t35 182.5q0 103 -55 162q-1 1 -5.5 6t-5.5 6.5t-4.5 6.5t-5 8t-3.5 7.5t-2.5 9.5t-0.5 11q0 35 31 64.5t67 29.5q42 0 63 -38.5 t21 -96.5q0 -81 -47.5 -269.5t-93.5 -293.5q-97 -230 -270 -230q-88 0 -149 36.5t-85 95.5q-77 -132 -198 -132q-119 0 -193 64q-69 64 -69 188q0 36 3.5 63.5t27 110.5t71.5 213q49 135 49 185q0 36 -12 47.5t-33 11.5q-34 0 -64 -21.5t-49.5 -50t-37 -69t-25 -65.5 t-14.5 -52q-6 -22 -11.5 -27.5t-25.5 -5.5q-31 0 -31 21z" />
<glyph unicode="x" horiz-adv-x="948" d="M109 104q0 49 31 80t71 31q27 0 48.5 -15t21.5 -50q0 -29 -19.5 -58.5t-60.5 -40.5q34 -28 90 -28q26 0 48.5 10t39 24.5t32 40.5t25.5 48t21 57t17 57t15 59q27 110 48 187q43 182 43 225q0 61 -27 95t-72 34q-67 0 -135.5 -66t-107.5 -190q-8 -25 -12.5 -30t-24.5 -5 q-31 0 -31 21q0 16 12.5 51t39.5 80.5t63 86.5t89 69t111 28q24 0 47 -5t52.5 -18t55.5 -43t42 -73q10 19 25 39t40 44.5t60.5 40t75.5 15.5q26 0 53.5 -6t57 -19t48.5 -40t19 -64q0 -54 -32.5 -81t-67.5 -27q-36 0 -54 20.5t-18 44.5q0 4 0.5 9.5t5 20t12 26.5t24.5 24 t40 18q-33 29 -90 29q-66 0 -110.5 -62.5t-70.5 -156.5q-45 -191 -69 -281q-39 -171 -39 -206q0 -72 29 -101.5t67 -29.5q70 0 137.5 65.5t106.5 190.5q7 24 12.5 29t24.5 5q30 0 30 -20q0 -14 -12 -48.5t-38.5 -80.5t-62 -87.5t-89.5 -70.5t-113 -29q-33 0 -66 9.5 t-71.5 43t-57.5 87.5q-33 -57 -83.5 -98.5t-116.5 -41.5q-74 0 -127 34.5t-53 92.5z" />
<glyph unicode="y" horiz-adv-x="993" d="M170 590q0 7 8.5 37.5t29.5 78.5t49.5 92t75 75.5t99.5 31.5q67 0 111.5 -45.5t44.5 -120.5q0 -37 -27 -110q-36 -98 -55.5 -156t-41.5 -146.5t-22 -146.5q0 -29 4.5 -54t16 -49.5t34.5 -39t56 -14.5q81 0 142 62.5t75 119.5l150 602q19 76 79 76q28 0 43 -17t15 -37 q0 -3 -2.5 -13t-3.5 -15l-201 -807q-26 -103 -91 -197t-161.5 -155.5t-198.5 -61.5q-86 0 -141 48.5t-55 127.5q0 33 8.5 57.5t20.5 37t28 20.5t26.5 10t20.5 2q29 0 49.5 -17t20.5 -48q0 -30 -22.5 -61t-65.5 -38q-17 -2 -17 -6t3.5 -13t13 -22t23 -25t36.5 -20t51 -8 q42 0 85 20.5t89.5 66t88 133.5t69.5 208q-76 -76 -184 -76q-95 0 -162.5 57.5t-67.5 180.5q0 71 28 167t79 234q49 135 49 185q0 36 -12 47.5t-33 11.5q-34 0 -64 -21.5t-49.5 -50t-37 -69t-25 -65.5t-14.5 -52q-6 -22 -11.5 -27.5t-25.5 -5.5q-31 0 -31 21z" />
<glyph unicode="z" horiz-adv-x="835" d="M127 -2q0 19 67.5 114t145.5 171l336 333q12 12 82 91q-21 0 -31 1t-34 7.5t-56 21.5q-83 37 -123 37q-54 0 -96.5 -29.5t-55.5 -66.5q-8 -20 -13 -24.5t-23 -4.5q-31 0 -31 23q0 18 17 54.5t45.5 77t76.5 71t101 30.5q23 0 42.5 -6.5t36 -22t23.5 -24t22 -27.5 q31 -42 50.5 -57.5t46.5 -15.5q28 0 54 23t73 104q9 19 14.5 22.5t24.5 3.5q28 0 28 -20q0 -10 -28.5 -55.5t-82 -114t-108.5 -123.5l-297 -293q-45 -45 -115 -125q10 2 37 2q48 0 127 -35q73 -32 115 -32q67 0 131.5 48.5t91.5 123.5q6 21 11.5 26.5t23.5 5.5q31 0 31 -20 q0 -22 -21 -70.5t-58 -105t-99 -98.5t-131 -42q-29 0 -54.5 13t-38 26.5t-34.5 40.5q-22 31 -33 43.5t-27.5 21.5t-38.5 9q-11 0 -22.5 -3t-21 -7t-20.5 -11.5t-18.5 -13.5t-17 -17t-15 -17t-14.5 -18.5t-12 -17t-11.5 -16.5t-9.5 -14q-5 -9 -7 -11.5t-8 -5t-17 -2.5 q-31 0 -31 21z" />
<glyph unicode="{" d="M317 510q0 9 4 14.5t13.5 8t19 4t27 4.5t31.5 6q73 20 136.5 72.5t90.5 123.5q14 40 127 494q0 1 3.5 15t5 18.5t6 19t8 21.5t10.5 21.5t14 24t18 23.5t22.5 25.5t27.5 24t34 24.5q62 40 139.5 61t145.5 21q35 0 35 -23q0 -15 -14.5 -19.5t-50.5 -10t-64 -15.5 q-33 -12 -61 -29t-47.5 -34t-36 -37.5t-26 -37t-17.5 -35.5t-11.5 -29.5t-6.5 -23.5l-3 -13q-96 -383 -110 -437t-21 -71q-61 -148 -279 -211q172 -59 172 -199q0 -41 -68.5 -307t-68.5 -301q0 -33 10.5 -60.5t28 -45t38.5 -30.5t42.5 -19.5t38.5 -10t29 -5.5l12 -1 q12 -6 12 -18q0 -10 -10 -17.5t-29 -7.5q-30 0 -65.5 5.5t-79 21t-77.5 39t-57.5 63.5t-23.5 90q0 39 68.5 305t68.5 303q0 69 -44 114t-111 56q-1 0 -21 2t-27.5 7t-7.5 16z" />
<glyph unicode="|" horiz-adv-x="628" d="M156 -467q0 1 6 37l477 1905q15 59 47 59q14 0 26.5 -12.5t12.5 -30.5q0 -10 -82 -336l-399 -1601q0 -1 -2.5 -9.5t-4 -12.5t-4.5 -11.5t-6 -12t-8 -9.5t-11 -7t-13 -2q-18 0 -28.5 12.5t-10.5 30.5z" />
<glyph unicode="}" d="M66 -489q0 15 12 19.5t47 9t68 16.5q168 65 210 239q121 484 132 508q33 80 103.5 129.5t174.5 81.5q-69 22 -120.5 71t-51.5 130q0 41 68.5 304.5t68.5 299.5q0 33 -10.5 61t-28 45t-38 30.5t-42 20t-38.5 10.5t-29 6l-12 1q-9 5 -12.5 15t3.5 18q10 10 33 10 q40 0 87.5 -10.5t98.5 -33.5t85 -69t34 -108q0 -41 -68.5 -305t-68.5 -301q0 -71 46.5 -115.5t109.5 -54.5q3 -1 16 -2.5t19.5 -3t13 -7t6.5 -14.5q0 -14 -11.5 -19t-39.5 -8t-45 -8q-76 -21 -137 -72t-88 -122q-17 -46 -77.5 -296.5t-78.5 -285.5q-51 -104 -171 -158.5 t-235 -54.5q-34 0 -34 23z" />
<glyph unicode="~" horiz-adv-x="1255" d="M508 1182q0 11 27.5 40.5t68 62.5t95 58t100.5 25q45 0 89.5 -21t75 -46.5t70.5 -46.5t76 -21q38 0 79 18t68.5 39.5t53.5 44t32 25.5q12 6 22.5 0.5t10.5 -17.5t-22 -34q-150 -150 -269 -150q-45 0 -89.5 21t-75 46.5t-71.5 46.5t-79 21q-40 0 -82.5 -20t-70.5 -44.5 t-54 -44.5t-37 -20q-18 0 -18 17z" />
<glyph unicode="&#xa1;" horiz-adv-x="628" d="M117 -360q0 14 16 67l285 868q0 1 3 11.5t4.5 15t6 13.5t8.5 13.5t11.5 8.5t15.5 4q29 0 29 -31q0 -3 -13 -78l-141 -837q-2 -15 -6 -30.5t-17 -43.5t-42 -45.5t-70 -17.5q-38 0 -64 23.5t-26 58.5zM430 895q0 47 41 87t92 40q39 0 63.5 -24.5t24.5 -61.5 q0 -50 -40.5 -89.5t-90.5 -39.5q-39 0 -64.5 25.5t-25.5 62.5z" />
<glyph unicode="&#xa2;" d="M211 332q0 98 43.5 199t117 183t179 137.5t221.5 63.5q28 125 38 151t32 26q28 0 28 -27q0 -12 -4 -30.5t-14 -56t-16 -63.5q144 -14 202 -68t58 -124q0 -60 -32.5 -91.5t-70.5 -31.5q-27 0 -48 19t-21 49q0 10 3.5 22.5t13 29.5t31 30t52.5 16q-29 47 -76 69.5 t-125 28.5l-209 -835q199 16 310 196q1 1 6 8.5t6.5 9.5t6 7.5t8 7.5t9 4t11.5 2q42 0 20 -43q-13 -23 -30 -47.5t-51.5 -59.5t-75 -62t-102 -48.5t-130.5 -26.5h-2q-28 -124 -38 -150t-32 -26q-26 0 -26 29q0 13 4.5 33t14 56.5t14.5 60.5q-143 12 -234.5 107.5 t-91.5 244.5zM365 291q0 -20 1.5 -39.5t12 -57.5t28.5 -67t55.5 -56.5t88.5 -37.5l207 829q-84 -17 -153.5 -67t-112.5 -113.5t-73 -137.5t-42 -137.5t-12 -115.5z" />
<glyph unicode="&#xa3;" horiz-adv-x="1574" d="M178 78q0 70 77 138.5t189 68.5q58 0 121 -25q18 47 111 420h-111q-33 0 -41 14q-4 8 -4 13q0 14 14 25t37 11h121q16 71 53.5 216t49.5 176q54 135 166.5 224t230.5 89q106 0 170.5 -74.5t64.5 -197.5q0 -58 -10.5 -98.5t-28 -59t-34.5 -26t-37 -7.5q-30 0 -50 18.5 t-20 47.5q0 34 26.5 66t78.5 32q2 0 6 -1t6 -1q0 5 1 17t1 18q0 101 -47.5 160t-126.5 59q-77 0 -148 -68t-110 -178q-13 -35 -32 -108t-42.5 -167.5t-34.5 -136.5h164q43 0 43 -26q0 -17 -10.5 -26t-21 -10t-31.5 -1h-160q-6 -31 -46.5 -192t-49.5 -187q-7 -21 -47 -98 q17 -11 62.5 -43t73 -48.5t71.5 -32.5t85 -16q46 0 88 19.5t71.5 51t49.5 61.5t31 59q2 4 5.5 14t5.5 14.5t6 10t10 8t14 2.5q11 0 20 -7t9 -20q0 -16 -13.5 -49t-42.5 -76.5t-68 -82t-96.5 -65t-121.5 -26.5q-31 0 -62 7t-51.5 13.5t-54 26.5t-46 28t-53.5 37t-51 36h-2 q-58 -63 -135 -105.5t-158 -42.5q-60 0 -97.5 28.5t-37.5 72.5zM256 78q0 -25 16.5 -39t44.5 -14q42 0 99.5 33.5t107.5 113.5q-71 27 -114 27q-66 0 -110 -40t-44 -81z" />
<glyph unicode="&#xa4;" horiz-adv-x="1595" d="M123 -53q0 17 18 34t99 81q89 70 157 124v2q-65 107 -65 246q0 147 74 291t186 238q-45 59 -100 131q-42 56 -50 68.5t-8 25.5q0 16 12.5 27.5t26.5 11.5q16 0 28.5 -13.5t70.5 -91.5q15 -19 23.5 -31t25 -34t32.5 -43h4q86 65 196 104t222 39q218 0 355 -143 q46 34 117.5 93t112 89.5t56.5 30.5t26.5 -12t10.5 -27q0 -18 -24.5 -40.5t-135.5 -109.5q-69 -55 -114 -90v-2q67 -108 67 -246q0 -150 -75.5 -293.5t-184.5 -234.5q38 -51 89 -118q51 -66 60 -80.5t9 -28.5q0 -16 -12 -26.5t-27 -10.5h-4q-8 0 -19.5 8.5t-52 59 t-106.5 145.5q-206 -144 -422 -144q-214 0 -352 144h-3q-202 -163 -234.5 -188t-49.5 -25q-16 0 -27.5 12.5t-11.5 26.5zM414 434q0 -168 108.5 -271.5t278.5 -103.5q163 0 316.5 91t249 240.5t95.5 309.5q0 168 -109 271.5t-278 103.5q-163 0 -316.5 -91t-249 -240.5 t-95.5 -309.5z" />
<glyph unicode="&#xa5;" horiz-adv-x="1521" d="M301 471q0 25 49 25h453q14 51 14 57q0 19 -11 54t-35 105.5t-42 133.5h-285q-43 0 -43 22q0 25 41 25h271q-37 115 -82 255q-46 145 -53 154v1q-17 24 -57.5 28t-71.5 6.5t-33 22.5q-2 16 9 27.5t32 11.5q5 0 32 -1.5t74 -3t101 -1.5q60 0 112 1.5t81.5 3t35.5 1.5 q37 0 37 -27q0 -21 -12 -29q-5 -4 -42 -7t-68.5 -14t-31.5 -36q0 -14 22 -83t53.5 -164t45.5 -146h283q42 55 124.5 151t126.5 155.5t44 88.5q0 20 -14 30.5t-31.5 12.5t-31.5 10t-14 25q0 13 10.5 23t30.5 10q5 0 28.5 -1.5t65.5 -3t91 -1.5q36 0 80 2t53 2q25 0 35 -6 t10 -21q0 -6 -1 -10.5t-3.5 -8t-4.5 -6t-6.5 -4.5t-7 -3t-8 -2t-7.5 -1.5t-8 -0.5l-7 -1q-26 -3 -48 -7.5t-46 -17.5t-40.5 -22.5t-44 -36t-43.5 -43t-52 -59t-57 -68t-70.5 -87t-80.5 -99.5h263q23 0 31.5 -9t4.5 -20q-7 -18 -47 -18h-252q-24 0 -34.5 -4.5t-28.5 -24.5 q-184 -226 -197 -244q-15 -22 -22 -53q-3 -13 -6 -24h438q51 0 51 -25q0 -22 -47 -22h-455q-9 -41 -30.5 -124.5t-36.5 -145t-15 -75.5q0 -41 84 -41h23q45 0 54 -7q9 -6 9 -21q0 -13 -11.5 -24t-31.5 -11q-7 0 -37.5 1.5t-83 3t-114.5 1.5q-70 0 -121 -1.5t-75 -3t-31 -1.5 q-19 0 -29 8.5t-10 20.5q0 28 37.5 31.5t88 6.5t70.5 27q17 19 70 233q19 75 31 122h-443q-49 0 -49 22zM913 846l64 -201l164 201h-228z" />
<glyph unicode="&#xa6;" horiz-adv-x="417" d="M51 -469q0 11 10 51l170 684q0 1 2.5 12.5t4 16t5 15.5t7.5 16.5t9 12.5t12.5 10t15.5 3q35 0 35 -43q0 -23 -7 -47l-172 -688q-1 -4 -3.5 -15t-4 -16.5t-4.5 -15t-6.5 -15t-8.5 -11.5t-11.5 -8.5t-14.5 -2.5q-17 0 -28 12.5t-11 28.5zM346 715q0 11 10 51l170 682 q0 1 2.5 12.5t4 16t5 15.5t7.5 16.5t9 12.5t12.5 10t15.5 3q17 0 28 -12.5t11 -30.5q0 -3 -11 -47l-172 -688l-5.5 -22t-7 -24.5t-8 -17.5t-13.5 -15.5t-19 -4.5q-17 0 -28 12.5t-11 30.5z" />
<glyph unicode="&#xa7;" horiz-adv-x="942" d="M158 -223q0 66 26.5 91.5t57.5 25.5q23 0 39 -15t16 -39q0 -26 -19.5 -49t-56.5 -27q6 -44 24.5 -74t42.5 -43t43 -17.5t38 -4.5q74 0 142 55.5t105 127.5t37 131q0 35 -15 65t-41.5 52.5t-51 38t-55 32t-41.5 23.5q-148 103 -148 280q0 130 71.5 230t168.5 147 q-88 102 -88 229q0 82 33 158.5t85.5 131t119.5 87.5t134 33q89 0 150 -55.5t61 -143.5q0 -66 -26.5 -91.5t-57.5 -25.5q-23 0 -39 15t-16 39q0 29 22 51t54 25q-5 43 -23 73t-42.5 43t-44 18t-38.5 5q-75 0 -143.5 -56t-105.5 -128t-37 -130q0 -34 15.5 -63.5t42.5 -52 t50 -37.5t53 -30.5t37 -20.5q67 -43 111.5 -116t44.5 -171q0 -119 -66.5 -221t-171.5 -156q86 -106 86 -229q0 -82 -33 -158.5t-85.5 -131t-119.5 -87.5t-134 -33q-91 0 -151 56.5t-60 142.5zM389 479q0 -38 23 -74.5t56 -61.5t66.5 -44t56.5 -28l23 -9q28 0 73 44.5 t81.5 113t36.5 125.5q0 36 -15 66t-42 52.5t-53 38.5t-60.5 35.5t-52.5 32.5q-84 -40 -138.5 -131.5t-54.5 -159.5z" />
<glyph unicode="&#xa8;" d="M541 1221q0 47 40 88t91 41q39 0 63.5 -25.5t24.5 -62.5q0 -50 -40.5 -89.5t-90.5 -39.5q-37 0 -62.5 24.5t-25.5 63.5zM907 1221q0 47 39 87t90 40q38 0 64 -24.5t26 -63.5q0 -47 -40 -87t-91 -40q-39 0 -63.5 25.5t-24.5 62.5z" />
<glyph unicode="&#xa9;" horiz-adv-x="2197" d="M248 227q0 166 48.5 335.5t133 317.5t203 278t253.5 223t289.5 146.5t307.5 53.5q212 0 377 -102t254.5 -280.5t89.5 -403.5q0 -168 -49 -338t-134.5 -317.5t-204 -277t-254 -221.5t-289 -145t-304.5 -53q-212 0 -377 101.5t-254.5 279.5t-89.5 403zM330 227 q0 -203 79.5 -363t225 -249.5t334.5 -89.5q139 0 282 49.5t269 136t237.5 208t191.5 260.5t126.5 299.5t46.5 318.5q0 204 -79.5 363.5t-225 249t-334.5 89.5q-137 0 -279 -49t-268.5 -134.5t-238.5 -207t-192.5 -260t-127.5 -300t-47 -321.5zM682 367q0 165 99 318t258 246 t327 93q155 0 240 -111l100 86q30 23 41 23q18 0 18 -25q0 -11 -90 -368q-10 -35 -35 -35q-10 0 -20 7t-10 17q0 2 1 25t1 41q0 77 -21.5 133.5t-56.5 86.5t-73 43.5t-79 13.5q-110 0 -213.5 -61.5t-169.5 -156.5q-61 -90 -98 -219.5t-37 -224.5q0 -77 26 -134.5t69 -88 t88 -44.5t92 -14q120 0 233 84.5t158 216.5q0 1 4 11.5t5.5 14.5t6 9.5t10.5 7.5q12 7 27.5 1t15.5 -23q0 -24 -19.5 -68.5t-61.5 -99t-97.5 -103t-138 -81.5t-172.5 -33q-86 0 -163.5 28.5t-136.5 80.5t-93.5 130.5t-34.5 172.5z" />
<glyph unicode="&#xaa;" horiz-adv-x="942" d="M111 664q0 22 41 22h626q49 0 49 -22q0 -23 -45 -23h-630q-41 0 -41 23zM207 1022q0 131 60 257.5t153.5 204t185.5 77.5q85 0 131 -84h2q29 43 70 43q24 0 39.5 -14.5t15.5 -39.5q0 -17 -66.5 -278.5t-66.5 -313.5q0 -81 53 -81q14 0 26.5 6.5t23.5 20t20.5 26.5t18 35 t14.5 37t13 39.5l10 35t8.5 32t5.5 22.5q10 34 34 34q31 0 31 -26q-1 -9 -4 -23.5t-14 -55t-24.5 -75.5t-37 -72t-49.5 -57q-38 -27 -82 -27q-57 0 -99 33t-61 88q-50 -58 -98.5 -89.5t-105.5 -31.5q-93 0 -150 78t-57 199zM344 922q0 -53 19 -91t57 -38q54 0 112 59t74 98 q103 399 103 426q0 48 -28.5 91.5t-72.5 43.5q-60 0 -113 -77.5t-84 -182t-49 -196t-18 -133.5z" />
<glyph unicode="&#xab;" horiz-adv-x="1150" d="M389 494q0 12 21.5 28t65.5 47t98.5 75t134 129t159.5 192q12 20 31 20t19 -18q0 -19 -51.5 -96.5t-147.5 -187.5t-195 -191q44 -70 76.5 -142t47.5 -122.5t24 -98t10.5 -66t1.5 -28.5q0 -31 -22 -31q-12 0 -20.5 22.5t-20.5 65.5t-30 94t-59.5 119.5t-99.5 130.5 q-43 43 -43 58zM702 494q0 12 21.5 28t66 46.5t99.5 74.5t135 129t160 193q12 20 28 20q19 0 19 -18q0 -20 -51 -97t-147 -187t-195 -191q44 -70 76 -142t47.5 -122.5t24 -98.5t10 -65.5t1.5 -28.5q0 -13 -6 -23t-14 -10q-21 0 -29 41q-18 83 -50.5 158t-65 123t-62.5 84 t-49 57.5t-19 28.5z" />
<glyph unicode="&#xac;" horiz-adv-x="1359" d="M330 688q0 41 59 41h924q59 0 59 -45v-2q0 -14 -49 -209q-3 -14 -11 -43q-28 -110 -46 -184q-15 -60 -49 -60q-15 0 -27 10t-12 31q0 13 14 69t41 160.5t47 190.5h-891q-33 0 -46 12.5t-13 28.5z" />
<glyph unicode="&#xad;" horiz-adv-x="417" d="M176 412q8 72 35 82q8 4 27 4h407q14 0 22.5 -1.5t15.5 -8t7 -19.5q0 -5 -2 -19.5t-9 -35t-17 -25.5q-12 -6 -31 -6h-410q-15 0 -23.5 1.5t-15 8t-6.5 19.5z" />
<glyph unicode="&#xae;" horiz-adv-x="2197" d="M248 227q0 166 48.5 335.5t133 317.5t203 278t253.5 223t289.5 146.5t307.5 53.5q212 0 377 -102t254.5 -280.5t89.5 -403.5q0 -168 -49 -338t-134.5 -317.5t-204 -277t-254 -221.5t-289 -145t-304.5 -53q-212 0 -377 101.5t-254.5 279.5t-89.5 403zM330 227 q0 -203 79.5 -363t225 -249.5t334.5 -89.5q139 0 282 49.5t269 136t237.5 208t191.5 260.5t126.5 299.5t46.5 318.5q0 204 -79.5 363.5t-225 249t-334.5 89.5q-137 0 -279 -49t-268.5 -134.5t-238.5 -207t-192.5 -260t-127.5 -300t-47 -321.5zM518 29q0 30 38 33t89 5.5 t72 28.5q17 22 35 99l159 641q9 36 9 41q0 24 -22 30t-91 8q-59 0 -59 29q0 14 12 24.5t35 10.5h475q89 0 161 -15t116 -38t73.5 -54t41 -60t11.5 -58q0 -46 -25 -88t-63 -71t-85.5 -53t-87.5 -37t-75 -20q76 -39 103.5 -79.5t27.5 -110.5q0 -14 -2 -66.5t-2 -95.5 q0 -27 2 -47t8.5 -41t21 -32t36.5 -11q47 0 81.5 41.5t54.5 93t22 53.5q6 9 24 9q11 0 19 -7t8 -20q0 -8 -6.5 -30t-23.5 -54.5t-40.5 -62t-63 -50t-85.5 -20.5q-45 0 -86.5 8t-81.5 26.5t-64 54.5t-24 85q0 35 20.5 108t20.5 107q0 55 -45 92q-27 20 -55.5 25.5t-73.5 5.5 h-152q-88 -342 -88 -365q0 -17 14.5 -26.5t30.5 -11t43 -1.5h12q60 0 68 -16q4 -8 4 -12q0 -15 -11.5 -25t-33.5 -10q-8 0 -35.5 1.5t-80.5 3t-122 1.5q-79 0 -146.5 -2t-78.5 -2q-39 0 -39 27zM993 512h144q198 0 278 82q34 35 52 93.5t18 96.5q0 30 -10.5 53t-31 36.5 t-42 22.5t-53 13t-54.5 5t-55 1h-65q-60 0 -75.5 -17.5t-35.5 -101.5q-1 -7 -2 -10q-62 -246 -68 -274z" />
<glyph unicode="&#xaf;" d="M524 1360q0 35 43 35h588q45 0 45 -27q0 -37 -45 -37h-588q-43 0 -43 29z" />
<glyph unicode="&#xb0;" horiz-adv-x="733" d="M449 1151q0 95 78 171.5t178 76.5q73 0 121 -47t48 -121q0 -95 -77 -171.5t-176 -76.5q-75 0 -123.5 48.5t-48.5 119.5zM530 1151q0 -38 25.5 -62t65.5 -24q66 0 119 52.5t53 113.5q0 38 -25 62t-66 24q-64 0 -118 -52.5t-54 -113.5z" />
<glyph unicode="&#xb1;" horiz-adv-x="1568" d="M178 82q0 41 62 41h532l127 506h-504q-1 0 -4.5 -1t-5.5 -1q-59 0 -59 41q0 43 63 43h531l129 518q13 65 49 65q18 0 28.5 -13.5t10.5 -29.5q0 -14 -21.5 -97.5t-56 -217t-55.5 -225.5h512q59 0 59 -41q0 -43 -62 -43q-2 0 -6 1t-6 1h-520l-125 -506h512q62 0 62 -41 t-58 -41h-1134q-60 0 -60 41z" />
<glyph unicode="&#xb2;" horiz-adv-x="942" d="M356 715q0 18 15.5 55t45 85t84.5 99.5t122 85.5q15 7 60 27.5t75 35t72 44.5t67.5 61.5t44.5 80.5t19 106q0 40 -15 69t-40 43.5t-49.5 20.5t-51.5 6q-109 0 -196 -69t-87 -152q0 -27 14 -44.5t42 -17.5q56 0 106.5 45t50.5 84q0 13 -13 33t-13 29q0 18 18 18 q19 0 38 -24.5t19 -51.5q0 -61 -66 -120.5t-147 -59.5q-50 0 -81 32.5t-31 80.5q0 45 25.5 91.5t70 85t112 63t144.5 24.5q129 0 215 -66t86 -172q0 -91 -78.5 -158.5t-269.5 -148.5q-6 -3 -32.5 -14t-33.5 -14t-29.5 -13.5t-31.5 -16t-28.5 -17t-31 -22t-28.5 -25 t-32 -31.5t-30 -37q32 4 52 4q32 0 131.5 -9.5t150.5 -9.5q149 0 203 80q3 5 9 16.5t9 16.5t11 9.5t18 4.5q27 0 27 -24q0 -27 -23 -68t-60 -81t-94 -68.5t-116 -28.5q-40 0 -82 18.5t-71 40t-63.5 40t-62.5 18.5q-37 0 -61 -22t-39 -53l-14 -32q-10 -10 -27 -10 q-10 0 -19.5 7t-9.5 20z" />
<glyph unicode="&#xb3;" horiz-adv-x="942" d="M369 913q0 97 33 135.5t75 38.5q31 0 50.5 -18.5t19.5 -46.5q0 -31 -25.5 -64.5t-81.5 -33.5h-10q0 -64 15.5 -109t42.5 -65.5t52 -28.5t54 -8q62 0 112 23t79 57t48 76t26 76t7 61q0 102 -133 102h-65q-39 0 -39 27q0 36 51 36h59q67 0 117 21.5t76 50.5t41.5 67 t19.5 63t4 46q0 56 -39 85.5t-102 29.5q-23 0 -63 -4q6 -30 6 -64q0 -89 -56.5 -158t-128.5 -69q-52 0 -86 28.5t-34 73.5q0 64 62 129t177 95q13 16 27 16q5 0 17 -2t18 -2q9 0 28 2t35 2q114 0 190 -54t76 -141q0 -77 -66 -150t-169 -106q21 -11 34.5 -19.5t39 -30.5 t39.5 -53.5t14 -70.5q0 -77 -61.5 -145t-158.5 -106.5t-200 -38.5q-65 0 -112 24t-70.5 63t-34 78.5t-10.5 81.5zM557 1341q0 -24 18 -39.5t43 -15.5q47 0 91.5 54t44.5 126q0 27 -6 54q-85 -24 -138 -77t-53 -102z" />
<glyph unicode="&#xb4;" d="M709 1053v1q0 12 15.5 27t100.5 83q30 24 49 39.5t56.5 45.5t73.5 60q28 24 55 24q23 0 40 -17t17 -40q0 -10 -2.5 -18.5t-8 -16t-10.5 -13t-12 -11t-11.5 -8t-10.5 -5.5l-6 -4q-296 -171 -308 -176q-5 -2 -10 -2q-11 0 -19.5 10t-8.5 21z" />
<glyph unicode="&#xb5;" d="M49 -387q0 15 8 43l291 1167q24 80 82 80q20 0 37.5 -13.5t17.5 -43.5q0 -25 -72.5 -302t-72.5 -351q0 -94 40.5 -131t92.5 -37q48 0 93 23t75.5 56t49 60.5t26.5 46.5q7 15 16 57l127 508q0 2 3.5 14.5t6 22t9.5 23.5t15 23t21.5 15.5t30.5 6.5q23 0 39 -15t16 -39 q0 -10 -10 -55l-135 -547q-20 -78 -20 -119q0 -81 53 -81q24 0 45.5 20t37.5 57t25.5 65.5t20.5 70t12 45.5q7 30 35 30q29 0 29 -26q-1 -9 -4 -24t-14 -56t-24 -76t-36.5 -72.5t-50.5 -56.5q-39 -25 -82 -25q-50 0 -97.5 31.5t-68.5 106.5q-105 -138 -252 -138 q-18 0 -34.5 1.5t-30.5 5t-26.5 7t-24 8.5t-19.5 9t-16.5 9t-12.5 8t-9.5 7.5t-6.5 4.5q-25 -102 -59 -239q-37 -149 -45 -176t-22 -41l-1 -1q-22 -22 -54 -22q-22 0 -38.5 15t-16.5 40z" />
<glyph unicode="&#xb6;" horiz-adv-x="1255" d="M381 854q0 69 25 145.5t78 151.5t125 135t175 97.5t220 37.5h426q61 0 61 -41q0 -18 -11 -27.5t-22.5 -11.5t-30.5 -2h-100l-414 -1654h82q62 0 62 -41q0 -16 -13.5 -28.5t-46.5 -12.5h-485q-33 0 -46 12.5t-13 28.5q0 41 61 41h102l197 788q-96 9 -172.5 37.5t-124 67.5 t-79 87.5t-44 95t-12.5 93.5zM702 -315h127l414 1654h-129z" />
<glyph unicode="&#xb7;" horiz-adv-x="628" d="M326 475q0 47 41 87t92 40q39 0 63.5 -24.5t24.5 -61.5q0 -50 -40.5 -89.5t-90.5 -39.5q-39 0 -64.5 25.5t-25.5 62.5z" />
<glyph unicode="&#xb8;" horiz-adv-x="942" d="M158 -371q0 11 9 16t18 6t26 1h4q285 0 285 125q0 32 -19.5 49.5t-43 20.5t-43 11t-19.5 25q0 7 26 113q7 33 17.5 41t46.5 8h22q28 0 39 -6t11 -23q0 -11 -29 -125q125 -26 125 -114q0 -52 -32.5 -86.5t-95 -52t-133.5 -24.5t-169 -7h-8q-37 0 -37 22z" />
<glyph unicode="&#xb9;" horiz-adv-x="942" d="M395 739q0 37 54 37h6q112 0 142 24q21 16 34 72q2 5 4 15l2 8l127 508q-41 -19 -94 -34t-90 -15q-52 0 -52 30q0 19 15 25t47.5 9t72.5 11t100 40t120 87q21 21 37 21q10 0 16 -8t6 -19q0 -4 -12 -51l-152 -606q-14 -61 -14 -78q0 -25 21.5 -32t62.5 -7h20q36 0 54 -5.5 t18 -25.5q0 -34 -51 -34v2l-330 2l-123 -4q-41 0 -41 28zM432 711h4h-4zM872 711h17h-17z" />
<glyph unicode="&#xba;" horiz-adv-x="942" d="M111 664q0 22 39 22h579q47 0 47 -24q0 -21 -39 -21h-583q-43 0 -43 23zM209 1040q0 126 65.5 247.5t171.5 197.5t216 76q116 0 188 -83.5t72 -213.5q0 -129 -66.5 -250t-172 -195t-214.5 -74q-116 0 -188 83t-72 212zM352 961q0 -91 37 -129.5t82 -38.5q83 0 166 102 q64 80 102.5 230t38.5 221q0 85 -35 126t-84 41q-43 0 -87.5 -29.5t-79.5 -74.5q-63 -81 -101.5 -229.5t-38.5 -218.5z" />
<glyph unicode="&#xbb;" horiz-adv-x="1150" d="M166 23q0 18 50.5 94.5t147 188t195.5 192.5v2q-79 112 -118.5 250.5t-39.5 205.5q0 29 21 29q12 0 20.5 -22.5t20 -65.5t30 -94t59.5 -119.5t99 -130.5q30 -32 36.5 -40t6.5 -17q0 -10 -23.5 -28t-69.5 -51.5t-102 -79.5t-133 -129t-151 -183q-13 -21 -31 -21 q-6 0 -12 5t-6 14zM479 23q0 14 32 65.5t83 119t127 148.5t151 142v2q-79 111 -118 249t-39 207q0 29 20 29q12 0 20.5 -22.5t20.5 -65.5t30 -94t59.5 -119.5t99.5 -130.5q30 -32 36.5 -40t6.5 -17q0 -10 -23.5 -28t-69.5 -51.5t-102 -79.5t-133.5 -129t-151.5 -183 q-13 -21 -30 -21q-19 0 -19 19z" />
<glyph unicode="&#xbc;" horiz-adv-x="942" d="M90 35q0 9 5 14.5t18.5 11t29.5 10.5t45 16t58 24q89 41 152 89t91 88t47.5 78t27.5 64.5t26 42.5t47 16q21 0 41 -12q27 15 49 15q25 0 40 -15t15 -39v-2q0 -11 -18 -83q-38 -149 -80 -320q59 0 94 2l35 2q24 0 33.5 -10t9.5 -21t-9.5 -18.5t-53.5 -14t-125 -6.5h-2 q-68 -286 -80 -315q-9 -21 -29 -35t-41 -14q-24 0 -40.5 14.5t-16.5 40.5q0 13 9 49t30 116t39 159q-105 22 -222 22h-16q-30 0 -74.5 -1t-58.5 -1q-41 0 -58.5 7t-17.5 26zM207 567q0 43 63 43h682q64 0 64 -43q0 -39 -62 -39h-688q-59 0 -59 39zM319 68q83 0 234 -25 l53 215l-17 -16q-17 -17 -24.5 -23.5t-28 -23.5t-39 -29t-46 -29t-61 -34t-71.5 -33v-2zM391 719q0 14 5.5 22t19 11.5t26.5 4t39.5 1t46.5 2.5q54 6 71.5 26.5t35.5 90.5l131 526q-113 -49 -186 -49q-52 0 -52 30q0 21 27 28.5t70 10.5t115.5 36t144.5 97q21 21 35 21 q9 0 15.5 -7.5t6.5 -19.5q0 -4 -12 -53l-154 -623q-16 -74 -16 -77q0 -14 7.5 -23t22.5 -12.5t28 -4.5t34 -1h12q54 0 64 -8q9 -8 8.5 -21t-8.5 -22q-10 -13 -35 -13q-6 0 -35.5 1t-81.5 2t-112 1q-71 0 -123.5 -1t-78 -2t-32.5 -1q-39 0 -39 27z" />
<glyph unicode="&#xbd;" horiz-adv-x="942" d="M74 -418q0 36 42.5 95t119.5 110q25 17 77.5 45.5t96.5 52t96.5 63.5t88.5 84t60.5 110t24.5 143q0 73 -42.5 116t-107.5 43q-103 0 -191 -107t-134 -274q-4 -16 -4 -26q0 -43 53 -43q60 0 118 58.5t58 117.5q0 17 -11 41t-11 31q0 18 20 18q19 0 35 -27.5t16 -60.5 q0 -30 -17 -68.5t-45.5 -74t-73 -60t-93.5 -24.5q-45 0 -81 21t-36 63q0 16 11 54t31.5 91t55.5 108t77.5 102.5t103 77.5t127.5 30q122 0 205 -75.5t83 -195.5q0 -68 -31.5 -126.5t-80 -99t-116 -81t-130 -70t-132.5 -68.5t-114 -75q33 0 158.5 -1t136.5 -1q33 0 54.5 2.5 t60.5 22.5t74 59q30 33 47 66t21 50.5t13 28.5t27 11q29 0 29 -27q0 -16 -12.5 -55t-40 -90.5t-64 -98.5t-91.5 -79.5t-116 -32.5q-47 0 -99.5 24.5t-100 49t-82.5 24.5q-32 0 -54.5 -15t-32.5 -33t-23 -33t-28 -15q-26 0 -26 24zM207 567q0 43 63 43h682q62 0 62 -43 q0 -39 -60 -39h-688q-59 0 -59 39zM389 719q0 14 5.5 22t19.5 11.5t27.5 4t40 1t46.5 2.5q53 6 70 26t35 91l133 526q-109 -49 -188 -49q-50 0 -50 30q0 16 11.5 23.5t32 8.5t53.5 7t70 16.5t88 40.5t102 76q21 21 35 21q9 0 15.5 -7.5t6.5 -19.5q0 -4 -12 -53l-156 -623 q-16 -74 -16 -77q0 -14 7.5 -23t23 -12.5t29 -4.5t34.5 -1h12q54 0 64 -8q9 -8 8.5 -21t-8.5 -22q-10 -13 -37 -13q-6 0 -35.5 1t-81.5 2t-112 1q-71 0 -123 -1t-77 -2t-32 -1q-41 0 -41 27z" />
<glyph unicode="&#xbe;" horiz-adv-x="942" d="M92 35q0 9 4.5 14.5t17 11t28 10t45.5 16.5t61 26q89 41 151.5 88.5t90.5 87.5t47.5 78t28 64t26.5 42t47 16q19 0 39 -12h2q27 15 47 15q25 0 40 -15t15 -39q0 -12 -9.5 -48t-35.5 -136.5t-53 -220.5q34 0 59.5 0.5t35.5 1.5t18 1.5t12 0.5q21 0 34 -10t13 -23 q0 -22 -35 -27q-82 -10 -155 -10q-68 -286 -80 -315q-9 -21 -29 -35t-41 -14q-24 0 -40.5 15.5t-16.5 39.5q0 13 9 49t30 116t39 159q-105 22 -226 22h-12q-56 0 -92 -0.5t-50 -1t-18 -0.5q-25 0 -36 10t-11 23zM207 567q0 43 63 43h682q64 0 64 -43q0 -39 -62 -39h-688 q-59 0 -59 39zM317 68q66 0 102.5 -4t133.5 -21l53 215l-5 -5q-108 -110 -284 -183v-2zM365 895q0 51 10.5 87.5t28 53.5t34 24t35.5 7q29 0 49.5 -19.5t20.5 -48.5q0 -32 -26.5 -64t-84.5 -32h-6q0 -64 15.5 -109t42.5 -65.5t52 -28.5t54 -8q62 0 121.5 30t93.5 81 q28 41 42.5 96.5t14.5 93.5q0 105 -135 105h-49q-17 0 -24.5 0.5t-16 7t-8.5 20.5q0 35 53 35h49q68 0 119 21.5t78 51t43 68t20 64.5t4 49q0 57 -39.5 88t-101.5 31q-120 0 -207.5 -66t-87.5 -131q0 -31 15.5 -41.5t48 -21.5t57.5 -35h2q27 21 45 21q21 0 21 -25 q0 -8 -2.5 -17.5t-16 -20.5t-35.5 -11q-19 0 -30.5 4.5t-15 10.5t-9.5 13t-14 11q-3 2 -28 8t-45.5 14t-39 31t-18.5 57q0 90 106.5 168t257.5 78q115 0 189.5 -55.5t74.5 -143.5q0 -79 -63 -150t-174 -112q127 -59 127 -176q0 -85 -67 -155.5t-163 -107t-190 -36.5 q-64 0 -111 24t-71 63t-34.5 79.5t-10.5 83.5z" />
<glyph unicode="&#xbf;" d="M170 -190q0 84 37 161.5t94 134.5q27 28 195.5 162t183.5 150q43 47 43 108q0 34 -15 51t-40 17q-39 0 -84.5 -36t-67.5 -89l-3.5 -10.5t-4.5 -13t-6 -9.5q-12 -13 -32.5 -9.5t-20.5 24.5q0 19 16.5 50.5t44.5 63t71.5 54t90.5 22.5q57 0 90 -39.5t33 -101.5 q0 -50 -19 -97.5t-47 -80.5q-20 -24 -210 -175q-47 -37 -75 -59q-1 -1 -22.5 -17t-34.5 -27.5t-37.5 -34t-40 -45t-32 -51t-25 -62t-8.5 -68.5q0 -78 48 -129t126 -51q118 0 222 100.5t171 273.5q-76 2 -76 66q0 38 31 68t68 30q30 0 49.5 -18t19.5 -47q0 -24 -14.5 -69.5 t-41.5 -104t-70 -118.5t-94.5 -111t-121.5 -83t-145 -32q-109 0 -177.5 71t-68.5 181zM639 895q0 47 40 88t91 41q39 0 64.5 -25.5t25.5 -62.5q0 -50 -40.5 -89.5t-90.5 -39.5q-38 0 -64 24.5t-26 63.5z" />
<glyph unicode="&#xc0;" horiz-adv-x="1521" d="M121 29q0 22 13.5 28.5t40 9t58 11.5t74 47.5t82.5 105.5l670 1180q2 3 7.5 12.5t9.5 15t11.5 13t16.5 11t20 3.5q7 0 12.5 -1.5t9.5 -3.5t7 -6.5t4.5 -7.5t2.5 -9.5t1.5 -9t1 -10t0.5 -9.5l88 -1272q3 -46 23.5 -59t83.5 -15h7.5h8h7.5t7.5 -0.5t6.5 -1.5t6 -2.5t5 -3.5 t4 -5t2 -6.5t1 -8.5q0 -13 -9.5 -24t-31.5 -11q-10 0 -73.5 3t-137.5 3q-70 0 -122 -1.5t-77.5 -3t-29.5 -1.5q-14 0 -22.5 9t-8.5 20q0 21 17 28.5t40 6.5t54 5.5t53 24.5q16 14 16 56q0 13 -3 49.5t-8.5 113t-10.5 158.5h-467q-18 -32 -40 -70.5t-35 -60t-28.5 -49 t-23.5 -42t-17.5 -32.5t-14 -28.5t-8.5 -21.5t-5.5 -19t-1.5 -15q0 -29 17.5 -44.5t38.5 -18.5t38.5 -10t17.5 -21q0 -39 -41 -39q-5 0 -28.5 1.5t-64.5 3t-89 1.5q-39 0 -86.5 -3t-54.5 -3q-25 0 -35 6t-10 23zM629 532h426l-45 670zM918 1708q0 25 22.5 50.5t52.5 25.5 q23 0 54 -23q45 -34 111 -84q89 -67 104.5 -80.5t15.5 -25.5t-9.5 -23.5t-23.5 -11.5q-7 0 -104 41q-93 40 -170 72q-53 21 -53 59z" />
<glyph unicode="&#xc1;" horiz-adv-x="1521" d="M121 29q0 22 13.5 28.5t40 9t58 11.5t74 47.5t82.5 105.5l670 1180q2 3 7.5 12.5t9.5 15t11.5 13t16.5 11t20 3.5q7 0 12.5 -1.5t9.5 -3.5t7 -6.5t4.5 -7.5t2.5 -9.5t1.5 -9t1 -10t0.5 -9.5l88 -1272q3 -46 23.5 -59t83.5 -15h7.5h8h7.5t7.5 -0.5t6.5 -1.5t6 -2.5t5 -3.5 t4 -5t2 -6.5t1 -8.5q0 -13 -9.5 -24t-31.5 -11q-10 0 -73.5 3t-137.5 3q-70 0 -122 -1.5t-77.5 -3t-29.5 -1.5q-14 0 -22.5 9t-8.5 20q0 21 17 28.5t40 6.5t54 5.5t53 24.5q16 14 16 56q0 13 -3 49.5t-8.5 113t-10.5 158.5h-467q-18 -32 -40 -70.5t-35 -60t-28.5 -49 t-23.5 -42t-17.5 -32.5t-14 -28.5t-8.5 -21.5t-5.5 -19t-1.5 -15q0 -29 17.5 -44.5t38.5 -18.5t38.5 -10t17.5 -21q0 -39 -41 -39q-5 0 -28.5 1.5t-64.5 3t-89 1.5q-39 0 -86.5 -3t-54.5 -3q-25 0 -35 6t-10 23zM629 532h426l-45 670zM973 1567v2q0 13 14 24q21 14 184 103 l119 65q35 21 60 21t40 -17.5t15 -40.5q0 -22 -13 -38t-26 -22.5t-35 -14.5q-125 -43 -249 -87q-51 -18 -64 -22t-19 -4q-26 0 -26 31z" />
<glyph unicode="&#xc2;" horiz-adv-x="1521" d="M121 29q0 22 13.5 28.5t40 9t58 11.5t74 47.5t82.5 105.5l670 1180q2 3 7.5 12.5t9.5 15t11.5 13t16.5 11t20 3.5q7 0 12.5 -1.5t9.5 -3.5t7 -6.5t4.5 -7.5t2.5 -9.5t1.5 -9t1 -10t0.5 -9.5l88 -1272q3 -46 23.5 -59t83.5 -15h7.5h8h7.5t7.5 -0.5t6.5 -1.5t6 -2.5t5 -3.5 t4 -5t2 -6.5t1 -8.5q0 -13 -9.5 -24t-31.5 -11q-10 0 -73.5 3t-137.5 3q-70 0 -122 -1.5t-77.5 -3t-29.5 -1.5q-14 0 -22.5 9t-8.5 20q0 21 17 28.5t40 6.5t54 5.5t53 24.5q16 14 16 56q0 13 -3 49.5t-8.5 113t-10.5 158.5h-467q-18 -32 -40 -70.5t-35 -60t-28.5 -49 t-23.5 -42t-17.5 -32.5t-14 -28.5t-8.5 -21.5t-5.5 -19t-1.5 -15q0 -29 17.5 -44.5t38.5 -18.5t38.5 -10t17.5 -21q0 -39 -41 -39q-5 0 -28.5 1.5t-64.5 3t-89 1.5q-39 0 -86.5 -3t-54.5 -3q-25 0 -35 6t-10 23zM629 532h426l-45 670zM887 1546q0 13 24 37q56 51 138 124 q111 101 132.5 118.5t32.5 17.5q23 0 58 -63q96 -156 115.5 -189.5t19.5 -42.5q0 -12 -11.5 -21t-23.5 -9t-27.5 18.5t-75.5 100.5q-13 19 -21 30t-22.5 30.5t-27.5 37.5q-8 -6 -244 -197l-8 -6q-7 -5 -15.5 -9.5t-15.5 -4.5q-12 0 -20 8t-8 20z" />
<glyph unicode="&#xc3;" horiz-adv-x="1521" d="M121 29q0 22 13.5 28.5t40 9t58 11.5t74 47.5t82.5 105.5l670 1180q2 3 7.5 12.5t9.5 15t11.5 13t16.5 11t20 3.5q7 0 12.5 -1.5t9.5 -3.5t7 -6.5t4.5 -7.5t2.5 -9.5t1.5 -9t1 -10t0.5 -9.5l88 -1272q3 -46 23.5 -59t83.5 -15h7.5h8h7.5t7.5 -0.5t6.5 -1.5t6 -2.5t5 -3.5 t4 -5t2 -6.5t1 -8.5q0 -13 -9.5 -24t-31.5 -11q-10 0 -73.5 3t-137.5 3q-70 0 -122 -1.5t-77.5 -3t-29.5 -1.5q-14 0 -22.5 9t-8.5 20q0 21 17 28.5t40 6.5t54 5.5t53 24.5q16 14 16 56q0 13 -3 49.5t-8.5 113t-10.5 158.5h-467q-18 -32 -40 -70.5t-35 -60t-28.5 -49 t-23.5 -42t-17.5 -32.5t-14 -28.5t-8.5 -21.5t-5.5 -19t-1.5 -15q0 -29 17.5 -44.5t38.5 -18.5t38.5 -10t17.5 -21q0 -39 -41 -39q-5 0 -28.5 1.5t-64.5 3t-89 1.5q-39 0 -86.5 -3t-54.5 -3q-25 0 -35 6t-10 23zM629 532h426l-45 670zM813 1661q0 15 18 33q136 131 238 131 q39 0 78 -17.5t66 -39t61.5 -39t66.5 -17.5q33 0 71 18t58.5 33.5t51.5 42.5q14 13 26 14.5t17.5 -4t5.5 -14.5q0 -15 -39 -53.5t-102 -74.5t-115 -36q-39 0 -78 17.5t-66 39t-63 39t-68 17.5q-43 0 -87.5 -27.5t-76.5 -54.5t-45 -27q-7 0 -12.5 5.5t-5.5 13.5z" />
<glyph unicode="&#xc4;" horiz-adv-x="1521" d="M121 29q0 22 13.5 28.5t40 9t58 11.5t74 47.5t82.5 105.5l670 1180q2 3 7.5 12.5t9.5 15t11.5 13t16.5 11t20 3.5q7 0 12.5 -1.5t9.5 -3.5t7 -6.5t4.5 -7.5t2.5 -9.5t1.5 -9t1 -10t0.5 -9.5l88 -1272q3 -46 23.5 -59t83.5 -15h7.5h8h7.5t7.5 -0.5t6.5 -1.5t6 -2.5t5 -3.5 t4 -5t2 -6.5t1 -8.5q0 -13 -9.5 -24t-31.5 -11q-10 0 -73.5 3t-137.5 3q-70 0 -122 -1.5t-77.5 -3t-29.5 -1.5q-14 0 -22.5 9t-8.5 20q0 21 17 28.5t40 6.5t54 5.5t53 24.5q16 14 16 56q0 13 -3 49.5t-8.5 113t-10.5 158.5h-467q-18 -32 -40 -70.5t-35 -60t-28.5 -49 t-23.5 -42t-17.5 -32.5t-14 -28.5t-8.5 -21.5t-5.5 -19t-1.5 -15q0 -29 17.5 -44.5t38.5 -18.5t38.5 -10t17.5 -21q0 -39 -41 -39q-5 0 -28.5 1.5t-64.5 3t-89 1.5q-39 0 -86.5 -3t-54.5 -3q-25 0 -35 6t-10 23zM629 532h426l-45 670zM897 1698q0 47 39 87t90 40 q38 0 64 -24.5t26 -63.5q0 -47 -40 -87t-91 -40q-39 0 -63.5 25.5t-24.5 62.5zM1262 1698q0 47 40 88t91 41q39 0 63.5 -25.5t24.5 -62.5q0 -47 -40 -88t-91 -41q-39 0 -63.5 25.5t-24.5 62.5z" />
<glyph unicode="&#xc5;" horiz-adv-x="1521" d="M121 29q0 22 15 28.5t51 11t63 17.5q34 15 64 45t47 56t42 69l666 1171q-96 36 -96 154q0 111 80 200t172 89q66 0 103.5 -46t37.5 -114q0 -92 -59.5 -174.5t-145.5 -108.5q4 -38 8 -118l74 -1065q1 -18 3 -48q2 -40 3 -55.5t7 -35t10 -24t20.5 -10.5t31 -6.5t47.5 -1.5 h1q47 0 47 -28q0 -35 -41 -35q-7 0 -34.5 1.5t-76 3t-106.5 1.5q-75 0 -146 -2l-71 -2q-37 0 -37 25q0 21 18.5 29t45 8.5t53 4t45 21.5t18.5 53q0 16 -3 51.5t-8.5 112.5t-10.5 164h-467q-155 -273 -166 -298q-8 -19 -8 -38q0 -30 17.5 -46t38.5 -19t38.5 -11.5t17.5 -25.5 q0 -13 -10.5 -23t-30.5 -10q-5 0 -28.5 1.5t-65 3t-90.5 1.5q-39 0 -84 -2t-55 -2q-25 0 -35 6t-10 21zM629 532h426l-45 670zM1032 1565q0 -45 25 -71t69 -26q41 0 74.5 21.5t53 52.5t32.5 68t18 66t5 50q0 46 -25.5 71.5t-71.5 25.5q-53 0 -92 -33.5t-56.5 -82 t-24.5 -84.5t-7 -58z" />
<glyph unicode="&#xc6;" horiz-adv-x="1808" d="M121 29q0 23 18 30t44.5 7t68.5 19t80 60q32 35 69 99l633 1089q-14 0 -38.5 1t-37.5 1h-28q-47 0 -47 29q0 13 11.5 24t37.5 11h964q22 0 34 -7t12 -28l-52 -395q-5 -31 -32 -31q-17 0 -23 8.5t-6 28.5q0 11 7 66t7 100q0 52 -11 87t-30.5 56.5t-56.5 32.5t-77.5 14.5 t-104.5 3.5h-144q-61 0 -78 -12q-14 -10 -19 -24q-12 -26 -98 -374q-7 -30 -14 -57q-38 -150 -41 -163h146q61 0 95 5.5t65.5 25t50.5 57t37 102.5q9 47 39 47q28 0 28 -29q0 -10 -57 -238.5t-60 -238.5q-8 -33 -34 -33q-9 0 -19 7t-10 20q0 11 10 55.5t10 69.5q0 29 -11 47 t-35 26t-47.5 10.5t-63.5 2.5h-158q-135 -528 -135 -551q0 -18 12 -22.5t47 -4.5h154q65 0 115 4.5t93 19.5t72.5 27.5t60 46t49 56.5t45 77t42 89.5t47.5 110.5q13 32 39 32q11 0 20 -7t9 -17q0 -8 -40 -103q-20 -49 -34.5 -83.5t-46.5 -112.5t-66 -162q-11 -26 -20 -33.5 t-33 -7.5h-835q-39 0 -45 16q-8 24 8 37q8 8 62.5 10.5t74.5 24.5q14 15 71 249q43 173 76 304h-299q-54 -94 -134 -230q-97 -167 -120.5 -211t-23.5 -65q0 -35 21.5 -51t50 -21.5t32.5 -9.5q8 -8 8 -18q0 -13 -10.5 -24t-29.5 -11q-10 0 -64 3t-117 3q-40 0 -87 -2t-56 -2 q-26 0 -36.5 6t-10.5 21zM735 705h279l131 526q10 42 10 55q0 21 -13 30.5t-44 12.5z" />
<glyph unicode="&#xc7;" horiz-adv-x="1464" d="M305 502q0 174 76 347.5t196 303t277 210.5t311 81q211 0 308 -174q32 36 76 87q54 63 65.5 74t23.5 11q7 0 14 -6.5t7 -18.5q0 -8 -127 -516q-10 -43 -35 -43q-11 0 -22 7t-11 22l4 37q5 36 5 84q0 74 -16.5 138.5t-50 118t-91 84.5t-133.5 31q-147 0 -286.5 -94.5 t-227.5 -234.5q-82 -130 -132.5 -313t-50.5 -316q0 -88 21.5 -159t56.5 -115.5t81.5 -74.5t93.5 -42.5t96 -12.5q167 0 315.5 130.5t208.5 318.5q1 2 2.5 8t2.5 8t3 7t3 7t3.5 5.5t5 5t5.5 3.5t7 2.5t9 0.5q11 0 19.5 -7t8.5 -20q0 -21 -16.5 -64t-47 -99t-79.5 -115.5 t-108 -111.5t-139.5 -90t-166.5 -48l-16 -68q125 -31 125 -114q0 -32 -13.5 -58t-36 -43.5t-56 -30t-68 -20t-79 -11.5t-81.5 -5.5t-82 -1.5h-10q-17 0 -24.5 0.5t-15 4t-9.5 11.5q-4 11 5.5 20t37.5 9h39q260 6 260 127q0 25 -18.5 43t-45.5 26q-7 2 -21.5 4t-21 4 t-12.5 8.5t-6 18.5q0 15 16 76q-200 29 -316 177t-116 366z" />
<glyph unicode="&#xc8;" horiz-adv-x="1388" d="M127 25q0 18 8 27t17 10t30 1q70 0 102.5 8t44.5 24t21 55l275 1097q8 31 8 47q0 12 -4 18t-31.5 11.5t-83.5 5.5q-34 0 -44.5 4t-10.5 23q0 18 7.5 26t16.5 9.5t31 1.5h956q35 0 44.5 -8.5t5.5 -45.5l-47 -362q-3 -29 -8.5 -37t-26.5 -8q-31 0 -31 24q0 15 4 35 q10 82 10 131q0 114 -56 160.5t-216 46.5h-256q-54 0 -70.5 -10t-27.5 -59l-125 -504h166q121 0 167 38.5t76 151.5q11 40 18 45q6 4 21 4q33 0 33 -24q0 -9 -6 -27l-113 -450q-6 -27 -12.5 -34t-24.5 -7q-32 0 -32 24q0 3 2 12t2 11q18 66 18 104q0 31 -9 48t-43.5 28.5 t-101.5 11.5h-178l-141 -563q0 -1 -4 -19.5t-4 -25.5q0 -9 2.5 -12.5t16.5 -6t44 -2.5h250q61 0 110.5 5.5t91 20t73.5 31t61 46t50 56.5t45 73t41.5 84t43.5 100q13 35 19.5 42t23.5 7q31 0 31 -22q0 -9 -8 -25l-182 -448q-11 -23 -19 -28t-39 -5h-981q-20 0 -28.5 1 t-15.5 6.5t-7 17.5zM920 1708q0 28 23 52t52 24q5 0 9.5 -1l9 -2t11 -5l13 -8t17.5 -12l22 -16t28.5 -21.5t35 -26.5t44.5 -33.5t54 -40.5q41 -31 41 -47q0 -12 -9.5 -23.5t-23.5 -11.5q-10 0 -276 113q-51 20 -51 59z" />
<glyph unicode="&#xc9;" horiz-adv-x="1388" d="M127 25q0 18 8 27t17 10t30 1q70 0 102.5 8t44.5 24t21 55l275 1097q8 31 8 47q0 12 -4 18t-31.5 11.5t-83.5 5.5q-34 0 -44.5 4t-10.5 23q0 18 7.5 26t16.5 9.5t31 1.5h956q35 0 44.5 -8.5t5.5 -45.5l-47 -362q-3 -29 -8.5 -37t-26.5 -8q-31 0 -31 24q0 15 4 35 q10 82 10 131q0 114 -56 160.5t-216 46.5h-256q-54 0 -70.5 -10t-27.5 -59l-125 -504h166q121 0 167 38.5t76 151.5q11 40 18 45q6 4 21 4q33 0 33 -24q0 -9 -6 -27l-113 -450q-6 -27 -12.5 -34t-24.5 -7q-32 0 -32 24q0 3 2 12t2 11q18 66 18 104q0 31 -9 48t-43.5 28.5 t-101.5 11.5h-178l-141 -563q0 -1 -4 -19.5t-4 -25.5q0 -9 2.5 -12.5t16.5 -6t44 -2.5h250q61 0 110.5 5.5t91 20t73.5 31t61 46t50 56.5t45 73t41.5 84t43.5 100q13 35 19.5 42t23.5 7q31 0 31 -22q0 -9 -8 -25l-182 -448q-11 -23 -19 -28t-39 -5h-981q-20 0 -28.5 1 t-15.5 6.5t-7 17.5zM997 1567v1q0 12 6.5 18.5t56.5 35.5t146 81q22 11 34.5 18t34.5 19t42 23q35 21 59 21q25 0 40.5 -17.5t15.5 -40.5q0 -31 -20.5 -48t-53.5 -29q-110 -38 -230 -80q-93 -33 -102 -33q-13 0 -21 9t-8 22z" />
<glyph unicode="&#xca;" horiz-adv-x="1388" d="M127 25q0 18 8 27t17 10t30 1q70 0 102.5 8t44.5 24t21 55l275 1097q8 31 8 47q0 12 -4 18t-31.5 11.5t-83.5 5.5q-34 0 -44.5 4t-10.5 23q0 18 7.5 26t16.5 9.5t31 1.5h956q35 0 44.5 -8.5t5.5 -45.5l-47 -362q-3 -29 -8.5 -37t-26.5 -8q-31 0 -31 24q0 15 4 35 q10 82 10 131q0 114 -56 160.5t-216 46.5h-256q-54 0 -70.5 -10t-27.5 -59l-125 -504h166q121 0 167 38.5t76 151.5q11 40 18 45q6 4 21 4q33 0 33 -24q0 -9 -6 -27l-113 -450q-6 -27 -12.5 -34t-24.5 -7q-32 0 -32 24q0 3 2 12t2 11q18 66 18 104q0 31 -9 48t-43.5 28.5 t-101.5 11.5h-178l-141 -563q0 -1 -4 -19.5t-4 -25.5q0 -9 2.5 -12.5t16.5 -6t44 -2.5h250q61 0 110.5 5.5t91 20t73.5 31t61 46t50 56.5t45 73t41.5 84t43.5 100q13 35 19.5 42t23.5 7q31 0 31 -22q0 -9 -8 -25l-182 -448q-11 -23 -19 -28t-39 -5h-981q-20 0 -28.5 1 t-15.5 6.5t-7 17.5zM834 1546q0 11 26 37q56 51 138 124q111 101 132.5 118.5t32.5 17.5q23 0 58 -63q65 -105 94 -154t34 -60t5 -18q0 -12 -10.5 -21t-22.5 -9t-27.5 18.5t-75.5 100.5q-13 19 -21 30t-22.5 30.5t-27.5 37.5q-8 -6 -244 -197l-7 -6q-8 -5 -16.5 -9.5 t-15.5 -4.5q-12 0 -21 8t-9 20z" />
<glyph unicode="&#xcb;" horiz-adv-x="1388" d="M127 25q0 18 8 27t17 10t30 1q70 0 102.5 8t44.5 24t21 55l275 1097q8 31 8 47q0 12 -4 18t-31.5 11.5t-83.5 5.5q-34 0 -44.5 4t-10.5 23q0 18 7.5 26t16.5 9.5t31 1.5h956q35 0 44.5 -8.5t5.5 -45.5l-47 -362q-3 -29 -8.5 -37t-26.5 -8q-31 0 -31 24q0 15 4 35 q10 82 10 131q0 114 -56 160.5t-216 46.5h-256q-54 0 -70.5 -10t-27.5 -59l-125 -504h166q121 0 167 38.5t76 151.5q11 40 18 45q6 4 21 4q33 0 33 -24q0 -9 -6 -27l-113 -450q-6 -27 -12.5 -34t-24.5 -7q-32 0 -32 24q0 3 2 12t2 11q18 66 18 104q0 31 -9 48t-43.5 28.5 t-101.5 11.5h-178l-141 -563q0 -1 -4 -19.5t-4 -25.5q0 -9 2.5 -12.5t16.5 -6t44 -2.5h250q61 0 110.5 5.5t91 20t73.5 31t61 46t50 56.5t45 73t41.5 84t43.5 100q13 35 19.5 42t23.5 7q31 0 31 -22q0 -9 -8 -25l-182 -448q-11 -23 -19 -28t-39 -5h-981q-20 0 -28.5 1 t-15.5 6.5t-7 17.5zM846 1698q0 47 39 87t90 40q38 0 64 -24.5t26 -63.5q0 -47 -40 -87t-91 -40q-39 0 -63.5 25.5t-24.5 62.5zM1208 1698q0 47 41 87t92 40q39 0 64 -24.5t25 -61.5q0 -50 -41 -89.5t-91 -39.5q-39 0 -64.5 25.5t-25.5 62.5z" />
<glyph unicode="&#xcc;" horiz-adv-x="788" d="M117 27q0 26 12 31t49 5q100 0 130 15.5t42 68.5l279 1115q6 18 6 38q0 9 -4 15t-14.5 9.5t-19.5 6t-27 3.5t-29.5 1h-34.5q-34 0 -44.5 4t-10.5 23q0 37 38 37q42 0 128 -3t128 -3t126.5 3t125.5 3q29 0 29 -25q0 -19 -8 -27.5t-18.5 -10t-36.5 -1.5q-71 0 -104 -8 t-45 -23.5t-21 -52.5l-277 -1106q-8 -31 -8 -45t4.5 -20.5t33 -11.5t89.5 -5q20 0 27 -0.5t16 -2.5t11.5 -7t2.5 -14q0 -39 -41 -39t-126.5 3t-127.5 3t-126.5 -3t-125.5 -3q-28 0 -28 27zM580 1708q0 25 22.5 50.5t52.5 25.5q23 0 54 -23q45 -34 111 -84 q89 -67 104.5 -80.5t15.5 -25.5t-9.5 -23.5t-23.5 -11.5q-7 0 -104 41q-93 40 -170 72q-53 21 -53 59z" />
<glyph unicode="&#xcd;" horiz-adv-x="788" d="M117 27q0 26 12 31t49 5q100 0 130 15.5t42 68.5l279 1115q6 18 6 38q0 9 -4 15t-14.5 9.5t-19.5 6t-27 3.5t-29.5 1h-34.5q-34 0 -44.5 4t-10.5 23q0 37 38 37q42 0 128 -3t128 -3t126.5 3t125.5 3q29 0 29 -25q0 -19 -8 -27.5t-18.5 -10t-36.5 -1.5q-71 0 -104 -8 t-45 -23.5t-21 -52.5l-277 -1106q-8 -31 -8 -45t4.5 -20.5t33 -11.5t89.5 -5q20 0 27 -0.5t16 -2.5t11.5 -7t2.5 -14q0 -39 -41 -39t-126.5 3t-127.5 3t-126.5 -3t-125.5 -3q-28 0 -28 27zM592 1567q0 14 10 22q17 14 237 134q37 20 70 38q35 21 60 21t40 -17.5t15 -40.5 q0 -22 -13 -38t-26 -22.5t-35 -14.5q-125 -43 -249 -87q-51 -18 -64 -22t-19 -4q-26 0 -26 31z" />
<glyph unicode="&#xce;" horiz-adv-x="788" d="M117 27q0 26 12 31t49 5q100 0 130 15.5t42 68.5l279 1115q6 18 6 38q0 9 -4 15t-14.5 9.5t-19.5 6t-27 3.5t-29.5 1h-34.5q-34 0 -44.5 4t-10.5 23q0 37 38 37q42 0 128 -3t128 -3t126.5 3t125.5 3q29 0 29 -25q0 -19 -8 -27.5t-18.5 -10t-36.5 -1.5q-71 0 -104 -8 t-45 -23.5t-21 -52.5l-277 -1106q-8 -31 -8 -45t4.5 -20.5t33 -11.5t89.5 -5q20 0 27 -0.5t16 -2.5t11.5 -7t2.5 -14q0 -39 -41 -39t-126.5 3t-127.5 3t-126.5 -3t-125.5 -3q-28 0 -28 27zM522 1546q0 12 25 37q56 51 138 124q111 101 132.5 118.5t32.5 17.5q22 0 57 -63 q131 -215 134 -226q1 -3 1 -6q0 -12 -11 -21t-23 -9q-13 0 -30 20.5t-90 121.5q-10 15 -16.5 23.5t-17 23.5t-20.5 28q-8 -6 -244 -197l-8 -6q-7 -5 -15.5 -9.5t-15.5 -4.5q-12 0 -20.5 8.5t-8.5 19.5z" />
<glyph unicode="&#xcf;" horiz-adv-x="788" d="M117 27q0 26 12 31t49 5q100 0 130 15.5t42 68.5l279 1115q6 18 6 38q0 9 -4 15t-14.5 9.5t-19.5 6t-27 3.5t-29.5 1h-34.5q-34 0 -44.5 4t-10.5 23q0 37 38 37q42 0 128 -3t128 -3t126.5 3t125.5 3q29 0 29 -25q0 -19 -8 -27.5t-18.5 -10t-36.5 -1.5q-71 0 -104 -8 t-45 -23.5t-21 -52.5l-277 -1106q-8 -31 -8 -45t4.5 -20.5t33 -11.5t89.5 -5q20 0 27 -0.5t16 -2.5t11.5 -7t2.5 -14q0 -39 -41 -39t-126.5 3t-127.5 3t-126.5 -3t-125.5 -3q-28 0 -28 27zM530 1698q0 50 41 88.5t91 38.5q39 0 64.5 -25.5t25.5 -62.5q0 -47 -40 -87t-91 -40 q-39 0 -65 25.5t-26 62.5zM895 1698q0 47 40 88t91 41q39 0 63.5 -26t24.5 -62q0 -47 -40 -88t-91 -41q-37 0 -62.5 24.5t-25.5 63.5z" />
<glyph unicode="&#xd0;" horiz-adv-x="1546" d="M129 29q0 30 35.5 34t85.5 4.5t72 22.5q12 11 20.5 38.5t46.5 180.5q47 191 86 346q-15 0 -46 -1t-46 -1h-37q-29 0 -41 5t-12 24q0 37 61 37q6 0 18 -1t15 -1h105q17 75 54.5 219t62 243t24.5 115q0 25 -23 33t-63 8h-21q-48 0 -57 11q-8 12 -8 18q0 14 13 24.5t34 10.5 h631q102 0 182.5 -33.5t129 -85t80 -120.5t43 -133t11.5 -130q0 -121 -38 -248.5t-110.5 -243t-168 -206.5t-221 -145t-259.5 -54h-614q-23 0 -34 6t-11 23zM500 90q0 -18 14 -22.5t55 -4.5h199q81 0 155 24.5t130 65t96.5 82t71.5 87.5q80 117 137 317.5t57 339.5 q0 52 -9 99.5t-32.5 95.5t-61 82.5t-98.5 56.5t-139 22h-198q-51 0 -67 -22.5t-39 -117.5q-2 -8 -3 -12.5t-2.5 -12t-3.5 -13.5l-109 -440h297q56 0 56 -25q0 -11 -7 -20q-11 -19 -43 -19q-3 0 -8.5 1t-7.5 1h-303q-17 -76 -53 -216t-60 -237.5t-24 -111.5z" />
<glyph unicode="&#xd1;" horiz-adv-x="1521" d="M127 25q0 17 7 26t14 10.5t18 1.5q79 3 129 34t70 110l270 1085q6 20 6 27q0 16 -125 16q-23 0 -32.5 1t-16 6.5t-6.5 17.5q0 19 8 27.5t17 10t30 1.5h256q32 0 40 -5t17 -30l383 -1065l226 899q8 32 8 49q0 39 -25.5 62t-97.5 26q-37 0 -37 25q0 39 37 39q31 0 98.5 -3 t100.5 -3t99 3t97 3q27 0 27 -27q0 -16 -7 -25t-13 -10.5t-11 -1.5q-32 -1 -54.5 -4.5t-57 -16t-59 -42.5t-36.5 -76l-286 -1155q-7 -28 -14.5 -34.5t-26.5 -6.5q-21 0 -27 5.5t-14 29.5l-441 1222l-264 -1054q-8 -33 -8 -51q0 -16 3 -27t13.5 -26.5t37 -25t67.5 -10.5 q15 0 22 -1t12 -7t5 -18q0 -17 -7.5 -26t-14 -10t-15.5 -1q-31 0 -99.5 3t-101.5 3q-32 0 -98 -3t-96 -3q-27 0 -27 25zM813 1661q0 14 39 53t102 75t115 36q39 0 78 -17.5t66 -39t61.5 -39t66.5 -17.5q33 0 71 18t58.5 33.5t51.5 42.5q14 13 26 14.5t17.5 -4t5.5 -14.5 q0 -15 -39 -53.5t-102 -74.5t-115 -36q-39 0 -78 17.5t-66 39t-63 39t-68 17.5q-43 0 -87.5 -27.5t-76.5 -54.5t-45 -27q-7 0 -12.5 5.5t-5.5 13.5z" />
<glyph unicode="&#xd2;" horiz-adv-x="1568" d="M303 483q0 174 73.5 350t190.5 309.5t271.5 217.5t308.5 84q97 0 182 -37t148.5 -104t100 -169t36.5 -225q0 -144 -47.5 -288t-130.5 -262t-188.5 -210t-229 -143t-244.5 -51q-209 0 -340 148t-131 380zM487 420q0 -185 81.5 -298.5t219.5 -113.5q119 0 245.5 91 t223.5 257q80 137 131.5 319t51.5 320q0 194 -88.5 296t-218.5 102t-260 -96.5t-214 -245.5q-50 -88 -86.5 -188.5t-53.5 -187.5t-24.5 -149.5t-7.5 -105.5zM995 1708q0 28 22.5 52t51.5 24q5 0 9.5 -1l9 -2t11 -5l13 -8t17.5 -12l22 -16t28.5 -21.5t35 -26.5t44.5 -33.5 t54 -40.5q2 -1 7.5 -5t8.5 -6.5t7.5 -6.5t7.5 -7t6 -7t4.5 -7.5t1.5 -7.5q0 -12 -10.5 -23.5t-24.5 -11.5q-8 0 -274 113q-52 21 -52 59z" />
<glyph unicode="&#xd3;" horiz-adv-x="1568" d="M303 483q0 174 73.5 350t190.5 309.5t271.5 217.5t308.5 84q97 0 182 -37t148.5 -104t100 -169t36.5 -225q0 -144 -47.5 -288t-130.5 -262t-188.5 -210t-229 -143t-244.5 -51q-209 0 -340 148t-131 380zM487 420q0 -185 81.5 -298.5t219.5 -113.5q119 0 245.5 91 t223.5 257q80 137 131.5 319t51.5 320q0 194 -88.5 296t-218.5 102t-260 -96.5t-214 -245.5q-50 -88 -86.5 -188.5t-53.5 -187.5t-24.5 -149.5t-7.5 -105.5zM997 1567v2q0 13 14 23q20 14 174 98l130 71q35 21 59 21q25 0 40.5 -17.5t15.5 -40.5q0 -22 -13 -38t-26 -22.5 t-35 -14.5q-125 -43 -249 -87q-51 -18 -64 -22t-19 -4q-10 0 -17 6.5t-8.5 12.5t-1.5 12z" />
<glyph unicode="&#xd4;" horiz-adv-x="1568" d="M303 483q0 174 73.5 350t190.5 309.5t271.5 217.5t308.5 84q97 0 182 -37t148.5 -104t100 -169t36.5 -225q0 -144 -47.5 -288t-130.5 -262t-188.5 -210t-229 -143t-244.5 -51q-209 0 -340 148t-131 380zM487 420q0 -185 81.5 -298.5t219.5 -113.5q119 0 245.5 91 t223.5 257q80 137 131.5 319t51.5 320q0 194 -88.5 296t-218.5 102t-260 -96.5t-214 -245.5q-50 -88 -86.5 -188.5t-53.5 -187.5t-24.5 -149.5t-7.5 -105.5zM909 1546q0 4 1.5 8t5 8.5t6.5 7t7.5 7l6.5 6.5q56 51 138 124q111 101 132.5 118.5t32.5 17.5q22 0 57 -63 q99 -160 116.5 -191t17.5 -41q0 -12 -10.5 -21t-22.5 -9q-13 0 -30 20.5t-90 121.5q-33 46 -54 75q-8 -6 -244 -197l-7 -6q-8 -5 -16.5 -9.5t-15.5 -4.5q-12 0 -21.5 8t-9.5 20z" />
<glyph unicode="&#xd5;" horiz-adv-x="1568" d="M303 483q0 174 73.5 350t190.5 309.5t271.5 217.5t308.5 84q97 0 182 -37t148.5 -104t100 -169t36.5 -225q0 -144 -47.5 -288t-130.5 -262t-188.5 -210t-229 -143t-244.5 -51q-209 0 -340 148t-131 380zM487 420q0 -185 81.5 -298.5t219.5 -113.5q119 0 245.5 91 t223.5 257q80 137 131.5 319t51.5 320q0 194 -88.5 296t-218.5 102t-260 -96.5t-214 -245.5q-50 -88 -86.5 -188.5t-53.5 -187.5t-24.5 -149.5t-7.5 -105.5zM838 1661q0 14 38.5 53t101.5 75t116 36q39 0 77.5 -17.5t65.5 -39t63 -39t68 -17.5q33 0 68.5 17t59.5 37.5 t47 37.5t34 17q7 0 12.5 -5.5t5.5 -13.5q0 -13 -38.5 -52t-101.5 -75.5t-116 -36.5q-39 0 -78 17.5t-66.5 39t-63.5 39t-68 17.5q-43 0 -87.5 -27.5t-76.5 -54.5t-45 -27q-16 0 -16 19z" />
<glyph unicode="&#xd6;" horiz-adv-x="1568" d="M303 483q0 174 73.5 350t190.5 309.5t271.5 217.5t308.5 84q97 0 182 -37t148.5 -104t100 -169t36.5 -225q0 -144 -47.5 -288t-130.5 -262t-188.5 -210t-229 -143t-244.5 -51q-209 0 -340 148t-131 380zM487 420q0 -185 81.5 -298.5t219.5 -113.5q119 0 245.5 91 t223.5 257q80 137 131.5 319t51.5 320q0 194 -88.5 296t-218.5 102t-260 -96.5t-214 -245.5q-50 -88 -86.5 -188.5t-53.5 -187.5t-24.5 -149.5t-7.5 -105.5zM920 1698q0 47 39 87t90 40q39 0 64.5 -25.5t25.5 -62.5q0 -50 -40.5 -88.5t-90.5 -38.5q-39 0 -63.5 25.5 t-24.5 62.5zM1286 1698q0 47 40 88t91 41q39 0 63.5 -25.5t24.5 -62.5q0 -47 -40 -88t-91 -41q-39 0 -63.5 25.5t-24.5 62.5z" />
<glyph unicode="&#xd7;" horiz-adv-x="1568" d="M354 96q0 27 52 64l450 358v2l-266 352q-27 36 -27 56q0 14 11 25.5t28 11.5q8 0 14.5 -2t13 -8.5t9.5 -9t10 -12.5t8 -11q69 -93 124 -166.5t77.5 -102.5t38 -49t23.5 -33q25 19 144.5 114t227 181t111.5 88q15 11 29 11q16 0 26 -11.5t10 -27.5q0 -23 -45 -58 l-454 -362v-2q35 -43 266 -352q27 -36 27 -56q0 -16 -12 -26.5t-27 -10.5h-2q-17 0 -39.5 26.5t-148.5 196.5q-77 103 -128 171h-2q-13 -11 -27.5 -23t-47 -38l-72.5 -58t-123 -98t-180 -144q-40 -33 -60 -33q-15 0 -27 10.5t-12 26.5z" />
<glyph unicode="&#xd8;" horiz-adv-x="1568" d="M240 -96q0 10 10 22.5t106 122.5l62 70v2q-14 17 -28.5 39.5t-36.5 68t-36 112.5t-14 142q0 142 47.5 285.5t130.5 263t188.5 213.5t229.5 146.5t244 52.5q194 0 321 -127q4 5 9 11t16 18.5t25 28t41.5 47t60.5 69.5q1 1 6 6.5t7.5 8t7.5 6t9 5t9 1.5q9 0 15.5 -7 t6.5 -16q0 -12 -10.5 -25t-105.5 -122l-62 -70q1 -2 10.5 -15.5t16 -24t18.5 -32t20.5 -41t18.5 -49t16 -59.5t10.5 -68t4.5 -78q0 -144 -47.5 -288t-131 -262.5t-189.5 -210.5t-229.5 -143.5t-244.5 -51.5q-190 0 -317 127h-2q-125 -145 -152 -173t-39 -28q-9 0 -15.5 7 t-6.5 16zM453 399q0 -62 6.5 -103t27.5 -97l916 1048q-39 66 -108 109t-162 43q-116 0 -223.5 -63t-188.5 -158q-72 -84 -127.5 -201t-84 -228t-42.5 -200.5t-14 -149.5zM512 150q40 -66 109 -107t163 -41q34 0 73.5 7.5t99 28t127 70.5t126.5 123q68 83 120.5 197.5 t79.5 223t40.5 196.5t13.5 147q0 62 -6.5 104t-27.5 99z" />
<glyph unicode="&#xd9;" horiz-adv-x="1521" d="M414 340q0 65 16 131l197 791q8 29 8 38q0 23 -29 29t-90 6q-23 0 -32.5 1t-16 6.5t-6.5 17.5q0 18 8 27.5t14.5 10.5t16.5 1q40 0 122 -3t123 -3q40 0 121.5 3t120.5 3q29 0 29 -27q0 -26 -12.5 -31.5t-49.5 -5.5q-94 0 -121.5 -15t-39.5 -67l-205 -823 q-21 -95 -21 -156q0 -129 64.5 -192.5t154.5 -63.5q96 0 193.5 57t174 161.5t108.5 232.5l182 729q8 32 8 49q0 39 -25.5 62t-97.5 26q-37 0 -37 25q0 39 37 39q31 0 97.5 -3t99.5 -3q32 0 97 3t95 3q27 0 27 -27q0 -16 -7 -25t-13 -10.5t-11 -1.5q-32 -1 -54.5 -4.5 t-57 -16t-59 -42.5t-36.5 -76l-186 -750q-21 -85 -72 -171.5t-121.5 -158t-163 -116.5t-186.5 -45q-152 0 -258 104t-106 281zM973 1708q0 26 22 51t52 25q24 0 55 -23q205 -156 218 -168q11 -11 11 -22q0 -12 -9.5 -23.5t-23.5 -11.5q-6 0 -71 28q-100 43 -201 85 q-53 21 -53 59z" />
<glyph unicode="&#xda;" horiz-adv-x="1521" d="M414 340q0 65 16 131l197 791q8 29 8 38q0 23 -29 29t-90 6q-23 0 -32.5 1t-16 6.5t-6.5 17.5q0 18 8 27.5t14.5 10.5t16.5 1q40 0 122 -3t123 -3q40 0 121.5 3t120.5 3q29 0 29 -27q0 -26 -12.5 -31.5t-49.5 -5.5q-94 0 -121.5 -15t-39.5 -67l-205 -823 q-21 -95 -21 -156q0 -129 64.5 -192.5t154.5 -63.5q96 0 193.5 57t174 161.5t108.5 232.5l182 729q8 32 8 49q0 39 -25.5 62t-97.5 26q-37 0 -37 25q0 39 37 39q31 0 97.5 -3t99.5 -3q32 0 97 3t95 3q27 0 27 -27q0 -16 -7 -25t-13 -10.5t-11 -1.5q-32 -1 -54.5 -4.5 t-57 -16t-59 -42.5t-36.5 -76l-186 -750q-21 -85 -72 -171.5t-121.5 -158t-163 -116.5t-186.5 -45q-152 0 -258 104t-106 281zM1053 1567v2q0 13 14 24q21 14 184 103l119 65q35 21 60 21t40 -17.5t15 -40.5q0 -22 -13 -38t-26 -22.5t-35 -14.5q-125 -43 -249 -87 q-51 -18 -64 -22t-19 -4q-26 0 -26 31z" />
<glyph unicode="&#xdb;" horiz-adv-x="1521" d="M414 340q0 65 16 131l197 791q8 29 8 38q0 23 -29 29t-90 6q-23 0 -32.5 1t-16 6.5t-6.5 17.5q0 18 8 27.5t14.5 10.5t16.5 1q40 0 122 -3t123 -3q40 0 121.5 3t120.5 3q29 0 29 -27q0 -26 -12.5 -31.5t-49.5 -5.5q-94 0 -121.5 -15t-39.5 -67l-205 -823 q-21 -95 -21 -156q0 -129 64.5 -192.5t154.5 -63.5q96 0 193.5 57t174 161.5t108.5 232.5l182 729q8 32 8 49q0 39 -25.5 62t-97.5 26q-37 0 -37 25q0 39 37 39q31 0 97.5 -3t99.5 -3q32 0 97 3t95 3q27 0 27 -27q0 -16 -7 -25t-13 -10.5t-11 -1.5q-32 -1 -54.5 -4.5 t-57 -16t-59 -42.5t-36.5 -76l-186 -750q-21 -85 -72 -171.5t-121.5 -158t-163 -116.5t-186.5 -45q-152 0 -258 104t-106 281zM911 1546q0 4 1.5 8t5 8.5t6.5 7t7.5 7l6.5 6.5q56 51 138 124q111 101 132.5 118.5t32.5 17.5q22 0 57 -63q97 -157 115.5 -189t18.5 -41 q0 -12 -10.5 -22t-22.5 -10t-27.5 18.5t-75.5 100.5q-13 19 -21 30t-22.5 30.5t-27.5 37.5q-8 -6 -244 -197l-7 -6q-8 -5 -16.5 -9.5t-15.5 -4.5q-12 0 -21.5 8t-9.5 20z" />
<glyph unicode="&#xdc;" horiz-adv-x="1521" d="M414 340q0 65 16 131l197 791q8 29 8 38q0 23 -29 29t-90 6q-23 0 -32.5 1t-16 6.5t-6.5 17.5q0 18 8 27.5t14.5 10.5t16.5 1q40 0 122 -3t123 -3q40 0 121.5 3t120.5 3q29 0 29 -27q0 -26 -12.5 -31.5t-49.5 -5.5q-94 0 -121.5 -15t-39.5 -67l-205 -823 q-21 -95 -21 -156q0 -129 64.5 -192.5t154.5 -63.5q96 0 193.5 57t174 161.5t108.5 232.5l182 729q8 32 8 49q0 39 -25.5 62t-97.5 26q-37 0 -37 25q0 39 37 39q31 0 97.5 -3t99.5 -3q32 0 97 3t95 3q27 0 27 -27q0 -16 -7 -25t-13 -10.5t-11 -1.5q-32 -1 -54.5 -4.5 t-57 -16t-59 -42.5t-36.5 -76l-186 -750q-21 -85 -72 -171.5t-121.5 -158t-163 -116.5t-186.5 -45q-152 0 -258 104t-106 281zM897 1698q0 47 39 87t90 40q38 0 64 -24.5t26 -63.5q0 -47 -40 -87t-91 -40q-39 0 -63.5 25.5t-24.5 62.5zM1264 1698q0 47 40 88t91 41 q39 0 63.5 -25.5t24.5 -62.5q0 -47 -40 -88t-91 -41q-39 0 -63.5 25.5t-24.5 62.5z" />
<glyph unicode="&#xdd;" horiz-adv-x="1521" d="M414 1360q0 18 8 27.5t14.5 10.5t16.5 1q34 0 106 -3t107 -3q40 0 120 3t119 3q29 0 29 -25q0 -14 -3.5 -22.5t-11 -12t-13.5 -4t-17 -0.5q-115 0 -115 -49q0 -6 8 -26l195 -615l448 547q0 1 6.5 9t13.5 17.5t14.5 22t12.5 25t5 22.5q0 43 -64 47q-31 0 -31 25 q0 18 7.5 27.5t14 10.5t15.5 1q30 0 94.5 -3t96.5 -3q26 0 78.5 3t76.5 3q25 0 25 -23q0 -18 -7 -27.5t-12.5 -10.5t-19.5 -3q-75 -6 -138.5 -44t-133.5 -124l-484 -587q-2 -3 -4 -5t-3.5 -4.5t-2.5 -4t-2.5 -5t-2 -5l-2 -6t-2 -7t-2.5 -9t-3 -10.5q-3 -13 -64 -252 q-39 -164 -39 -174q0 -23 29 -29t90 -6q20 0 26 -0.5t15 -2.5t11.5 -7t2.5 -14q0 -18 -8 -27.5t-14 -10.5t-16 -1q-39 0 -121.5 3t-122.5 3q-39 0 -119 -3t-119 -3q-28 0 -28 25q0 14 3 22.5t12 11.5t15 3.5t21 0.5l64.5 1.5t43 6.5t29.5 10.5t18 22t13.5 31.5t11.5 49 q94 367 94 375q0 11 -8 31l-217 684q-11 36 -36 48.5t-95 12.5q-18 0 -26.5 1t-15.5 6.5t-7 17.5zM1053 1567v2q0 13 14 24q21 14 184 103l119 65q35 21 60 21t40 -17.5t15 -40.5q0 -22 -13 -38t-26 -22.5t-35 -14.5q-125 -43 -249 -87q-51 -18 -64 -22t-19 -4q-26 0 -26 31 z" />
<glyph unicode="&#xde;" horiz-adv-x="1284" d="M131 29q0 24 18.5 30.5t55.5 6.5h22q21 0 36 1t28 6t21 8t16 15t12 19t10.5 28t9.5 33t10.5 44t12.5 52l242 969q10 42 10 55q0 24 -19.5 31.5t-54.5 7.5q-5 0 -16.5 -1t-16.5 -1q-21 0 -32.5 1.5t-21 8t-9.5 19.5q0 37 41 37h2q6 0 36.5 -1.5t83 -3t113.5 -1.5 q59 0 110 1t80.5 2t35.5 1q37 0 37 -25q0 -30 -34.5 -34.5t-83.5 -5.5t-71 -21q-9 -8 -14 -14.5t-9.5 -21t-8 -28t-12 -48.5t-17.5 -69h245q83 0 147.5 -25t102 -67.5t56 -93t18.5 -106.5q0 -98 -53 -196.5t-151.5 -173.5t-217.5 -97q-44 -9 -119 -9h-221q-61 -235 -61 -260 q0 -39 84 -39h24q24 0 33.5 -0.5t19 -7t9.5 -20.5t-10.5 -24.5t-30.5 -10.5q-6 0 -36.5 1.5t-83.5 3t-114 1.5q-81 0 -151.5 -2t-71.5 -2q-41 0 -41 27zM578 426h196q75 0 144 39t116 101t75 138t28 150q0 30 -4.5 58t-17.5 56.5t-32 50t-51.5 35t-73.5 13.5h-221z" />
<glyph unicode="&#xdf;" horiz-adv-x="1099" d="M-41 -291q0 47 29 82t73 35q30 0 50 -19t20 -47q0 -34 -25 -64t-73 -34q23 -35 59 -35q33 0 68 35q28 31 51 89t47.5 166.5t45 216.5t58.5 310t74 375q-14 0 -44 -1t-44 -1h-29q-50 0 -57 21q-3 14 4.5 27t26.5 16q8 1 17 1t20.5 -0.5t17.5 -0.5h101q15 89 24.5 138.5 t27.5 119t38.5 107.5t54 82t75.5 66t101.5 37t134.5 15q134 0 206.5 -69.5t72.5 -164.5q0 -63 -28.5 -131t-69 -124t-80.5 -106t-68.5 -94t-28.5 -71q0 -34 25.5 -75t55.5 -75t55.5 -87.5t25.5 -110.5q0 -77 -47 -160t-134 -142t-185 -59q-85 0 -142 42t-57 110 q0 41 22.5 67.5t55.5 26.5q22 0 36.5 -14t14.5 -37t-16.5 -44t-45.5 -28q20 -41 55.5 -59t73.5 -18q49 0 91 39t66 93t37 101.5t13 73.5q0 39 -16 73.5t-35 57.5t-35 65.5t-16 96.5q0 58 16.5 103.5t36 68.5t50 54t44.5 50q31 43 66 157.5t35 172.5q0 29 -7 56.5t-23.5 54.5 t-48 43t-75.5 16q-54 0 -111.5 -19.5t-91.5 -60.5q-45 -54 -112 -409q-3 -14 -4.5 -22t-4 -20.5t-4.5 -23.5q-125 -649 -155 -781q-56 -239 -118 -338q-28 -44 -67 -81q-69 -64 -141 -64q-57 0 -95 36t-38 93z" />
<glyph unicode="&#xe0;" d="M221 295q0 146 69.5 288.5t179 232t220.5 89.5q116 0 170 -121q2 9 5 17.5t11.5 25t25.5 27t40 10.5q20 0 37.5 -12t17.5 -41q0 -14 -8 -43l-139 -557q-14 -57 -14 -105q0 -16 1 -26t5.5 -25.5t16 -23.5t30.5 -8q25 0 46.5 20.5t38 59.5t28 75t24.5 88q9 34 14.5 40.5 t24.5 6.5q31 0 31 -20q0 -4 -7.5 -35.5t-22.5 -81t-32 -84.5q-27 -54 -61.5 -84.5t-87.5 -30.5q-58 0 -106 36.5t-64 107.5q-59 -72 -123.5 -108t-122.5 -36q-112 0 -180 91.5t-68 226.5zM360 205q0 -27 4.5 -54.5t15.5 -58.5t35 -50t58 -19q52 0 111.5 44.5t97.5 97.5 t47 89l96 387q6 18 6 27q0 71 -39 131.5t-102 60.5q-61 0 -125.5 -65.5t-103.5 -161.5q-31 -71 -66 -213.5t-35 -214.5zM561 1257q0 30 26 53t52 23q14 0 26.5 -7.5t18 -13.5t16.5 -20.5t11 -15.5q19 -26 38 -52.5t31.5 -43.5t25 -34.5t20 -27.5t14.5 -20.5t10.5 -16 t6.5 -11t4 -9t1 -6.5q0 -14 -11.5 -23.5t-23.5 -9.5h-2q-12 0 -139 104q-55 46 -92 76q-2 2 -7.5 7t-7.5 7.5t-6.5 8t-6.5 9.5t-3.5 10.5t-1.5 12.5z" />
<glyph unicode="&#xe1;" d="M221 295q0 146 69.5 288.5t179 232t220.5 89.5q116 0 170 -121q2 9 5 17.5t11.5 25t25.5 27t40 10.5q20 0 37.5 -12t17.5 -41q0 -14 -8 -43l-139 -557q-14 -57 -14 -105q0 -16 1 -26t5.5 -25.5t16 -23.5t30.5 -8q25 0 46.5 20.5t38 59.5t28 75t24.5 88q9 34 14.5 40.5 t24.5 6.5q31 0 31 -20q0 -4 -7.5 -35.5t-22.5 -81t-32 -84.5q-27 -54 -61.5 -84.5t-87.5 -30.5q-58 0 -106 36.5t-64 107.5q-59 -72 -123.5 -108t-122.5 -36q-112 0 -180 91.5t-68 226.5zM360 205q0 -27 4.5 -54.5t15.5 -58.5t35 -50t58 -19q52 0 111.5 44.5t97.5 97.5 t47 89l96 387q6 18 6 27q0 71 -39 131.5t-102 60.5q-61 0 -125.5 -65.5t-103.5 -161.5q-31 -71 -66 -213.5t-35 -214.5zM709 1053v1q0 12 15.5 27t100.5 83q30 24 49 39.5t56.5 45.5t73.5 60q28 24 55 24q23 0 40 -17t17 -40q0 -10 -2.5 -18.5t-8 -16t-10.5 -13t-12 -11 t-11.5 -8t-10.5 -5.5l-6 -4q-296 -171 -308 -176q-5 -2 -10 -2q-11 0 -19.5 10t-8.5 21z" />
<glyph unicode="&#xe2;" d="M221 295q0 146 69.5 288.5t179 232t220.5 89.5q116 0 170 -121q2 9 5 17.5t11.5 25t25.5 27t40 10.5q20 0 37.5 -12t17.5 -41q0 -14 -8 -43l-139 -557q-14 -57 -14 -105q0 -16 1 -26t5.5 -25.5t16 -23.5t30.5 -8q25 0 46.5 20.5t38 59.5t28 75t24.5 88q9 34 14.5 40.5 t24.5 6.5q31 0 31 -20q0 -4 -7.5 -35.5t-22.5 -81t-32 -84.5q-27 -54 -61.5 -84.5t-87.5 -30.5q-58 0 -106 36.5t-64 107.5q-59 -72 -123.5 -108t-122.5 -36q-112 0 -180 91.5t-68 226.5zM360 205q0 -27 4.5 -54.5t15.5 -58.5t35 -50t58 -19q52 0 111.5 44.5t97.5 97.5 t47 89l96 387q6 18 6 27q0 71 -39 131.5t-102 60.5q-61 0 -125.5 -65.5t-103.5 -161.5q-31 -71 -66 -213.5t-35 -214.5zM510 991q0 11 16 28q14 15 230 216q8 7 19 17.5t17 16t13.5 12t12 10t9.5 7t9 4.5t8 1q13 0 25 -17t66 -112q48 -85 83 -146q12 -24 12 -33 q0 -12 -10.5 -22t-22.5 -10q-14 0 -28 18.5t-76 110.5q-54 77 -68 102l-243 -209q-22 -22 -41 -22q-11 0 -21 8.5t-10 19.5z" />
<glyph unicode="&#xe3;" d="M221 295q0 146 69.5 288.5t179 232t220.5 89.5q116 0 170 -121q2 9 5 17.5t11.5 25t25.5 27t40 10.5q20 0 37.5 -12t17.5 -41q0 -14 -8 -43l-139 -557q-14 -57 -14 -105q0 -16 1 -26t5.5 -25.5t16 -23.5t30.5 -8q25 0 46.5 20.5t38 59.5t28 75t24.5 88q9 34 14.5 40.5 t24.5 6.5q31 0 31 -20q0 -4 -7.5 -35.5t-22.5 -81t-32 -84.5q-27 -54 -61.5 -84.5t-87.5 -30.5q-58 0 -106 36.5t-64 107.5q-59 -72 -123.5 -108t-122.5 -36q-112 0 -180 91.5t-68 226.5zM360 205q0 -27 4.5 -54.5t15.5 -58.5t35 -50t58 -19q52 0 111.5 44.5t97.5 97.5 t47 89l96 387q6 18 6 27q0 71 -39 131.5t-102 60.5q-61 0 -125.5 -65.5t-103.5 -161.5q-31 -71 -66 -213.5t-35 -214.5zM428 1098q0 14 45 58t108.5 84t104.5 40q29 0 50.5 -13.5t34.5 -32t24.5 -37.5t27.5 -32.5t37 -13.5q26 0 60.5 20t61 43.5t51 43.5t34.5 20 q9 0 14.5 -6.5t5.5 -14.5q0 -14 -44.5 -57.5t-108 -84t-105.5 -40.5q-29 0 -50.5 13.5t-34.5 32.5t-24.5 38.5t-27.5 33t-37 13.5q-34 0 -78.5 -32t-80 -63.5t-47.5 -31.5q-9 0 -15 5.5t-6 13.5z" />
<glyph unicode="&#xe4;" d="M221 295q0 146 69.5 288.5t179 232t220.5 89.5q116 0 170 -121q2 9 5 17.5t11.5 25t25.5 27t40 10.5q20 0 37.5 -12t17.5 -41q0 -14 -8 -43l-139 -557q-14 -57 -14 -105q0 -16 1 -26t5.5 -25.5t16 -23.5t30.5 -8q25 0 46.5 20.5t38 59.5t28 75t24.5 88q9 34 14.5 40.5 t24.5 6.5q31 0 31 -20q0 -4 -7.5 -35.5t-22.5 -81t-32 -84.5q-27 -54 -61.5 -84.5t-87.5 -30.5q-58 0 -106 36.5t-64 107.5q-59 -72 -123.5 -108t-122.5 -36q-112 0 -180 91.5t-68 226.5zM360 205q0 -27 4.5 -54.5t15.5 -58.5t35 -50t58 -19q52 0 111.5 44.5t97.5 97.5 t47 89l96 387q6 18 6 27q0 71 -39 131.5t-102 60.5q-61 0 -125.5 -65.5t-103.5 -161.5q-31 -71 -66 -213.5t-35 -214.5zM541 1221q0 47 40 88t91 41q39 0 63.5 -25.5t24.5 -62.5q0 -50 -40.5 -89.5t-90.5 -39.5q-37 0 -62.5 24.5t-25.5 63.5zM907 1221q0 47 39 87t90 40 q38 0 64 -24.5t26 -63.5q0 -47 -40 -87t-91 -40q-39 0 -63.5 25.5t-24.5 62.5z" />
<glyph unicode="&#xe5;" d="M221 295q0 146 69.5 288.5t179 232t220.5 89.5q116 0 170 -121q2 9 5 17.5t11.5 25t25.5 27t40 10.5q20 0 37.5 -12t17.5 -41q0 -14 -8 -43l-139 -557q-14 -57 -14 -105q0 -16 1 -26t5.5 -25.5t16 -23.5t30.5 -8q25 0 46.5 20.5t38 59.5t28 75t24.5 88q9 34 14.5 40.5 t24.5 6.5q31 0 31 -20q0 -4 -7.5 -35.5t-22.5 -81t-32 -84.5q-27 -54 -61.5 -84.5t-87.5 -30.5q-58 0 -106 36.5t-64 107.5q-59 -72 -123.5 -108t-122.5 -36q-112 0 -180 91.5t-68 226.5zM360 205q0 -27 4.5 -54.5t15.5 -58.5t35 -50t58 -19q52 0 111.5 44.5t97.5 97.5 t47 89l96 387q6 18 6 27q0 71 -39 131.5t-102 60.5q-61 0 -125.5 -65.5t-103.5 -161.5q-31 -71 -66 -213.5t-35 -214.5zM575 1155q0 76 71 137.5t161 61.5q64 0 107.5 -36.5t43.5 -94.5q0 -76 -70.5 -137.5t-160.5 -61.5q-64 0 -108 36.5t-44 94.5zM637 1147q0 -78 100 -78 q42 0 73 14t47 33t25.5 44t12 41t2.5 30q0 76 -100 76q-46 0 -79.5 -16.5t-50 -43t-23.5 -51.5t-7 -49z" />
<glyph unicode="&#xe6;" horiz-adv-x="1464" d="M221 301q0 115 42 227.5t108.5 194t150.5 132t166 50.5q101 0 165 -91q3 -4 17 -26q6 26 7.5 33.5t9 28.5t14.5 29t20.5 16t30.5 8q22 0 34.5 -15.5t12.5 -31.5q0 -13 -10 -59q140 108 275 108q87 0 145.5 -48.5t58.5 -125.5q0 -17 -3 -35.5t-16 -50t-36 -57t-68 -52 t-106 -40.5q-113 -25 -305 -25h-27q-28 -122 -28 -199q0 -115 46.5 -182t123.5 -67q63 0 146 39.5t159 138.5q1 1 10.5 14.5t17 20t15.5 6.5q10 0 19 -9t9 -22q0 -19 -31 -56.5t-80 -77.5t-121.5 -70t-143.5 -30q-111 0 -178.5 73.5t-86.5 180.5q0 -1 -13.5 -21.5t-23 -34.5 t-30 -40t-38.5 -45t-44 -42t-51 -37t-56 -24t-61 -10q-109 0 -177.5 91t-68.5 233zM360 213q0 -47 8.5 -86.5t35 -71.5t67.5 -32q63 0 138.5 70.5t133.5 185.5q12 23 18.5 37t10 26t4 16.5t2 19t2.5 23.5q8 70 34 165t26 114q0 18 -7 44.5t-22 58.5t-47 53.5t-74 21.5 q-49 0 -96.5 -36.5t-83.5 -88.5q-61 -87 -105.5 -261t-44.5 -259zM920 518q49 0 84.5 1t88 5.5t90.5 13t80.5 24.5t68.5 38t43.5 56t17.5 77q0 54 -36.5 89.5t-94.5 35.5q-102 0 -199.5 -90t-142.5 -250z" />
<glyph unicode="&#xe7;" horiz-adv-x="942" d="M211 -371q0 23 43 23h35q66 1 115.5 9.5t77 21.5t44.5 31t22 33t5 32q0 32 -19.5 49t-43 20t-43 10.5t-19.5 22.5q0 7 25 105q-83 21 -137 77.5t-73.5 118.5t-19.5 131q0 145 75 283t196.5 223.5t248.5 85.5q92 0 155 -49.5t63 -126.5q0 -61 -32.5 -92t-70.5 -31 q-31 0 -50.5 18.5t-19.5 47.5q0 11 4 24.5t14 30.5t32 29.5t53 15.5q-20 41 -57.5 63.5t-85.5 22.5q-76 0 -142 -49t-108.5 -122.5t-73 -161t-44 -163t-13.5 -129.5q0 -142 100 -198q16 10 41 10h45q23 0 39 -16q68 15 124 43t89 56t57.5 54.5t40 43t25.5 16.5h2 q24 -4 24 -27q0 -19 -22 -47q-126 -154 -348 -188l-23 -89q125 -26 125 -114q0 -38 -17.5 -67t-51 -46.5t-71 -29.5t-89.5 -17.5t-94.5 -7.5t-96.5 -2h-12q-43 0 -43 22z" />
<glyph unicode="&#xe8;" horiz-adv-x="942" d="M233 336q0 104 32 197.5t85 160t119.5 115t136.5 72.5t135 24q95 0 151 -50.5t56 -123.5q0 -10 -1 -21.5t-9.5 -40t-24 -52.5t-48.5 -52t-79 -47q-113 -45 -297 -45h-79q-35 -138 -35 -225q0 -36 6 -70t21 -71.5t48 -60.5t80 -23q17 0 37.5 2t63.5 13t83 30.5t91 60 t94 94.5q18 23 27 23q11 0 21.5 -12t10.5 -21q0 -10 -19 -36t-58 -60.5t-89 -65.5t-121 -52.5t-145 -21.5q-93 0 -161.5 52t-100 132t-31.5 175zM422 518h43q25 0 44.5 0.5t64.5 4.5t79.5 11.5t77.5 24t71.5 38.5t48 57.5t19.5 80.5q0 54 -34.5 89.5t-94.5 35.5q-9 0 -20 -1 t-36.5 -8t-50 -19.5t-56 -38t-58.5 -60.5t-53.5 -90.5t-44.5 -124.5zM508 1257q0 30 26 53t52 23q14 0 26.5 -7t18 -13.5t15.5 -20.5t11 -16q24 -33 47.5 -65.5t37.5 -51.5t27 -37t19.5 -27.5t12 -18t7 -13t1.5 -8.5q0 -14 -11.5 -23.5t-23.5 -9.5h-2q-12 0 -139 104 q-55 46 -92 76q-2 2 -7.5 7t-7.5 7.5t-6.5 8t-6.5 9.5t-3.5 10.5t-1.5 12.5z" />
<glyph unicode="&#xe9;" horiz-adv-x="942" d="M233 336q0 104 32 197.5t85 160t119.5 115t136.5 72.5t135 24q95 0 151 -50.5t56 -123.5q0 -10 -1 -21.5t-9.5 -40t-24 -52.5t-48.5 -52t-79 -47q-113 -45 -297 -45h-79q-35 -138 -35 -225q0 -36 6 -70t21 -71.5t48 -60.5t80 -23q17 0 37.5 2t63.5 13t83 30.5t91 60 t94 94.5q18 23 27 23q11 0 21.5 -12t10.5 -21q0 -10 -19 -36t-58 -60.5t-89 -65.5t-121 -52.5t-145 -21.5q-93 0 -161.5 52t-100 132t-31.5 175zM422 518h43q25 0 44.5 0.5t64.5 4.5t79.5 11.5t77.5 24t71.5 38.5t48 57.5t19.5 80.5q0 54 -34.5 89.5t-94.5 35.5q-9 0 -20 -1 t-36.5 -8t-50 -19.5t-56 -38t-58.5 -60.5t-53.5 -90.5t-44.5 -124.5zM657 1053v1q0 12 15.5 27t100.5 83q30 24 49 39.5t56.5 45.5t73.5 60q28 24 56 24q23 0 40 -17t17 -40q0 -10 -2.5 -18.5t-8 -16t-10.5 -13t-12 -11t-11.5 -8t-10.5 -5.5l-6 -4q-296 -171 -308 -176 q-5 -2 -10 -2q-12 0 -20.5 10t-8.5 21z" />
<glyph unicode="&#xea;" horiz-adv-x="942" d="M233 336q0 104 32 197.5t85 160t119.5 115t136.5 72.5t135 24q95 0 151 -50.5t56 -123.5q0 -10 -1 -21.5t-9.5 -40t-24 -52.5t-48.5 -52t-79 -47q-113 -45 -297 -45h-79q-35 -138 -35 -225q0 -36 6 -70t21 -71.5t48 -60.5t80 -23q17 0 37.5 2t63.5 13t83 30.5t91 60 t94 94.5q18 23 27 23q11 0 21.5 -12t10.5 -21q0 -10 -19 -36t-58 -60.5t-89 -65.5t-121 -52.5t-145 -21.5q-93 0 -161.5 52t-100 132t-31.5 175zM422 518h43q25 0 44.5 0.5t64.5 4.5t79.5 11.5t77.5 24t71.5 38.5t48 57.5t19.5 80.5q0 54 -34.5 89.5t-94.5 35.5q-9 0 -20 -1 t-36.5 -8t-50 -19.5t-56 -38t-58.5 -60.5t-53.5 -90.5t-44.5 -124.5zM457 991q0 13 24 37t221 207q6 6 15 14t14 12.5t12 11t10.5 9.5t9 7t8.5 6t7 4.5t7 3t6 0.5q4 0 7.5 -1t7 -4t6.5 -5.5t6.5 -7.5t5.5 -8.5t5.5 -10t5.5 -10.5l5.5 -11t5.5 -10q32 -55 74 -128 q44 -75 51.5 -89.5t7.5 -22.5q0 -12 -11.5 -22t-23.5 -10q-14 0 -28 18.5t-76 110.5q-54 77 -68 102l-246 -209q-22 -22 -39 -22q-11 0 -20.5 8t-9.5 20z" />
<glyph unicode="&#xeb;" horiz-adv-x="942" d="M233 336q0 104 32 197.5t85 160t119.5 115t136.5 72.5t135 24q95 0 151 -50.5t56 -123.5q0 -10 -1 -21.5t-9.5 -40t-24 -52.5t-48.5 -52t-79 -47q-113 -45 -297 -45h-79q-35 -138 -35 -225q0 -36 6 -70t21 -71.5t48 -60.5t80 -23q17 0 37.5 2t63.5 13t83 30.5t91 60 t94 94.5q18 23 27 23q11 0 21.5 -12t10.5 -21q0 -10 -19 -36t-58 -60.5t-89 -65.5t-121 -52.5t-145 -21.5q-93 0 -161.5 52t-100 132t-31.5 175zM422 518h43q25 0 44.5 0.5t64.5 4.5t79.5 11.5t77.5 24t71.5 38.5t48 57.5t19.5 80.5q0 54 -34.5 89.5t-94.5 35.5q-9 0 -20 -1 t-36.5 -8t-50 -19.5t-56 -38t-58.5 -60.5t-53.5 -90.5t-44.5 -124.5zM487 1221q0 50 40.5 89.5t90.5 39.5q39 0 64 -25.5t25 -62.5q0 -47 -40.5 -88t-91.5 -41q-39 0 -63.5 25.5t-24.5 62.5zM852 1221q0 50 40.5 89.5t90.5 39.5q39 0 64.5 -25.5t25.5 -62.5 q0 -50 -40.5 -89.5t-90.5 -39.5q-38 0 -64 24.5t-26 63.5z" />
<glyph unicode="&#xec;" horiz-adv-x="626" d="M170 590q0 6 8.5 36.5t29 78.5t48.5 92t75 76t101 32q63 0 108.5 -42.5t45.5 -121.5q0 -40 -25 -114l-131 -351q-2 -5 -10 -27.5t-10 -28.5t-8.5 -25t-8.5 -26.5l-6 -22.5t-5.5 -24t-3 -20.5t-1.5 -21.5q0 -19 4.5 -31.5t12.5 -17.5t14 -6.5t14 -1.5q121 0 190 256 q6 24 10.5 29t24.5 5q31 0 31 -20q0 -6 -8 -36t-28.5 -78.5t-48.5 -93t-74.5 -76.5t-100.5 -32q-75 0 -115.5 49t-40.5 115q0 29 7 54t30 88q53 143 76 202l61 170q37 103 37 148q0 57 -45 57q-122 0 -190 -258q-6 -22 -11.5 -27.5t-25.5 -5.5q-31 0 -31 21zM352 1257 q0 31 25 53.5t51 22.5q27 0 48.5 -24.5t115.5 -155.5q5 -6 16.5 -21.5t17 -23.5t13 -19.5t11 -19.5t3.5 -14q0 -14 -11.5 -23.5t-23.5 -9.5q-9 0 -23 10.5t-88 71.5q-21 17 -34 28t-37.5 31t-48.5 39q-1 1 -5.5 5t-5.5 5t-5 4.5t-5.5 5.5t-4 5.5t-4 6.5t-3 7t-2 8t-0.5 8z " />
<glyph unicode="&#xed;" horiz-adv-x="626" d="M170 590q0 6 8.5 36.5t29 78.5t48.5 92t75 76t101 32q63 0 108.5 -42.5t45.5 -121.5q0 -40 -25 -114l-131 -351q-2 -5 -10 -27.5t-10 -28.5t-8.5 -25t-8.5 -26.5l-6 -22.5t-5.5 -24t-3 -20.5t-1.5 -21.5q0 -19 4.5 -31.5t12.5 -17.5t14 -6.5t14 -1.5q121 0 190 256 q6 24 10.5 29t24.5 5q31 0 31 -20q0 -6 -8 -36t-28.5 -78.5t-48.5 -93t-74.5 -76.5t-100.5 -32q-75 0 -115.5 49t-40.5 115q0 29 7 54t30 88q53 143 76 202l61 170q37 103 37 148q0 57 -45 57q-122 0 -190 -258q-6 -22 -11.5 -27.5t-25.5 -5.5q-31 0 -31 21zM500 1053v1 q0 12 15.5 27t100.5 83q30 24 49 39.5t56.5 45.5t73.5 60q28 24 55 24q23 0 40 -17t17 -40q0 -10 -2.5 -18.5t-8 -16t-10.5 -13t-12 -11t-11.5 -8t-10.5 -5.5l-6 -4q-296 -171 -308 -176q-5 -2 -10 -2q-11 0 -19.5 10t-8.5 21z" />
<glyph unicode="&#xee;" horiz-adv-x="626" d="M170 590q0 6 8.5 36.5t29 78.5t48.5 92t75 76t101 32q63 0 108.5 -42.5t45.5 -121.5q0 -40 -25 -114l-131 -351q-2 -5 -10 -27.5t-10 -28.5t-8.5 -25t-8.5 -26.5l-6 -22.5t-5.5 -24t-3 -20.5t-1.5 -21.5q0 -19 4.5 -31.5t12.5 -17.5t14 -6.5t14 -1.5q121 0 190 256 q6 24 10.5 29t24.5 5q31 0 31 -20q0 -6 -8 -36t-28.5 -78.5t-48.5 -93t-74.5 -76.5t-100.5 -32q-75 0 -115.5 49t-40.5 115q0 29 7 54t30 88q53 143 76 202l61 170q37 103 37 148q0 57 -45 57q-122 0 -190 -258q-6 -22 -11.5 -27.5t-25.5 -5.5q-31 0 -31 21zM240 991 q0 14 28 41.5t215 202.5q8 7 19 17.5t17 16t13.5 12t12 10t9.5 7t9 4.5t8 1q11 0 22.5 -12t18 -23.5t17.5 -32.5q20 -35 51 -89q79 -143 80 -153q0 -12 -11.5 -21t-23.5 -9t-23.5 14t-47.5 68q-6 9 -9.5 14.5t-9.5 15t-12 17.5q-54 77 -68 102l-246 -209q-22 -22 -41 -22 q-11 0 -19.5 8t-8.5 20z" />
<glyph unicode="&#xef;" horiz-adv-x="626" d="M170 590q0 6 8.5 36.5t29 78.5t48.5 92t75 76t101 32q63 0 108.5 -42.5t45.5 -121.5q0 -40 -25 -114l-131 -351q-2 -5 -10 -27.5t-10 -28.5t-8.5 -25t-8.5 -26.5l-6 -22.5t-5.5 -24t-3 -20.5t-1.5 -21.5q0 -19 4.5 -31.5t12.5 -17.5t14 -6.5t14 -1.5q121 0 190 256 q6 24 10.5 29t24.5 5q31 0 31 -20q0 -6 -8 -36t-28.5 -78.5t-48.5 -93t-74.5 -76.5t-100.5 -32q-75 0 -115.5 49t-40.5 115q0 29 7 54t30 88q53 143 76 202l61 170q37 103 37 148q0 57 -45 57q-122 0 -190 -258q-6 -22 -11.5 -27.5t-25.5 -5.5q-31 0 -31 21zM330 1223 q0 47 40 87t91 40q39 0 64.5 -25.5t25.5 -62.5q0 -53 -42 -91t-89 -38q-39 0 -64.5 26.5t-25.5 63.5zM696 1221q0 50 40.5 89.5t90.5 39.5q39 0 63.5 -25.5t24.5 -62.5q0 -47 -40 -88t-91 -41q-39 0 -63.5 25.5t-24.5 62.5z" />
<glyph unicode="&#xf0;" d="M197 313q0 146 81.5 287t209 228t257.5 87q120 0 183 -112q-12 118 -45.5 204.5t-100.5 180.5l-282 -144l-17 48l267 133q-88 98 -220 161q44 31 58 31q13 0 51.5 -14t100.5 -48t112 -77l287 143l14 -47l-262 -131q201 -204 201 -512q0 -170 -62 -348 q-63 -175 -209.5 -290.5t-304.5 -115.5q-141 0 -230 95t-89 241zM342 242q0 -49 12.5 -87.5t31.5 -61.5t45 -38t50 -20.5t49 -5.5q100 0 195 84q52 47 92 123.5t60 154.5t29 139.5t9 102.5q0 108 -49 172.5t-129 64.5q-72 0 -137.5 -39.5t-112.5 -103.5 q-66 -89 -105.5 -249.5t-39.5 -235.5z" />
<glyph unicode="&#xf1;" horiz-adv-x="1150" d="M170 590q0 4 8 36t24.5 83t33.5 88q28 52 62 80t85 28q67 0 114.5 -44t57.5 -118q11 16 24.5 32.5t41.5 41t59 43t75.5 32t92.5 13.5q41 0 76 -10t67.5 -33t51 -66.5t18.5 -103.5q0 -124 -125 -456l-8 -24l-9 -27t-7.5 -25t-6.5 -27t-4 -25t-2 -26q0 -18 2 -29 t12.5 -20.5t30.5 -9.5q117 0 191 256q6 25 10.5 29.5t23.5 4.5q31 0 31 -20q0 -6 -8.5 -36.5t-29 -78.5t-48.5 -92.5t-74.5 -76.5t-99.5 -32q-71 0 -113.5 47t-42.5 117q0 31 6 53.5t27 77.5q119 336 119 453q0 135 -94 135q-157 0 -277 -203q-25 -42 -32.5 -62.5 t-28.5 -102.5q-5 -22 -16.5 -66.5t-16.5 -67.5l-82 -327q-10 -27 -31 -40.5t-43 -13.5q-28 0 -42.5 17t-14.5 37q0 10 6 28l154 615q14 58 14 104q0 82 -53 82q-44 0 -76 -62t-63 -182q-7 -34 -13 -40.5t-26 -6.5q-31 0 -31 21zM537 1098q0 14 45 58t108.5 84t104.5 40 q29 0 50.5 -13.5t34.5 -32t24.5 -37.5t27.5 -32.5t37 -13.5q26 0 60.5 20t61 43.5t51 43.5t34.5 20q9 0 14.5 -6.5t5.5 -14.5q0 -14 -44.5 -57.5t-108 -84t-105.5 -40.5q-29 0 -50.5 13.5t-34.5 32.5t-24.5 38.5t-27.5 33t-37 13.5q-34 0 -79 -32t-80.5 -63.5t-47.5 -31.5 q-9 0 -14.5 5.5t-5.5 13.5z" />
<glyph unicode="&#xf2;" d="M225 315q0 109 45.5 218t118 190t167 131.5t187.5 50.5q133 0 216 -94.5t83 -241.5t-76 -285t-196.5 -222.5t-245.5 -84.5q-131 0 -215 91.5t-84 246.5zM369 233q0 -104 45 -157t110 -53q73 0 145.5 58t118.5 146q46 86 78.5 217.5t32.5 204.5q0 93 -42.5 152t-115.5 59 q-63 0 -131 -48t-123 -138q-47 -79 -82.5 -219t-35.5 -222zM561 1257q0 30 25.5 53t50.5 23q11 0 21 -3.5t18.5 -11.5t13.5 -13.5t12.5 -16t8.5 -12.5q19 -26 38 -52.5t31.5 -43.5t25 -34.5t20 -27.5t14.5 -20.5t10.5 -16t6.5 -11t4 -9t1 -6.5q0 -14 -11.5 -23.5t-23.5 -9.5 t-52.5 31.5t-180.5 148.5q-2 2 -7.5 7t-7.5 7.5t-6.5 8t-6.5 9.5t-3.5 10.5t-1.5 12.5z" />
<glyph unicode="&#xf3;" d="M225 315q0 109 45.5 218t118 190t167 131.5t187.5 50.5q133 0 216 -94.5t83 -241.5t-76 -285t-196.5 -222.5t-245.5 -84.5q-131 0 -215 91.5t-84 246.5zM369 233q0 -104 45 -157t110 -53q73 0 145.5 58t118.5 146q46 86 78.5 217.5t32.5 204.5q0 93 -42.5 152t-115.5 59 q-63 0 -131 -48t-123 -138q-47 -79 -82.5 -219t-35.5 -222zM709 1053v1q0 12 15.5 27t100.5 83q30 24 49 39.5t56.5 45.5t73.5 60q28 24 55 24q23 0 40 -17t17 -40q0 -10 -2.5 -18.5t-8 -16t-10.5 -13t-12 -11t-11.5 -8t-10.5 -5.5l-6 -4q-296 -171 -308 -176q-5 -2 -10 -2 q-11 0 -19.5 10t-8.5 21z" />
<glyph unicode="&#xf4;" d="M225 315q0 109 45.5 218t118 190t167 131.5t187.5 50.5q133 0 216 -94.5t83 -241.5t-76 -285t-196.5 -222.5t-245.5 -84.5q-131 0 -215 91.5t-84 246.5zM369 233q0 -104 45 -157t110 -53q73 0 145.5 58t118.5 146q46 86 78.5 217.5t32.5 204.5q0 93 -42.5 152t-115.5 59 q-63 0 -131 -48t-123 -138q-47 -79 -82.5 -219t-35.5 -222zM510 991q0 13 26 39.5t218 204.5q8 7 19 17.5t17 16t13.5 12t12 10t9.5 7t9 4.5t8 1q14 0 27.5 -19.5t81.5 -138.5q13 -22 20.5 -35.5t21 -37t25.5 -44.5q12 -24 12 -33q0 -12 -11.5 -22t-23.5 -10t-23.5 14 t-47.5 68q-6 9 -9.5 14.5t-9.5 15t-12 17.5q-54 77 -68 102l-245 -209q-22 -22 -41 -22q-11 0 -20 8t-9 20z" />
<glyph unicode="&#xf5;" d="M225 315q0 109 45.5 218t118 190t167 131.5t187.5 50.5q133 0 216 -94.5t83 -241.5t-76 -285t-196.5 -222.5t-245.5 -84.5q-131 0 -215 91.5t-84 246.5zM369 233q0 -104 45 -157t110 -53q73 0 145.5 58t118.5 146q46 86 78.5 217.5t32.5 204.5q0 93 -42.5 152t-115.5 59 q-63 0 -131 -48t-123 -138q-47 -79 -82.5 -219t-35.5 -222zM479 1098q0 14 45 58t108.5 84t104.5 40q29 0 50.5 -13.5t34.5 -32t24.5 -37.5t27.5 -32.5t37 -13.5q26 0 60.5 20t61 43.5t51 43.5t34.5 20q9 0 15 -6.5t6 -14.5q0 -14 -44.5 -57.5t-108 -84t-105.5 -40.5 q-29 0 -50.5 13.5t-34.5 32.5t-24.5 38.5t-27.5 33t-37 13.5q-34 0 -79 -32t-80.5 -63.5t-47.5 -31.5q-9 0 -15 5.5t-6 13.5z" />
<glyph unicode="&#xf6;" d="M225 315q0 109 45.5 218t118 190t167 131.5t187.5 50.5q133 0 216 -94.5t83 -241.5t-76 -285t-196.5 -222.5t-245.5 -84.5q-131 0 -215 91.5t-84 246.5zM369 233q0 -104 45 -157t110 -53q73 0 145.5 58t118.5 146q46 86 78.5 217.5t32.5 204.5q0 93 -42.5 152t-115.5 59 q-63 0 -131 -48t-123 -138q-47 -79 -82.5 -219t-35.5 -222zM539 1221q0 47 40 88t91 41q39 0 63.5 -25.5t24.5 -62.5q0 -50 -40.5 -89.5t-90.5 -39.5q-37 0 -62.5 24.5t-25.5 63.5zM905 1221q0 47 39 87t90 40q38 0 64 -24.5t26 -63.5q0 -47 -40 -87t-91 -40 q-39 0 -63.5 25.5t-24.5 62.5z" />
<glyph unicode="&#xf7;" horiz-adv-x="1568" d="M287 512q0 14 5.5 23t16.5 12.5t20 4.5t23 1h1121q63 0 63 -41t-57 -41h-1133q-59 0 -59 41zM670 51q0 58 46 103t107 45q47 0 79 -29.5t32 -77.5q0 -56 -46.5 -102.5t-107.5 -46.5q-48 0 -79 31.5t-31 76.5zM891 932q0 57 45.5 103t105.5 46q47 0 79 -30t32 -78 q0 -56 -46 -103t-106 -47q-47 0 -78.5 30t-31.5 79z" />
<glyph unicode="&#xf8;" d="M139 -199q0 10 45.5 74.5t91.5 124.5l46 59q-86 93 -86 248q0 110 44 220t114 193t163 135t186 52h5q82 0 161 -53q163 221 173 233q13 13 24 13q8 0 13 -6t5 -15t-16.5 -33t-75.5 -104q-53 -71 -90 -121q1 -2 4 -5q82 -102 82 -241q0 -147 -74 -287.5t-192.5 -227.5 t-241.5 -87q-91 0 -164 54h-2q-28 -38 -72 -98q-78 -107 -95 -126.5t-29 -19.5q-19 0 -19 18zM354 248q0 -52 21 -117q11 14 30.5 42t22.5 32l408 551q22 31 22 39q0 22 -36 43.5t-81 21.5q-102 0 -202 -104q-65 -69 -109.5 -178t-60 -192t-15.5 -138zM397 84 q56 -64 125 -64q108 0 209 113q62 69 104.5 177t57 189.5t14.5 135.5q0 60 -16 115h-2l-492 -664v-2z" />
<glyph unicode="&#xf9;" horiz-adv-x="1099" d="M170 596q0 7 8.5 37.5t29.5 76.5t49.5 89t75 73.5t99.5 30.5q68 0 111 -47t43 -117q0 -41 -37 -142t-74 -221.5t-37 -207.5q0 -143 115 -143q44 0 85 21.5t67 52t41.5 54t19.5 35.5q3 9 6 26t4 22l137 548q0 1 2.5 11t5.5 19.5t9.5 22.5t15 22t22.5 15.5t31 6.5 q24 0 39 -15.5t15 -31.5q0 -31 -93 -396q-9 -37 -14.5 -58.5t-15 -58t-17.5 -69.5q-24 -108 -24 -146q0 -81 53 -81q35 0 63 42t42.5 92.5t28 96.5t22.5 51q9 6 20 6q12 0 20.5 -6.5t8.5 -19.5q-1 -9 -4 -24t-14 -55.5t-24.5 -75t-37 -72t-49.5 -56.5q-38 -27 -82 -27 q-50 0 -95.5 29t-66.5 94q-49 -57 -101 -90t-128 -33q-45 0 -83.5 10.5t-74 34.5t-56 69.5t-20.5 109.5q0 69 24.5 163t54.5 169.5t54.5 151.5t24.5 114q0 59 -47 59q-114 0 -186 -252q-11 -39 -35 -39q-11 0 -21 7t-10 22zM588 1257q0 27 24.5 51.5t53.5 24.5q14 0 26.5 -7 t18 -13.5t15.5 -20.5t11 -16q24 -33 47.5 -65.5t37.5 -51.5t27 -37t19.5 -27.5t12 -18t7 -13t1.5 -8.5q0 -14 -11.5 -23.5t-23.5 -9.5h-2q-9 0 -36.5 21.5t-194.5 158.5q-33 25 -33 55z" />
<glyph unicode="&#xfa;" horiz-adv-x="1099" d="M170 596q0 7 8.5 37.5t29.5 76.5t49.5 89t75 73.5t99.5 30.5q68 0 111 -47t43 -117q0 -41 -37 -142t-74 -221.5t-37 -207.5q0 -143 115 -143q44 0 85 21.5t67 52t41.5 54t19.5 35.5q3 9 6 26t4 22l137 548q0 1 2.5 11t5.5 19.5t9.5 22.5t15 22t22.5 15.5t31 6.5 q24 0 39 -15.5t15 -31.5q0 -31 -93 -396q-9 -37 -14.5 -58.5t-15 -58t-17.5 -69.5q-24 -108 -24 -146q0 -81 53 -81q35 0 63 42t42.5 92.5t28 96.5t22.5 51q9 6 20 6q12 0 20.5 -6.5t8.5 -19.5q-1 -9 -4 -24t-14 -55.5t-24.5 -75t-37 -72t-49.5 -56.5q-38 -27 -82 -27 q-50 0 -95.5 29t-66.5 94q-49 -57 -101 -90t-128 -33q-45 0 -83.5 10.5t-74 34.5t-56 69.5t-20.5 109.5q0 69 24.5 163t54.5 169.5t54.5 151.5t24.5 114q0 59 -47 59q-114 0 -186 -252q-11 -39 -35 -39q-11 0 -21 7t-10 22zM735 1053v1q0 12 15.5 27t100.5 83 q100 81 179 145q28 24 55 24q23 0 40.5 -17t17.5 -40q0 -10 -3 -19t-8 -16t-10 -12.5t-12.5 -11t-12 -8t-10 -6t-6.5 -3.5q-296 -172 -306 -176q-6 -2 -11 -2q-12 0 -20.5 10t-8.5 21z" />
<glyph unicode="&#xfb;" horiz-adv-x="1099" d="M170 596q0 7 8.5 37.5t29.5 76.5t49.5 89t75 73.5t99.5 30.5q68 0 111 -47t43 -117q0 -41 -37 -142t-74 -221.5t-37 -207.5q0 -143 115 -143q44 0 85 21.5t67 52t41.5 54t19.5 35.5q3 9 6 26t4 22l137 548q0 1 2.5 11t5.5 19.5t9.5 22.5t15 22t22.5 15.5t31 6.5 q24 0 39 -15.5t15 -31.5q0 -31 -93 -396q-9 -37 -14.5 -58.5t-15 -58t-17.5 -69.5q-24 -108 -24 -146q0 -81 53 -81q35 0 63 42t42.5 92.5t28 96.5t22.5 51q9 6 20 6q12 0 20.5 -6.5t8.5 -19.5q-1 -9 -4 -24t-14 -55.5t-24.5 -75t-37 -72t-49.5 -56.5q-38 -27 -82 -27 q-50 0 -95.5 29t-66.5 94q-49 -57 -101 -90t-128 -33q-45 0 -83.5 10.5t-74 34.5t-56 69.5t-20.5 109.5q0 69 24.5 163t54.5 169.5t54.5 151.5t24.5 114q0 59 -47 59q-114 0 -186 -252q-11 -39 -35 -39q-11 0 -21 7t-10 22zM537 991q0 13 24 37t221 207q11 10 25.5 24t21 20 t15 12.5t14 9t10.5 2.5q11 0 22.5 -12t18 -23.5t17.5 -32.5q101 -175 116 -202.5t15 -37.5q0 -12 -10.5 -22t-22.5 -10q-14 0 -28 18.5t-76 110.5q-54 77 -68 102l-246 -209q-22 -22 -39 -22q-11 0 -20.5 8t-9.5 20z" />
<glyph unicode="&#xfc;" horiz-adv-x="1099" d="M170 596q0 7 8.5 37.5t29.5 76.5t49.5 89t75 73.5t99.5 30.5q68 0 111 -47t43 -117q0 -41 -37 -142t-74 -221.5t-37 -207.5q0 -143 115 -143q44 0 85 21.5t67 52t41.5 54t19.5 35.5q3 9 6 26t4 22l137 548q0 1 2.5 11t5.5 19.5t9.5 22.5t15 22t22.5 15.5t31 6.5 q24 0 39 -15.5t15 -31.5q0 -31 -93 -396q-9 -37 -14.5 -58.5t-15 -58t-17.5 -69.5q-24 -108 -24 -146q0 -81 53 -81q35 0 63 42t42.5 92.5t28 96.5t22.5 51q12 10 30.5 5t18.5 -23t-29 -111q-13 -43 -25.5 -72.5t-34 -62t-52 -49.5t-70.5 -17q-50 0 -95.5 29t-66.5 94 q-49 -57 -101 -90t-128 -33q-45 0 -83.5 10.5t-74 34.5t-56 69.5t-20.5 109.5q0 69 24.5 163t54.5 169.5t54.5 151.5t24.5 114q0 59 -47 59q-114 0 -186 -252q-11 -39 -35 -39q-11 0 -21 7t-10 22zM565 1221q0 50 40.5 89.5t90.5 39.5q39 0 64.5 -25.5t25.5 -62.5 q0 -47 -40 -88t-91 -41q-39 0 -64.5 25.5t-25.5 62.5zM930 1221q0 47 41 87t92 40q39 0 63.5 -24.5t24.5 -61.5q0 -50 -40.5 -89.5t-90.5 -39.5q-39 0 -64.5 25.5t-25.5 62.5z" />
<glyph unicode="&#xfd;" horiz-adv-x="993" d="M170 594q0 10 9 41.5t30 78t49.5 88t74 71.5t97.5 30q69 0 112.5 -46.5t43.5 -117.5q0 -38 -37 -139.5t-74 -223t-37 -208.5q0 -143 115 -143q59 0 113 38t88 101q9 17 22 72l137 548q2 11 5 21.5t12 30.5t27 32.5t42 12.5q22 0 39 -15.5t17 -40.5q0 -5 -11 -49 l-184 -737q-13 -52 -20 -76t-23.5 -63t-40.5 -78q-68 -108 -168 -176t-209 -68q-85 0 -140.5 49.5t-55.5 128.5q0 65 32 96t70 31q31 0 50.5 -18.5t19.5 -46.5q0 -32 -25.5 -64t-81.5 -35q34 -94 129 -94q92 0 173.5 87.5t131.5 238.5q23 76 29 102q-48 -40 -90 -58t-96 -18 q-34 0 -65 6t-62 22t-54 40t-37 64.5t-14 91.5q0 70 24.5 164t54.5 169t54.5 151.5t24.5 115.5q0 57 -47 57t-86.5 -42.5t-59 -93t-36.5 -97t-23 -50.5q-9 -6 -20 -6t-20 7t-9 18zM684 1053v1q0 12 15.5 27t100.5 83q30 24 49 39.5t56.5 45.5t73.5 60q28 24 55 24 q23 0 40.5 -17t17.5 -40q0 -10 -3 -19t-8 -16t-10 -12.5t-12.5 -11t-12 -8t-10 -6t-6.5 -3.5q-296 -172 -306 -176q-6 -2 -11 -2q-12 0 -20.5 10t-8.5 21z" />
<glyph unicode="&#xfe;" d="M-8 -371q0 23 21 31t48 6t58.5 4t46.5 25q15 20 35 102l358 1432q12 58 12 65q0 24 -23 33t-50.5 7t-50.5 3.5t-23 24.5q0 7 2 13t5 9.5t8.5 7t9.5 5t10.5 3t10 2t10 1t7.5 0.5q204 18 205 18q33 0 33 -28q0 -12 -24.5 -108.5t-61.5 -242.5t-57 -231q106 92 221 92 q116 0 187 -90t71 -231q0 -115 -45 -227t-115.5 -194t-161 -133t-178.5 -51q-34 0 -61.5 8t-46.5 23t-30 27t-22 28q-88 -350 -88 -362q0 -23 29 -29.5t65.5 -6.5t45.5 -7q8 -5 8 -20q0 -13 -11 -24t-30 -11q-6 0 -31.5 1t-70.5 2t-97 1q-58 0 -101.5 -1t-65.5 -2t-27 -1 q-35 0 -35 26zM428 156q0 -12 5.5 -31.5t18.5 -43t40 -40t63 -16.5q73 0 136.5 53.5t104 132.5t70 171t42 166.5t12.5 121.5q0 78 -31 133t-96 55q-99 0 -185 -94q-11 -12 -18.5 -20.5t-13.5 -18.5t-9.5 -13.5t-7 -14.5t-4 -13t-4 -17t-4.5 -18q-25 -99 -48.5 -192 t-34.5 -137t-20.5 -82.5t-12.5 -54.5t-3 -27z" />
<glyph unicode="&#xff;" horiz-adv-x="993" d="M170 594q0 10 9 41.5t30 78t49.5 88t74 71.5t97.5 30q69 0 112.5 -46.5t43.5 -117.5q0 -38 -37 -139.5t-74 -223t-37 -208.5q0 -143 115 -143q59 0 113 38t88 101q9 17 22 72l137 548q2 11 5 21.5t12 30.5t27 32.5t42 12.5q22 0 39 -15.5t17 -40.5q0 -5 -11 -49 l-184 -737q-13 -52 -20 -76t-23.5 -63t-40.5 -78q-68 -108 -168 -176t-209 -68q-85 0 -140.5 49.5t-55.5 128.5q0 65 32 96t70 31q31 0 50.5 -18.5t19.5 -46.5q0 -32 -25.5 -64t-81.5 -35q34 -94 129 -94q92 0 173.5 87.5t131.5 238.5q23 76 29 102q-48 -40 -90 -58t-96 -18 q-34 0 -65 6t-62 22t-54 40t-37 64.5t-14 91.5q0 70 24.5 164t54.5 169t54.5 151.5t24.5 115.5q0 57 -47 57t-86.5 -42.5t-59 -93t-36.5 -97t-23 -50.5q-9 -6 -20 -6t-20 7t-9 18zM516 1221q0 47 40 88t91 41q39 0 63.5 -25.5t24.5 -62.5q0 -47 -40 -88t-91 -41 q-39 0 -63.5 25.5t-24.5 62.5zM879 1221q0 50 40.5 89.5t90.5 39.5q39 0 64.5 -25.5t25.5 -62.5q0 -50 -40.5 -89.5t-90.5 -39.5q-38 0 -64 24.5t-26 63.5z" />
<glyph unicode="&#x152;" horiz-adv-x="2017" d="M330 483q0 120 34.5 241.5t93.5 226.5t141 197t173.5 156.5t194 102t200.5 37.5q55 0 140 -22.5t172 -22.5h628q41 0 41 -35q0 -23 -45 -369q0 -5 -2 -16t-10.5 -26t-22.5 -15q-18 0 -24 8.5t-6 28.5q0 11 6 65.5t6 96.5q0 40 -6.5 69.5t-17 51t-31 35.5t-41 22.5t-55 13 t-65.5 5.5t-79 1h-164q-59 0 -77.5 -12.5t-34.5 -73.5l-123 -491h194q128 0 179 38t81 148q1 2 3 10.5t3.5 12t4.5 10t6.5 10t9 6t12.5 2.5q29 0 29 -28q0 -10 -57 -239t-60 -239q-8 -32 -35 -32q-28 0 -28 26q0 11 9 52t9 67q0 22 -6 38t-20 26t-27.5 16t-39.5 8.5t-44.5 3 t-52.5 0.5h-187q-147 -586 -147 -604q0 -13 9 -19t18 -7t28 -1h180q83 0 140.5 6.5t107.5 26.5t84.5 47t70 78.5t63.5 109.5t67 150q6 16 10 23.5t13.5 14.5t23.5 7q10 0 17.5 -6.5t7.5 -17.5q0 -13 -99 -254q-49 -120 -82 -201q-13 -32 -23.5 -39.5t-37.5 -7.5h-672 q-76 0 -171 -22.5t-152 -22.5q-90 0 -172.5 34.5t-148.5 99t-105 167t-39 227.5zM516 451q0 -194 79.5 -321.5t217.5 -127.5q110 0 168 55q50 46 86.5 160.5t130.5 495.5q10 42 16 66.5t16 65t19 75.5q40 159 53 227t13 119q0 58 -32 94.5t-122 36.5q-155 0 -305.5 -138.5 t-245 -359.5t-94.5 -448z" />
<glyph unicode="&#x153;" horiz-adv-x="1464" d="M219 293q0 150 70 294t180 232t221 88q156 0 219 -182q53 57 109.5 96.5t105.5 56t81 22t59 5.5q90 0 147 -48t57 -126q0 -17 -3 -35.5t-16.5 -50t-36 -57t-68.5 -52t-107 -40.5q-104 -25 -293 -25h-29q-28 -126 -28 -209q0 -109 45 -173t119 -64q37 0 80 12t106.5 54 t116.5 110q2 2 6.5 8.5t7 9.5t7 8t8 8t8 5t8.5 2q11 0 18.5 -9t7.5 -22q0 -19 -31 -56.5t-80 -77.5t-121.5 -70t-143.5 -30q-84 0 -152.5 48t-105.5 155h-3q-57 -82 -142.5 -144.5t-178.5 -62.5q-111 0 -179.5 90t-68.5 230zM358 203q0 -85 30.5 -134t82.5 -49q89 0 180 123 q70 95 115 260.5t45 262.5q0 90 -34.5 142t-88.5 52q-91 0 -176 -127q-64 -95 -109 -271t-45 -259zM928 518q44 0 77.5 1t85 5.5t89.5 13t80.5 24.5t69.5 38t45 56t18 77q0 55 -35.5 90t-93.5 35q-104 0 -199.5 -92t-136.5 -248z" />
<glyph unicode="&#x178;" horiz-adv-x="1521" d="M414 1360q0 18 8 27.5t14.5 10.5t16.5 1q34 0 106 -3t107 -3q40 0 120 3t119 3q29 0 29 -25q0 -14 -3.5 -22.5t-11 -12t-13.5 -4t-17 -0.5q-115 0 -115 -49q0 -6 8 -26l195 -615l448 547q0 1 6.5 9t13.5 17.5t14.5 22t12.5 25t5 22.5q0 43 -64 47q-31 0 -31 25 q0 18 7.5 27.5t14 10.5t15.5 1q30 0 94.5 -3t96.5 -3q26 0 78.5 3t76.5 3q25 0 25 -23q0 -18 -7 -27.5t-12.5 -10.5t-19.5 -3q-75 -6 -138.5 -44t-133.5 -124l-484 -587q-2 -3 -4 -5t-3.5 -4.5t-2.5 -4t-2.5 -5t-2 -5l-2 -6t-2 -7t-2.5 -9t-3 -10.5q-3 -13 -64 -252 q-39 -164 -39 -174q0 -23 29 -29t90 -6q20 0 26 -0.5t15 -2.5t11.5 -7t2.5 -14q0 -18 -8 -27.5t-14 -10.5t-16 -1q-39 0 -121.5 3t-122.5 3q-39 0 -119 -3t-119 -3q-28 0 -28 25q0 14 3 22.5t12 11.5t15 3.5t21 0.5l64.5 1.5t43 6.5t29.5 10.5t18 22t13.5 31.5t11.5 49 q94 367 94 375q0 11 -8 31l-217 684q-11 36 -36 48.5t-95 12.5q-18 0 -26.5 1t-15.5 6.5t-7 17.5zM897 1698q0 47 39 87t90 40q38 0 64 -24.5t26 -63.5q0 -47 -40 -87t-91 -40q-39 0 -63.5 25.5t-24.5 62.5zM1264 1698q0 47 40 88t91 41q39 0 63.5 -25.5t24.5 -62.5 q0 -47 -40 -88t-91 -41q-39 0 -63.5 25.5t-24.5 62.5z" />
<glyph unicode="&#x2c6;" horiz-adv-x="942" d="M463 1016v1q0 10 17.5 28.5t106.5 99.5q22 20 35.5 32.5t38.5 35.5t48 44q10 9 21 19.5t17.5 16.5t13.5 12.5t11 10t9 6.5t8.5 4t7.5 1q7 0 13 -4t11.5 -12t9.5 -15.5t10.5 -19.5t10.5 -19q42 -74 91 -158q42 -72 42 -81q0 -12 -11.5 -22.5t-23.5 -10.5t-26 17.5 t-81 117.5q-39 59 -65 97q-75 -64 -168 -144q-73 -62 -90 -75t-26 -13q-11 0 -21 9.5t-10 21.5z" />
<glyph unicode="&#x2dc;" d="M508 1184q0 14 45 58t108.5 84t104.5 40q29 0 50.5 -13.5t34.5 -32t24.5 -37.5t27.5 -32.5t37 -13.5q26 0 60.5 20t61 43.5t51 43.5t34.5 20q9 0 14.5 -6.5t5.5 -14.5q0 -14 -44.5 -57.5t-108 -84t-105.5 -40.5q-29 0 -50.5 13.5t-34.5 32.5t-24.5 38.5t-27.5 33 t-37 13.5q-34 0 -79 -32t-80.5 -63.5t-47.5 -31.5q-9 0 -14.5 5.5t-5.5 13.5z" />
<glyph unicode="&#x2000;" horiz-adv-x="935" />
<glyph unicode="&#x2001;" horiz-adv-x="1870" />
<glyph unicode="&#x2002;" horiz-adv-x="935" />
<glyph unicode="&#x2003;" horiz-adv-x="1870" />
<glyph unicode="&#x2004;" horiz-adv-x="623" />
<glyph unicode="&#x2005;" horiz-adv-x="467" />
<glyph unicode="&#x2006;" horiz-adv-x="311" />
<glyph unicode="&#x2007;" horiz-adv-x="311" />
<glyph unicode="&#x2008;" horiz-adv-x="233" />
<glyph unicode="&#x2009;" horiz-adv-x="374" />
<glyph unicode="&#x200a;" horiz-adv-x="103" />
<glyph unicode="&#x2010;" horiz-adv-x="733" d="M176 412q8 72 35 82q8 4 27 4h407q14 0 22.5 -1.5t15.5 -8t7 -19.5q0 -5 -2 -19.5t-9 -35t-17 -25.5q-12 -6 -31 -6h-410q-15 0 -23.5 1.5t-15 8t-6.5 19.5z" />
<glyph unicode="&#x2011;" horiz-adv-x="733" d="M176 412q8 72 35 82q8 4 27 4h407q14 0 22.5 -1.5t15.5 -8t7 -19.5q0 -5 -2 -19.5t-9 -35t-17 -25.5q-12 -6 -31 -6h-410q-15 0 -23.5 1.5t-15 8t-6.5 19.5z" />
<glyph unicode="&#x2012;" horiz-adv-x="733" d="M176 412q8 72 35 82q8 4 27 4h407q14 0 22.5 -1.5t15.5 -8t7 -19.5q0 -5 -2 -19.5t-9 -35t-17 -25.5q-12 -6 -31 -6h-410q-15 0 -23.5 1.5t-15 8t-6.5 19.5z" />
<glyph unicode="&#x2013;" d="M190 545q0 8 3 13t12 6.5t15 2t22 0.5h835q16 0 21.5 -0.5t14.5 -2t12 -6.5t3 -13q0 -16 -11.5 -19.5t-39.5 -3.5h-835q-20 0 -28.5 1t-16 6t-7.5 16z" />
<glyph unicode="&#x2014;" horiz-adv-x="2093" d="M244 545q0 16 11 19t40 3h1776q16 0 21.5 -0.5t14.5 -2t12 -6.5t3 -13q0 -16 -11.5 -19.5t-39.5 -3.5h-1776q-19 0 -27.5 1t-16 6t-7.5 16z" />
<glyph unicode="&#x2018;" horiz-adv-x="628" d="M422 934q0 88 56 212.5t175 231.5q44 39 60 39q20 0 20 -18q0 -9 -20.5 -28.5t-52.5 -50.5t-66.5 -72.5t-68.5 -110t-52 -148.5q47 35 90 35q40 0 65 -24t25 -62q0 -50 -40 -90.5t-93 -40.5q-38 0 -68 28.5t-30 98.5z" />
<glyph unicode="&#x2019;" horiz-adv-x="628" d="M451 831q0 5 3 10t8.5 10.5t10 9.5t12 10t9.5 8q80 70 137.5 165t77.5 197q-44 -35 -88 -35q-40 0 -65.5 23t-25.5 61q0 49 38.5 90t93.5 41q38 0 69 -29.5t31 -99.5q0 -78 -38 -168.5t-88.5 -157t-97.5 -111t-67 -44.5q-7 0 -13.5 6.5t-6.5 13.5z" />
<glyph unicode="&#x201a;" horiz-adv-x="628" d="M150 -375q0 9 26 35q81 69 144.5 165t85.5 206q-39 -31 -84 -31q-38 0 -64.5 20.5t-26.5 65.5q0 48 38 89.5t96 41.5q47 0 70.5 -33.5t23.5 -87.5q0 -69 -26.5 -144t-65 -134.5t-80 -109t-73.5 -76.5t-44 -27q-9 0 -14.5 7t-5.5 13z" />
<glyph unicode="&#x201c;" horiz-adv-x="739" d="M274 934q0 88 56.5 212.5t175.5 231.5q44 39 59 39q21 0 21 -18q0 -9 -20.5 -28.5t-52.5 -50.5t-66.5 -72.5t-68.5 -110t-52 -148.5q47 35 90 35q40 0 65 -24t25 -62q0 -50 -40 -90.5t-93 -40.5q-38 0 -68.5 28.5t-30.5 98.5zM678 934q0 88 56 212.5t175 231.5 q44 39 60 39q20 0 20 -18q0 -9 -20.5 -28.5t-52.5 -50.5t-66.5 -72.5t-68.5 -110t-52 -148.5q47 35 90 35q40 0 65 -24t25 -62q0 -50 -40 -90.5t-93 -40.5q-38 0 -68 28.5t-30 98.5z" />
<glyph unicode="&#x201d;" horiz-adv-x="739" d="M303 834q0 6 5.5 13t10.5 11.5t15 12.5t12 10q80 70 137.5 165t77.5 197q-44 -35 -88 -35q-40 0 -65 23t-25 61q0 50 38 90.5t93 40.5q38 0 69 -29.5t31 -99.5q0 -78 -38 -168.5t-88 -157t-97 -111t-67 -44.5q-8 0 -14.5 6.5t-6.5 14.5zM709 829q0 15 10 25q1 1 23 21 t42 39.5t50.5 56.5t54 74.5t45 89.5t31.5 106q-44 -35 -91 -35q-40 0 -64 23t-24 61q0 49 38.5 90t93.5 41q38 0 69 -28.5t31 -98.5q0 -79 -38 -169.5t-88.5 -157t-97.5 -111.5t-67 -45q-18 0 -18 18z" />
<glyph unicode="&#x201e;" horiz-adv-x="739" d="M4 -375q0 9 21.5 30t54.5 54t68 76t67 109.5t47 140.5q-44 -35 -90 -35q-40 0 -64 24t-24 62q0 51 39 91t92 40q37 0 60.5 -21.5t30.5 -47.5t7 -56q0 -82 -38 -174t-88 -158t-96 -109.5t-66 -43.5q-8 0 -14.5 5.5t-6.5 12.5zM408 -375q0 12 33 44t75 73.5t86.5 120.5 t63.5 172q-44 -35 -91 -35q-40 0 -64 24t-24 62q0 51 39 91t92 40q37 0 60.5 -21.5t31 -47.5t7.5 -56q0 -82 -38 -174t-88 -158t-96.5 -109.5t-66.5 -43.5q-8 0 -14 5.5t-6 12.5z" />
<glyph unicode="&#x2022;" d="M274 434q0 87 40.5 169.5t104.5 142.5t147 96.5t165 36.5q127 0 211 -80.5t84 -208.5q0 -111 -64 -214t-170.5 -167t-222.5 -64q-127 0 -211 80.5t-84 208.5z" />
<glyph unicode="&#x2026;" horiz-adv-x="1886" d="M229 88q0 47 40 88t91 41q39 0 64 -25.5t25 -62.5q0 -47 -40.5 -88t-91.5 -41q-39 0 -63.5 25.5t-24.5 62.5zM858 88q0 47 40 88t91 41q39 0 63.5 -25.5t24.5 -62.5q0 -47 -40 -88t-91 -41q-39 0 -63.5 25.5t-24.5 62.5zM1487 88q0 47 40 88t91 41q39 0 63.5 -25.5 t24.5 -62.5q0 -47 -40 -88t-91 -41q-39 0 -63.5 25.5t-24.5 62.5z" />
<glyph unicode="&#x202f;" horiz-adv-x="374" />
<glyph unicode="&#x2039;" horiz-adv-x="942" d="M389 494q0 10 20 26t59.5 43.5t87 64.5t113.5 102t128 142q13 16 26.5 33t21.5 27t16.5 20.5t13 15.5t9.5 9.5t8.5 6t6.5 1.5q19 0 19 -18q0 -12 -30.5 -61t-80 -115.5t-126.5 -149.5t-157 -149q43 -70 75 -142t47.5 -122.5t24 -98t10 -66t1.5 -28.5q0 -31 -23 -31 q-17 2 -26 39q-23 105 -66.5 194t-81.5 134.5t-67 79t-29 43.5z" />
<glyph unicode="&#x203a;" horiz-adv-x="942" d="M270 23q0 19 53 98.5t149.5 189.5t191.5 187v2q-76 108 -117 245.5t-41 210.5q0 29 20 29q23 0 29 -39q23 -106 66.5 -195t81.5 -134t67 -78t29 -43q0 -9 -21.5 -26.5t-62.5 -47t-89.5 -67.5t-112.5 -101.5t-122 -136.5q-13 -16 -26.5 -33.5t-21 -27.5t-15.5 -20 t-12.5 -15t-9.5 -9.5t-9 -6t-8 -1.5q-6 0 -12.5 5t-6.5 14z" />
<glyph unicode="&#x205f;" horiz-adv-x="467" />
<glyph unicode="&#x20ac;" horiz-adv-x="1478" d="M152 592q0 5 6.5 21t26 35t44.5 20h166l2 2l15 61h-181q-38 0 -38 21q0 7 6.5 23t25.5 34t45 18h176q63 154 190.5 284.5t296.5 209t339 78.5q80 0 153 -18.5t122.5 -45t86.5 -56.5t54.5 -53.5t17.5 -35.5q0 -16 -37 -67.5t-51 -51.5q-8 0 -25.5 18t-45.5 43.5t-66 51 t-100.5 43.5t-135.5 18q-185 0 -359 -112t-280 -306h797q37 0 37 -20q0 -7 -19 -39q-18 -27 -29 -32t-46 -5h-779l-16 -63h741q37 0 37 -21q0 -9 -18 -39q-18 -27 -28 -32t-36 -5h-706q3 -197 122.5 -307t303.5 -110q94 0 188.5 27t152 58.5t104 61.5t50.5 31q17 4 22 -9.5 t1 -31.5q-3 -13 -8 -34.5t-7.5 -27.5t-6 -18.5t-8 -17.5t-10 -12.5t-16.5 -14.5t-21 -14t-30 -19q-218 -133 -444 -133q-114 0 -214.5 37t-175.5 105t-118 170.5t-43 226.5v32h-193q-38 0 -38 21z" />
<glyph unicode="&#x2122;" horiz-adv-x="1359" d="M244 1513q0 23 49 23h491q23 0 33 -0.5t22 -2.5t16 -7t5 -13q0 -24 -51 -24q-7 0 -18 1t-13 1h-200q-180 -720 -185 -735q-9 -31 -35 -31t-26 27q0 12 4.5 31t15 58t17.5 68l145 582h-201q-38 0 -53.5 4t-15.5 18zM750 754q0 15 8 39l147 593q37 151 43 166q11 27 33 27 q7 0 12 -1.5t9 -6t6 -8t4 -11t2.5 -11t2 -13.5t1.5 -12q48 -407 53 -431q7 12 281 453q23 41 49 41q5 0 10.5 -1.5t10.5 -8t5 -17.5q0 -13 -30 -133l-160 -643q-13 -51 -41 -51q-27 0 -27 31q0 2 9 47l143 573q-62 -99 -143 -231q-79 -128 -95.5 -150t-33.5 -22 q-25 0 -31 28q-1 5 -8.5 64.5t-15.5 127t-15.5 129.5t-7.5 64h-2l-25 -102l-127 -506q-13 -55 -39 -55q-11 0 -19.5 10.5t-8.5 20.5z" />
<glyph unicode="&#x25fc;" horiz-adv-x="901" d="M0 0v901h901v-901h-901z" />
</font>
</defs>
</svg>
